<svg width="480" height="480" viewBox="0 0 480 480" fill="none" xmlns="http://www.w3.org/2000/svg">
<rect width="480" height="480" fill="#3B82F6"/>
<g clip-path="url(#clip0_97_38)">
<path d="M399 351.211H397.354L398.174 350.902L399 351.211Z" fill="#F9FAFB"/>
<path d="M397.354 351.211H314.367C310.302 349.699 306.324 347.965 302.451 346.014C279.122 334.269 260.283 315.203 248.818 291.735C248.712 291.428 248.571 291.134 248.399 290.859C247.36 288.693 246.392 286.489 245.497 284.249C242.577 277.043 240.376 269.566 238.926 261.927H297.524C311.871 261.927 324.678 270.724 330.035 284.035L330.122 284.249C335.417 297.332 342.998 309.369 352.51 319.796C364.805 333.271 397.414 350.881 397.354 351.211Z" fill="#F9FAFB"/>
<path d="M264.793 351.211C263.357 351.211 261.926 351.189 260.502 351.145L260.57 351.211H215.927C166.617 351.211 126.654 311.237 126.654 261.927V239.706C126.651 198.121 110.664 158.128 82 128H180.962C190.236 128.001 199.129 131.685 205.686 138.243C212.243 144.8 215.927 153.694 215.927 162.968V239.605C215.927 285.327 238.14 325.864 272.377 351.005C269.859 351.146 267.331 351.214 264.793 351.211Z" fill="#F9FAFB"/>
</g>
<defs>
<clipPath id="clip0_97_38">
<rect width="317" height="223.211" fill="white" transform="translate(82 128)"/>
</clipPath>
</defs>
</svg>
