<svg width="249" height="175" viewBox="0 0 249 175" fill="none" xmlns="http://www.w3.org/2000/svg">
<g clip-path="url(#clip0_97_73)">
<path d="M248.532 175H247.241L247.885 174.758L248.532 175Z" fill="#111827"/>
<path d="M247.241 175H182.178C178.992 173.815 175.873 172.455 172.837 170.926C154.546 161.717 139.776 146.77 130.788 128.37C130.705 128.13 130.594 127.899 130.459 127.684C129.644 125.985 128.886 124.257 128.184 122.501C125.894 116.851 124.169 110.989 123.032 105H168.973C180.222 105 190.263 111.898 194.463 122.333L194.531 122.501C198.682 132.758 204.626 142.196 212.083 150.371C221.723 160.935 247.289 174.742 247.241 175Z" fill="#111827"/>
<path d="M143.312 175C142.186 175 141.064 174.983 139.947 174.948L140.001 175H105C66.3411 175 35.0091 143.66 35.0091 105V87.5786C35.0069 54.9755 22.4729 23.6206 0 0H77.5875C84.8581 0.000548472 91.8306 2.88915 96.9715 8.03039C102.112 13.1716 105 20.1444 105 27.415V87.5C105 123.347 122.416 155.127 149.258 174.839C147.284 174.949 145.302 175.003 143.312 175Z" fill="#111827"/>
</g>
<defs>
<clipPath id="clip0_97_73">
<rect width="248.532" height="175" fill="white"/>
</clipPath>
</defs>
</svg>
