<svg width="600" height="344" viewBox="0 0 600 344" fill="none" xmlns="http://www.w3.org/2000/svg">
<rect width="600" height="343.671" fill="white"/>
<rect x="20" y="63" width="560" height="1" fill="#F3F4F6"/>
<rect x="501" y="39" width="79" height="9" fill="#3B82F6"/>
<rect x="20" y="36" width="154" height="16" fill="#1F2937"/>
<rect x="21" y="80" width="178" height="136" rx="3" fill="#F3F4F6"/>
<path d="M100.623 145.917C102.349 145.917 103.748 144.518 103.748 142.792C103.748 141.066 102.349 139.667 100.623 139.667C98.897 139.667 97.4979 141.066 97.4979 142.792C97.4979 144.518 98.897 145.917 100.623 145.917Z" fill="#D1D5DB"/>
<path d="M106.873 152.167L103.748 148L97.4979 156.333H122.498L113.123 143.833L106.873 152.167Z" fill="#D1D5DB"/>
<path d="M126.665 131.333H93.3312C91.0333 131.333 89.1646 133.202 89.1646 135.5V160.5C89.1646 162.798 91.0333 164.667 93.3312 164.667H126.665C128.962 164.667 130.831 162.798 130.831 160.5V135.5C130.831 133.202 128.962 131.333 126.665 131.333ZM93.3312 160.5V135.5H126.665L126.669 160.5H93.3312V160.5Z" fill="#D1D5DB"/>
<rect x="21" y="225" width="41" height="6" fill="#9CA3AF"/>
<rect x="21" y="243" width="178" height="12" fill="#374151"/>
<rect x="21" y="259" width="178" height="12" fill="#374151"/>
<rect x="211" y="80" width="178" height="136" rx="3" fill="#F3F4F6"/>
<path d="M290.623 145.917C292.349 145.917 293.748 144.518 293.748 142.792C293.748 141.066 292.349 139.667 290.623 139.667C288.897 139.667 287.498 141.066 287.498 142.792C287.498 144.518 288.897 145.917 290.623 145.917Z" fill="#D1D5DB"/>
<path d="M296.873 152.167L293.748 148L287.498 156.333H312.498L303.123 143.833L296.873 152.167Z" fill="#D1D5DB"/>
<path d="M316.665 131.333H283.331C281.033 131.333 279.165 133.202 279.165 135.5V160.5C279.165 162.798 281.033 164.667 283.331 164.667H316.665C318.962 164.667 320.831 162.798 320.831 160.5V135.5C320.831 133.202 318.962 131.333 316.665 131.333ZM283.331 160.5V135.5H316.665L316.669 160.5H283.331V160.5Z" fill="#D1D5DB"/>
<rect x="211" y="225" width="41" height="6" fill="#9CA3AF"/>
<rect x="211" y="243" width="178" height="12" fill="#374151"/>
<rect x="211" y="259" width="178" height="12" fill="#374151"/>
<rect x="401" y="80" width="178" height="136" rx="3" fill="#F3F4F6"/>
<path d="M480.623 145.917C482.349 145.917 483.748 144.518 483.748 142.792C483.748 141.066 482.349 139.667 480.623 139.667C478.897 139.667 477.498 141.066 477.498 142.792C477.498 144.518 478.897 145.917 480.623 145.917Z" fill="#D1D5DB"/>
<path d="M486.873 152.167L483.748 148L477.498 156.333H502.498L493.123 143.833L486.873 152.167Z" fill="#D1D5DB"/>
<path d="M506.665 131.333H473.331C471.033 131.333 469.165 133.202 469.165 135.5V160.5C469.165 162.798 471.033 164.667 473.331 164.667H506.665C508.962 164.667 510.831 162.798 510.831 160.5V135.5C510.831 133.202 508.962 131.333 506.665 131.333ZM473.331 160.5V135.5H506.665L506.669 160.5H473.331V160.5Z" fill="#D1D5DB"/>
<rect x="401" y="225" width="41" height="6" fill="#9CA3AF"/>
<rect x="401" y="243" width="178" height="12" fill="#374151"/>
<rect x="401" y="259" width="178" height="12" fill="#374151"/>
</svg>
