<svg width="600" height="354" viewBox="0 0 600 354" fill="none" xmlns="http://www.w3.org/2000/svg">
<rect width="600" height="353.425" fill="white"/>
<rect x="20" y="82" width="46" height="7" fill="#9CA3AF"/>
<rect x="155" y="81" width="334" height="13" fill="#1F2937"/>
<rect x="155" y="105" width="425" height="7" fill="#6B7280"/>
<rect x="155" y="119" width="425" height="7" fill="#6B7280"/>
<rect x="155" y="139" width="55" height="7" fill="#3B82F6"/>
<rect x="20" y="169" width="46" height="7" fill="#9CA3AF"/>
<rect x="155" y="168" width="334" height="13" fill="#1F2937"/>
<rect x="155" y="192" width="425" height="7" fill="#6B7280"/>
<rect x="155" y="206" width="425" height="7" fill="#6B7280"/>
<rect x="155" y="226" width="55" height="7" fill="#3B82F6"/>
<rect x="20" y="254" width="46" height="7" fill="#9CA3AF"/>
<rect x="155" y="253" width="334" height="13" fill="#1F2937"/>
<rect x="155" y="277" width="425" height="7" fill="#6B7280"/>
<rect x="155" y="291" width="425" height="7" fill="#6B7280"/>
<rect x="155" y="311" width="55" height="7" fill="#3B82F6"/>
<rect x="20" y="63" width="560" height="1" fill="#F3F4F6"/>
<rect x="501" y="39" width="79" height="9" fill="#3B82F6"/>
<rect x="20" y="36" width="154" height="16" fill="#1F2937"/>
</svg>
