<svg width="127" height="20" viewBox="0 0 127 20" fill="none" xmlns="http://www.w3.org/2000/svg">
<path d="M0.2 19.12L0.104 17.992L2.408 17.344L1.448 17.944C1.56 17.704 1.688 17.44 1.832 17.152C1.992 16.848 2.144 16.528 2.288 16.192C2.448 15.84 2.584 15.496 2.696 15.16L6.944 2.08L8.264 1.84L13.232 15.376C13.376 15.824 13.552 16.264 13.76 16.696C13.984 17.128 14.184 17.536 14.36 17.92L13.352 17.32L15.68 17.728L15.56 19H13.112C12.92 19 12.632 19.008 12.248 19.024C11.864 19.04 11.448 19.056 11 19.072C10.568 19.088 10.16 19.104 9.776 19.12L9.704 17.992L12.248 17.224L11.576 18.016C11.48 17.44 11.376 16.896 11.264 16.384C11.152 15.856 10.992 15.328 10.784 14.8L7.208 4.768H7.712L4.136 15.928C4.024 16.264 3.952 16.616 3.92 16.984C3.888 17.336 3.856 17.672 3.824 17.992L3.08 17.368L5.6 17.728L5.48 19H3.44C3.248 19 2.96 19.008 2.576 19.024C2.208 19.04 1.808 19.056 1.376 19.072C0.96 19.088 0.568 19.104 0.2 19.12ZM4.328 13.6V12.376H11.12V13.6H4.328ZM17.7725 19.12L17.6525 17.968L20.3405 17.416L19.3805 18.304C19.4125 18.176 19.4525 17.952 19.5005 17.632C19.5645 17.312 19.6205 16.976 19.6685 16.624C19.7325 16.256 19.7645 15.976 19.7645 15.784V10.456C19.7645 10.248 19.7405 9.968 19.6925 9.616C19.6445 9.248 19.5885 8.888 19.5245 8.536C19.4605 8.168 19.4125 7.904 19.3805 7.744L20.3405 8.848L17.7005 8.392L17.8205 7.144H20.7965L21.2525 7.576L21.5885 11.176L21.0605 9.784C21.3005 9.176 21.6045 8.664 21.9725 8.248C22.3565 7.832 22.8045 7.512 23.3165 7.288C23.8285 7.064 24.3885 6.952 24.9965 6.952C26.1325 6.952 26.9885 7.184 27.5645 7.648C28.1405 8.096 28.5325 8.736 28.7405 9.568C28.9485 10.4 29.0525 11.376 29.0525 12.496V15.064C29.0525 15.656 29.0765 16.24 29.1245 16.816C29.1885 17.392 29.2445 17.84 29.2925 18.16L28.4285 17.512L31.1405 17.752L30.9725 19H27.9005C27.8365 19 27.6605 19.008 27.3725 19.024C27.0845 19.04 26.7645 19.056 26.4125 19.072C26.0765 19.088 25.7725 19.104 25.5005 19.12L25.3805 17.968L27.7805 17.392L26.8925 17.944C26.9405 17.784 26.9885 17.592 27.0365 17.368C27.1005 17.128 27.1485 16.872 27.1805 16.6C27.2285 16.328 27.2525 16.056 27.2525 15.784V12.472C27.2525 11.768 27.1885 11.104 27.0605 10.48C26.9325 9.84 26.6845 9.32 26.3165 8.92C25.9485 8.52 25.4125 8.32 24.7085 8.32C23.7325 8.32 22.9645 8.704 22.4045 9.472C21.8605 10.24 21.5885 11.216 21.5885 12.4V15.064C21.5885 15.688 21.6125 16.328 21.6605 16.984C21.7085 17.64 21.7565 18.112 21.8045 18.4L20.9165 17.512L23.6285 17.752L23.4605 19H20.4125C20.2525 19 20.0205 19.008 19.7165 19.024C19.4125 19.04 19.0845 19.056 18.7325 19.072C18.3965 19.088 18.0765 19.104 17.7725 19.12ZM37.6719 19.24C36.1839 19.24 34.9999 18.688 34.1199 17.584C33.2559 16.48 32.8239 14.968 32.8239 13.048C32.8239 11.176 33.2639 9.696 34.1439 8.608C35.0399 7.504 36.2399 6.952 37.7439 6.952C38.1439 6.952 38.5119 6.976 38.8479 7.024C39.1839 7.056 39.5519 7.136 39.9519 7.264C40.3519 7.376 40.8319 7.552 41.3919 7.792L41.2239 9.52C40.6639 9.072 40.1199 8.76 39.5919 8.584C39.0799 8.392 38.5439 8.296 37.9839 8.296C37.0079 8.296 36.2319 8.728 35.6559 9.592C35.0959 10.44 34.8159 11.616 34.8159 13.12C34.8159 14.576 35.0799 15.728 35.6079 16.576C36.1359 17.424 36.8399 17.848 37.7199 17.848C38.7119 17.848 39.4879 17.52 40.0479 16.864C40.6079 16.208 40.8879 15.296 40.8879 14.128V4.144C40.8879 3.936 40.8639 3.664 40.8159 3.328C40.7679 2.992 40.7119 2.672 40.6479 2.368C40.5839 2.048 40.5359 1.824 40.5039 1.696L41.4159 2.488L38.4879 1.984L38.6079 0.783998L41.0559 0.855999H42.3999L42.8319 1.288C42.8159 1.624 42.7919 2.016 42.7599 2.464C42.7439 2.912 42.7279 3.352 42.7119 3.784C42.6959 4.216 42.6879 4.576 42.6879 4.864V15.088C42.6879 15.712 42.7359 16.344 42.8319 16.984C42.9279 17.624 43.0079 18.08 43.0719 18.352L42.1359 17.488L44.6079 17.752L44.4639 19H41.4639L40.9839 16.288L41.1519 16.696C41.1679 16.968 41.0639 17.256 40.8399 17.56C40.6159 17.848 40.3199 18.12 39.9519 18.376C39.5839 18.632 39.1999 18.84 38.7999 19C38.3999 19.16 38.0239 19.24 37.6719 19.24ZM49.661 19.24C48.589 19.24 47.741 18.968 47.117 18.424C46.493 17.864 46.181 17.12 46.181 16.192C46.181 15.36 46.445 14.672 46.973 14.128C47.517 13.568 48.325 13.2 49.397 13.024L53.597 12.328V13.504L49.685 14.248C49.205 14.328 48.829 14.512 48.557 14.8C48.285 15.088 48.149 15.44 48.149 15.856C48.149 16.464 48.301 16.944 48.605 17.296C48.925 17.632 49.373 17.8 49.949 17.8C50.797 17.8 51.533 17.528 52.157 16.984C52.797 16.44 53.173 15.768 53.285 14.968V11.584C53.285 10.432 53.093 9.576 52.709 9.016C52.325 8.44 51.749 8.152 50.981 8.152C50.645 8.152 50.285 8.184 49.901 8.248C49.517 8.312 49.157 8.4 48.821 8.512C48.485 8.624 48.229 8.744 48.053 8.872L48.797 7.84L48.509 9.64L48.533 10.624L47.141 10.696L46.901 7.504C47.381 7.376 47.861 7.272 48.341 7.192C48.821 7.112 49.301 7.056 49.781 7.024C50.261 6.976 50.741 6.952 51.221 6.952C52.645 6.952 53.645 7.344 54.221 8.128C54.797 8.896 55.085 10.224 55.085 12.112V15.064C55.085 15.784 55.125 16.416 55.205 16.96C55.301 17.488 55.381 17.904 55.445 18.208L54.653 17.488L57.005 17.752L56.861 19H53.861L53.381 16.288L53.813 16.216C53.781 16.664 53.565 17.128 53.165 17.608C52.781 18.072 52.277 18.464 51.653 18.784C51.045 19.088 50.381 19.24 49.661 19.24ZM63.5234 19.24C62.0354 19.24 60.8514 18.688 59.9714 17.584C59.1074 16.48 58.6754 14.968 58.6754 13.048C58.6754 11.176 59.1154 9.696 59.9954 8.608C60.8914 7.504 62.0914 6.952 63.5954 6.952C63.9954 6.952 64.3634 6.976 64.6994 7.024C65.0354 7.056 65.4034 7.136 65.8034 7.264C66.2034 7.376 66.6834 7.552 67.2434 7.792L67.0754 9.52C66.5154 9.072 65.9714 8.76 65.4434 8.584C64.9314 8.392 64.3954 8.296 63.8354 8.296C62.8594 8.296 62.0834 8.728 61.5074 9.592C60.9474 10.44 60.6674 11.616 60.6674 13.12C60.6674 14.576 60.9314 15.728 61.4594 16.576C61.9874 17.424 62.6914 17.848 63.5714 17.848C64.5634 17.848 65.3394 17.52 65.8994 16.864C66.4594 16.208 66.7394 15.296 66.7394 14.128V4.144C66.7394 3.936 66.7154 3.664 66.6674 3.328C66.6194 2.992 66.5634 2.672 66.4994 2.368C66.4354 2.048 66.3874 1.824 66.3554 1.696L67.2674 2.488L64.3394 1.984L64.4594 0.783998L66.9074 0.855999H68.2514L68.6834 1.288C68.6674 1.624 68.6434 2.016 68.6114 2.464C68.5954 2.912 68.5794 3.352 68.5634 3.784C68.5474 4.216 68.5394 4.576 68.5394 4.864V15.088C68.5394 15.712 68.5874 16.344 68.6834 16.984C68.7794 17.624 68.8594 18.08 68.9234 18.352L67.9874 17.488L70.4594 17.752L70.3154 19H67.3154L66.8354 16.288L67.0034 16.696C67.0194 16.968 66.9154 17.256 66.6914 17.56C66.4674 17.848 66.1714 18.12 65.8034 18.376C65.4354 18.632 65.0514 18.84 64.6514 19C64.2514 19.16 63.8754 19.24 63.5234 19.24ZM75.5126 19.24C74.4406 19.24 73.5926 18.968 72.9686 18.424C72.3446 17.864 72.0326 17.12 72.0326 16.192C72.0326 15.36 72.2966 14.672 72.8246 14.128C73.3686 13.568 74.1766 13.2 75.2486 13.024L79.4486 12.328V13.504L75.5366 14.248C75.0566 14.328 74.6806 14.512 74.4086 14.8C74.1366 15.088 74.0006 15.44 74.0006 15.856C74.0006 16.464 74.1526 16.944 74.4566 17.296C74.7766 17.632 75.2246 17.8 75.8006 17.8C76.6486 17.8 77.3846 17.528 78.0086 16.984C78.6486 16.44 79.0246 15.768 79.1366 14.968V11.584C79.1366 10.432 78.9446 9.576 78.5606 9.016C78.1766 8.44 77.6006 8.152 76.8326 8.152C76.4966 8.152 76.1366 8.184 75.7526 8.248C75.3686 8.312 75.0086 8.4 74.6726 8.512C74.3366 8.624 74.0806 8.744 73.9046 8.872L74.6486 7.84L74.3606 9.64L74.3846 10.624L72.9926 10.696L72.7526 7.504C73.2326 7.376 73.7126 7.272 74.1926 7.192C74.6726 7.112 75.1526 7.056 75.6326 7.024C76.1126 6.976 76.5926 6.952 77.0726 6.952C78.4966 6.952 79.4966 7.344 80.0726 8.128C80.6486 8.896 80.9366 10.224 80.9366 12.112V15.064C80.9366 15.784 80.9766 16.416 81.0566 16.96C81.1526 17.488 81.2326 17.904 81.2966 18.208L80.5046 17.488L82.8566 17.752L82.7126 19H79.7126L79.2326 16.288L79.6646 16.216C79.6326 16.664 79.4166 17.128 79.0166 17.608C78.6326 18.072 78.1286 18.464 77.5046 18.784C76.8966 19.088 76.2326 19.24 75.5126 19.24ZM90.2062 19.12L90.0862 17.944L92.8222 17.392L91.8862 18.328C91.9182 18.184 91.9582 17.944 92.0062 17.608C92.0542 17.256 92.1022 16.904 92.1502 16.552C92.1982 16.184 92.2222 15.92 92.2222 15.76V5.32C92.2222 5.144 92.1982 4.888 92.1502 4.552C92.1182 4.2 92.0702 3.848 92.0062 3.496C91.9582 3.144 91.9182 2.888 91.8862 2.728L92.8222 3.64L90.1342 3.208L90.2542 1.96C90.5582 1.976 90.8942 1.992 91.2622 2.008C91.6302 2.024 91.9742 2.04 92.2942 2.056C92.6302 2.072 92.8702 2.08 93.0142 2.08L94.5502 2.728C94.5342 2.856 94.5022 3.104 94.4542 3.472C94.4222 3.84 94.3822 4.256 94.3342 4.72C94.3022 5.184 94.2862 5.624 94.2862 6.04V15.04C94.2862 15.456 94.3022 15.88 94.3342 16.312C94.3662 16.728 94.4062 17.12 94.4542 17.488C94.5022 17.84 94.5422 18.12 94.5742 18.328L93.6382 17.488L96.9022 17.728L96.7342 19H93.4222C93.2302 19 92.9502 19.008 92.5822 19.024C92.2142 19.04 91.8142 19.056 91.3822 19.072C90.9662 19.088 90.5742 19.104 90.2062 19.12ZM96.4942 11.968C95.8222 11.968 95.1822 11.96 94.5742 11.944C93.9822 11.912 93.3342 11.88 92.6302 11.848V10.504C93.1902 10.568 93.7582 10.64 94.3342 10.72C94.9102 10.8 95.4782 10.84 96.0382 10.84C97.3022 10.84 98.3102 10.52 99.0622 9.88C99.8302 9.24 100.214 8.264 100.214 6.952C100.214 5.704 99.8302 4.752 99.0622 4.096C98.3102 3.44 97.3022 3.112 96.0382 3.112C95.7022 3.112 95.3662 3.12 95.0302 3.136C94.6942 3.152 94.3582 3.176 94.0222 3.208C93.7022 3.224 93.3662 3.248 93.0142 3.28V2.08C93.6702 2.08 94.3342 2.064 95.0062 2.032C95.6942 1.984 96.3662 1.96 97.0222 1.96C98.6862 1.96 99.9902 2.376 100.934 3.208C101.878 4.04 102.35 5.288 102.35 6.952C102.35 8.024 102.078 8.936 101.534 9.688C101.006 10.424 100.302 10.992 99.4222 11.392C98.5422 11.776 97.5662 11.968 96.4942 11.968ZM104.749 19.12L104.629 17.968L107.317 17.416L106.357 18.304C106.389 18.176 106.429 17.952 106.477 17.632C106.541 17.312 106.597 16.976 106.645 16.624C106.709 16.256 106.741 15.976 106.741 15.784V10.456C106.741 10.248 106.717 9.968 106.669 9.616C106.621 9.248 106.565 8.888 106.501 8.536C106.437 8.168 106.389 7.904 106.357 7.744L107.317 8.848L104.677 8.392L104.797 7.144H107.773L108.229 7.576L108.565 11.176L107.845 10.408C108.021 9.976 108.221 9.56 108.445 9.16C108.669 8.744 108.941 8.368 109.261 8.032C109.597 7.696 110.005 7.432 110.485 7.24C110.981 7.032 111.581 6.928 112.285 6.928C112.557 6.928 112.821 6.952 113.077 7C113.349 7.032 113.613 7.088 113.869 7.168L113.653 11.032L112.285 10.96V9.712C112.285 9.632 112.253 9.48 112.189 9.256C112.125 9.032 112.045 8.792 111.949 8.536C111.869 8.264 111.789 8.04 111.709 7.864L112.837 8.488C112.677 8.504 112.509 8.512 112.333 8.512C112.173 8.512 112.013 8.512 111.853 8.512C110.701 8.512 109.861 8.856 109.333 9.544C108.821 10.232 108.565 11.144 108.565 12.28V15.064C108.565 15.688 108.589 16.328 108.637 16.984C108.685 17.64 108.733 18.112 108.781 18.4L107.893 17.512L111.109 17.752L110.965 19H107.389C107.229 19 106.997 19.008 106.693 19.024C106.389 19.04 106.061 19.056 105.709 19.072C105.373 19.088 105.053 19.104 104.749 19.12ZM121.335 19.24C120.119 19.24 119.103 18.976 118.287 18.448C117.471 17.92 116.855 17.2 116.439 16.288C116.039 15.36 115.839 14.296 115.839 13.096C115.839 11.88 116.039 10.816 116.439 9.904C116.855 8.976 117.471 8.248 118.287 7.72C119.103 7.192 120.119 6.928 121.335 6.928C123.159 6.928 124.519 7.496 125.415 8.632C126.327 9.752 126.783 11.24 126.783 13.096C126.783 14.296 126.575 15.36 126.159 16.288C125.759 17.216 125.151 17.944 124.335 18.472C123.535 18.984 122.535 19.24 121.335 19.24ZM121.335 17.944C122.199 17.944 122.879 17.704 123.375 17.224C123.871 16.744 124.215 16.136 124.407 15.4C124.615 14.648 124.719 13.88 124.719 13.096C124.719 12.296 124.615 11.528 124.407 10.792C124.215 10.04 123.871 9.424 123.375 8.944C122.879 8.464 122.199 8.224 121.335 8.224C120.471 8.224 119.791 8.464 119.295 8.944C118.799 9.408 118.439 10.016 118.215 10.768C118.007 11.504 117.903 12.28 117.903 13.096C117.903 13.896 118.007 14.672 118.215 15.424C118.439 16.16 118.799 16.768 119.295 17.248C119.791 17.712 120.471 17.944 121.335 17.944Z" fill="#111827"/>
</svg>
