<svg width="81" height="19" viewBox="0 0 81 19" fill="none" xmlns="http://www.w3.org/2000/svg">
<path d="M0.168 18L6.672 1.536H9.672L16.2 18H13.728L12.12 13.92H4.104L2.52 18H0.168ZM4.848 11.976H11.352L9.36 6.816C9.312 6.672 9.24 6.472 9.144 6.216C9.048 5.96 8.944 5.68 8.832 5.376C8.72 5.056 8.608 4.736 8.496 4.416C8.384 4.08 8.28 3.776 8.184 3.504H8.04C7.928 3.824 7.8 4.192 7.656 4.608C7.512 5.024 7.368 5.432 7.224 5.832C7.08 6.216 6.96 6.544 6.864 6.816L4.848 11.976ZM18.0154 18V5.376H19.7194L19.9114 7.464H20.0794C20.2074 7.064 20.3834 6.688 20.6074 6.336C20.8314 5.968 21.1354 5.672 21.5194 5.448C21.9034 5.208 22.3754 5.088 22.9354 5.088C23.1754 5.088 23.3914 5.112 23.5834 5.16C23.7914 5.192 23.9434 5.232 24.0394 5.28V7.224H23.2474C22.7034 7.224 22.2314 7.32 21.8314 7.512C21.4474 7.688 21.1274 7.944 20.8714 8.28C20.6154 8.616 20.4234 9.016 20.2954 9.48C20.1834 9.944 20.1274 10.44 20.1274 10.968V18H18.0154ZM30.5498 18.288C29.3338 18.288 28.3098 18.056 27.4778 17.592C26.6618 17.112 26.0378 16.384 25.6058 15.408C25.1898 14.416 24.9818 13.176 24.9818 11.688C24.9818 10.2 25.1898 8.968 25.6058 7.992C26.0378 7.016 26.6698 6.288 27.5018 5.808C28.3498 5.328 29.3898 5.088 30.6218 5.088C31.4858 5.088 32.2298 5.2 32.8538 5.424C33.4938 5.648 34.0218 5.976 34.4378 6.408C34.8538 6.84 35.1578 7.36 35.3498 7.968C35.5578 8.576 35.6618 9.272 35.6618 10.056H33.5258C33.5258 9.32 33.4218 8.72 33.2138 8.256C33.0218 7.776 32.7098 7.424 32.2778 7.2C31.8458 6.96 31.2778 6.84 30.5738 6.84C29.8698 6.84 29.2618 7 28.7498 7.32C28.2378 7.624 27.8458 8.112 27.5738 8.784C27.3018 9.456 27.1658 10.344 27.1658 11.448V11.952C27.1658 12.992 27.2938 13.856 27.5498 14.544C27.8218 15.232 28.2138 15.736 28.7258 16.056C29.2378 16.376 29.8618 16.536 30.5978 16.536C31.3178 16.536 31.8938 16.408 32.3258 16.152C32.7738 15.896 33.0938 15.528 33.2858 15.048C33.4938 14.568 33.5978 13.992 33.5978 13.32H35.6618C35.6618 14.024 35.5578 14.68 35.3498 15.288C35.1578 15.896 34.8538 16.424 34.4378 16.872C34.0218 17.32 33.4938 17.672 32.8538 17.928C32.2138 18.168 31.4458 18.288 30.5498 18.288ZM38.1951 18V0.647999H40.3071V6.96H40.4751C40.7951 6.528 41.1551 6.176 41.5551 5.904C41.9551 5.632 42.3951 5.432 42.8751 5.304C43.3711 5.16 43.9071 5.088 44.4831 5.088C45.2831 5.088 45.9791 5.224 46.5711 5.496C47.1791 5.768 47.6511 6.208 47.9871 6.816C48.3391 7.424 48.5151 8.248 48.5151 9.288V18H46.4031V9.576C46.4031 9.048 46.3311 8.616 46.1871 8.28C46.0591 7.944 45.8751 7.68 45.6351 7.488C45.4111 7.296 45.1311 7.16 44.7951 7.08C44.4751 7 44.1151 6.96 43.7151 6.96C43.1231 6.96 42.5631 7.104 42.0351 7.392C41.5071 7.664 41.0831 8.072 40.7631 8.616C40.4591 9.144 40.3071 9.8 40.3071 10.584V18H38.1951ZM51.7185 3V0.647999H53.8305V3H51.7185ZM51.7185 18V5.376H53.8305V18H51.7185ZM60.4451 18L55.7651 5.376H57.9731L60.2771 11.688C60.3891 11.992 60.5171 12.376 60.6611 12.84C60.8051 13.288 60.9491 13.752 61.0931 14.232C61.2531 14.696 61.3811 15.112 61.4771 15.48H61.5971C61.7091 15.128 61.8371 14.72 61.9811 14.256C62.1251 13.776 62.2691 13.312 62.4131 12.864C62.5731 12.4 62.7091 12.008 62.8211 11.688L65.1011 5.376H67.2371L62.5571 18H60.4451ZM74.2697 18.288C72.9897 18.288 71.9097 18.056 71.0297 17.592C70.1657 17.112 69.5017 16.384 69.0377 15.408C68.5897 14.432 68.3657 13.192 68.3657 11.688C68.3657 10.168 68.5897 8.928 69.0377 7.968C69.5017 6.992 70.1657 6.272 71.0297 5.808C71.9097 5.328 72.9897 5.088 74.2697 5.088C75.5497 5.088 76.6217 5.328 77.4857 5.808C78.3657 6.272 79.0297 6.992 79.4777 7.968C79.9257 8.928 80.1497 10.168 80.1497 11.688C80.1497 13.192 79.9257 14.432 79.4777 15.408C79.0297 16.384 78.3657 17.112 77.4857 17.592C76.6217 18.056 75.5497 18.288 74.2697 18.288ZM74.2697 16.512C75.0857 16.512 75.7657 16.352 76.3097 16.032C76.8537 15.712 77.2617 15.216 77.5337 14.544C77.8217 13.856 77.9657 12.992 77.9657 11.952V11.424C77.9657 10.368 77.8217 9.504 77.5337 8.832C77.2617 8.16 76.8537 7.664 76.3097 7.344C75.7657 7.024 75.0857 6.864 74.2697 6.864C73.4537 6.864 72.7657 7.024 72.2057 7.344C71.6617 7.664 71.2537 8.16 70.9817 8.832C70.7097 9.504 70.5737 10.368 70.5737 11.424V11.952C70.5737 12.992 70.7097 13.856 70.9817 14.544C71.2537 15.216 71.6617 15.712 72.2057 16.032C72.7657 16.352 73.4537 16.512 74.2697 16.512Z" fill="#111827"/>
</svg>
