<svg width="130" height="23" viewBox="0 0 130 23" fill="none" xmlns="http://www.w3.org/2000/svg">
<path d="M13.248 8.48C15.696 9.056 16.92 10.4 16.92 12.512C16.92 13.952 16.376 15.064 15.288 15.848C14.2 16.616 12.648 17 10.632 17H0.864V15.008H3.96V2.528H0.864V0.535999H10.248C11.992 0.535999 13.336 0.927999 14.28 1.712C15.24 2.496 15.72 3.528 15.72 4.808C15.72 5.672 15.496 6.416 15.048 7.04C14.616 7.648 14.016 8.128 13.248 8.48ZM6.408 2.528V7.784H9.648C10.768 7.784 11.64 7.568 12.264 7.136C12.904 6.688 13.224 6.008 13.224 5.096C13.224 4.216 12.928 3.568 12.336 3.152C11.744 2.736 10.992 2.528 10.08 2.528H6.408ZM10.392 15.008C13.08 15.008 14.424 14.112 14.424 12.32C14.424 11.392 14.064 10.712 13.344 10.28C12.64 9.848 11.648 9.624 10.368 9.608H6.408V15.008H10.392ZM22.2926 3.128C21.7806 3.128 21.3486 2.992 20.9966 2.72C20.6446 2.448 20.4686 2.104 20.4686 1.688C20.4686 1.256 20.6446 0.903999 20.9966 0.631999C21.3486 0.343999 21.7806 0.199999 22.2926 0.199999C22.8366 0.199999 23.2846 0.343999 23.6366 0.631999C23.9886 0.903999 24.1646 1.256 24.1646 1.688C24.1646 2.104 23.9886 2.448 23.6366 2.72C23.2846 2.992 22.8366 3.128 22.2926 3.128ZM26.3006 15.104V17H18.8366V15.104H21.3806V7.592H18.8366V5.696H23.7326V15.104H26.3006ZM33.7787 17.336C32.6747 17.336 31.6427 17.088 30.6827 16.592C29.7227 16.096 28.9547 15.392 28.3787 14.48C27.8187 13.568 27.5387 12.528 27.5387 11.36C27.5387 10.176 27.8187 9.136 28.3787 8.24C28.9547 7.328 29.7227 6.624 30.6827 6.128C31.6427 5.632 32.6747 5.384 33.7787 5.384C34.8667 5.384 35.8827 5.632 36.8267 6.128C37.7867 6.624 38.5547 7.328 39.1307 8.24C39.7067 9.152 39.9947 10.192 39.9947 11.36C39.9947 12.528 39.7147 13.568 39.1547 14.48C38.5947 15.392 37.8347 16.096 36.8747 16.592C35.9307 17.088 34.8987 17.336 33.7787 17.336ZM33.7787 15.44C34.4987 15.44 35.1467 15.272 35.7227 14.936C36.2987 14.6 36.7467 14.128 37.0667 13.52C37.4027 12.896 37.5707 12.176 37.5707 11.36C37.5707 10.544 37.4027 9.832 37.0667 9.224C36.7467 8.6 36.2987 8.12 35.7227 7.784C35.1467 7.448 34.4987 7.28 33.7787 7.28C32.6747 7.28 31.7627 7.656 31.0427 8.408C30.3387 9.144 29.9867 10.128 29.9867 11.36C29.9867 12.592 30.3387 13.584 31.0427 14.336C31.7627 15.072 32.6747 15.44 33.7787 15.44ZM60.084 15.608C59.076 16.76 57.908 17.336 56.58 17.336C55.188 17.336 54.012 16.832 53.052 15.824C52.108 14.816 51.34 13.264 50.748 11.168L50.364 9.968H46.932V15.008H49.956V17H41.364V15.032H44.46V2.528H41.364V0.535999H50.916C52.788 0.535999 54.268 0.959999 55.356 1.808C56.444 2.656 56.988 3.808 56.988 5.264C56.988 6.464 56.596 7.48 55.812 8.312C55.044 9.128 53.956 9.64 52.548 9.848L52.98 11.024C53.476 12.432 54.028 13.456 54.636 14.096C55.244 14.736 55.932 15.056 56.7 15.056C57.18 15.056 57.588 14.96 57.924 14.768C58.26 14.576 58.572 14.32 58.86 14L60.084 15.608ZM46.932 8.096H50.988C52.012 8.096 52.86 7.848 53.532 7.352C54.204 6.84 54.54 6.144 54.54 5.264C54.54 4.416 54.204 3.752 53.532 3.272C52.876 2.776 52.028 2.528 50.988 2.528H46.932V8.096ZM76.4981 15.104V17H69.8261V15.104H71.9141V10.424C71.9141 9.496 71.6901 8.776 71.2421 8.264C70.8101 7.752 70.1781 7.496 69.3461 7.496C68.0501 7.496 66.6101 8.376 65.0261 10.136V15.104H67.0901V17H60.1301V15.104H62.6741V2.432H60.1301V0.535999H65.0261V8.288C65.9061 7.328 66.7541 6.608 67.5701 6.128C68.4021 5.648 69.3061 5.408 70.2821 5.408C71.5781 5.408 72.5621 5.824 73.2341 6.656C73.9061 7.472 74.2421 8.704 74.2421 10.352V15.104H76.4981ZM91.6044 7.592H89.8284L85.0764 18.248C84.4044 19.736 83.6444 20.848 82.7964 21.584C81.9644 22.336 80.9884 22.712 79.8684 22.712C79.2444 22.712 78.6764 22.608 78.1644 22.4C77.6684 22.208 77.1244 21.92 76.5324 21.536L77.4924 19.736C78.3084 20.328 79.1004 20.624 79.8684 20.624C80.5564 20.624 81.1724 20.4 81.7164 19.952C82.2604 19.52 82.7404 18.824 83.1564 17.864L83.3244 17.48L78.4764 7.592H76.6044V5.696H82.9404V7.424H80.9964L84.4044 15.008L87.7404 7.424H85.8924V5.696H91.6044V7.592ZM116.932 15.104V17H110.308V15.104H112.348V10.28C112.348 9.448 112.164 8.792 111.796 8.312C111.428 7.832 110.876 7.592 110.14 7.592C109.484 7.592 108.812 7.808 108.124 8.24C107.436 8.672 106.764 9.288 106.108 10.088V10.208V15.104H108.172V17H101.692V15.104H103.756V10.28C103.756 9.448 103.564 8.792 103.18 8.312C102.796 7.832 102.236 7.592 101.5 7.592C100.844 7.592 100.172 7.816 99.4836 8.264C98.7956 8.696 98.1156 9.32 97.4436 10.136V15.104H99.5316V17H92.5476V15.104H95.0916V7.592H92.5476V5.696H97.4436V8.168C98.1476 7.288 98.9156 6.608 99.7476 6.128C100.58 5.648 101.444 5.408 102.34 5.408C103.252 5.408 104.012 5.664 104.62 6.176C105.244 6.672 105.676 7.408 105.916 8.384C106.636 7.44 107.42 6.712 108.268 6.2C109.132 5.672 110.028 5.408 110.956 5.408C112.124 5.408 113.036 5.824 113.692 6.656C114.364 7.472 114.7 8.656 114.7 10.208V15.104H116.932ZM129.645 15.32C128.109 16.664 126.357 17.336 124.389 17.336C123.317 17.336 122.301 17.112 121.341 16.664C120.381 16.216 119.605 15.56 119.013 14.696C118.421 13.832 118.125 12.808 118.125 11.624C118.125 10.36 118.429 9.256 119.037 8.312C119.645 7.368 120.437 6.648 121.413 6.152C122.389 5.64 123.413 5.384 124.485 5.384C125.429 5.384 126.269 5.536 127.005 5.84C127.757 6.144 128.341 6.568 128.757 7.112C129.189 7.656 129.405 8.28 129.405 8.984C129.405 10.04 128.949 10.864 128.037 11.456C127.141 12.032 126.061 12.32 124.797 12.32C123.981 12.32 123.221 12.24 122.517 12.08C121.813 11.904 121.101 11.656 120.381 11.336V11.552C120.381 12.304 120.557 12.968 120.909 13.544C121.277 14.12 121.765 14.56 122.373 14.864C122.981 15.168 123.645 15.32 124.365 15.32C125.997 15.32 127.421 14.808 128.637 13.784L129.645 15.32ZM124.653 7.256C123.789 7.256 122.981 7.504 122.229 8C121.493 8.496 120.965 9.168 120.645 10.016C121.861 10.448 123.077 10.664 124.293 10.664C125.093 10.664 125.749 10.52 126.261 10.232C126.789 9.928 127.053 9.512 127.053 8.984C127.053 8.472 126.829 8.056 126.381 7.736C125.933 7.416 125.357 7.256 124.653 7.256Z" fill="#111827"/>
</svg>
