<svg width="104" height="17" viewBox="0 0 104 17" fill="none" xmlns="http://www.w3.org/2000/svg">
<path d="M8.96 0.735999C9.728 0.735999 10.504 0.807999 11.288 0.951999C12.072 1.096 12.696 1.304 13.16 1.576C13.304 1.64 13.392 1.712 13.424 1.792C13.472 1.856 13.504 1.976 13.52 2.152L13.784 4.84C13.784 4.888 13.744 4.92 13.664 4.936C13.584 4.936 13.536 4.912 13.52 4.864C13.168 3.632 12.512 2.728 11.552 2.152C10.608 1.56 9.432 1.264 8.024 1.264C6.808 1.264 5.744 1.536 4.832 2.08C3.92 2.608 3.216 3.36 2.72 4.336C2.224 5.312 1.976 6.44 1.976 7.72C1.976 9.208 2.28 10.584 2.888 11.848C3.512 13.112 4.344 14.112 5.384 14.848C6.44 15.584 7.576 15.952 8.792 15.952C9.944 15.952 10.944 15.64 11.792 15.016C12.64 14.376 13.288 13.4 13.736 12.088C13.736 12.04 13.768 12.016 13.832 12.016C13.88 12.016 13.92 12.024 13.952 12.04C14 12.056 14.024 12.08 14.024 12.112L13.688 14.824C13.656 15.016 13.616 15.144 13.568 15.208C13.536 15.256 13.448 15.312 13.304 15.376C11.864 15.984 10.344 16.288 8.744 16.288C6.824 16.288 5.216 15.904 3.92 15.136C2.64 14.352 1.696 13.36 1.088 12.16C0.48 10.96 0.176 9.696 0.176 8.368C0.176 6.896 0.584 5.576 1.4 4.408C2.216 3.24 3.296 2.336 4.64 1.696C5.984 1.056 7.424 0.735999 8.96 0.735999ZM20.5987 16.312C19.6707 16.312 18.8467 16.088 18.1267 15.64C17.4227 15.176 16.8787 14.56 16.4947 13.792C16.1107 13.008 15.9187 12.16 15.9187 11.248C15.9187 10.208 16.1667 9.328 16.6627 8.608C17.1747 7.872 17.8227 7.328 18.6067 6.976C19.4067 6.608 20.2147 6.424 21.0307 6.424C21.9747 6.424 22.7987 6.656 23.5027 7.12C24.2067 7.584 24.7427 8.2 25.1107 8.968C25.4947 9.72 25.6867 10.52 25.6867 11.368C25.6867 12.36 25.4547 13.232 24.9907 13.984C24.5267 14.72 23.9027 15.296 23.1187 15.712C22.3507 16.112 21.5107 16.312 20.5987 16.312ZM21.2947 15.856C22.1747 15.856 22.8547 15.544 23.3347 14.92C23.8147 14.296 24.0547 13.336 24.0547 12.04C24.0547 11.048 23.8867 10.16 23.5507 9.376C23.2307 8.592 22.7827 7.984 22.2067 7.552C21.6307 7.104 20.9747 6.88 20.2387 6.88C19.3747 6.88 18.7027 7.192 18.2227 7.816C17.7587 8.44 17.5267 9.336 17.5267 10.504C17.5267 11.48 17.6867 12.376 18.0067 13.192C18.3267 14.008 18.7747 14.656 19.3507 15.136C19.9267 15.616 20.5747 15.856 21.2947 15.856ZM33.1391 6.52C33.4911 6.52 33.8271 6.616 34.1471 6.808C34.4671 7 34.6271 7.232 34.6271 7.504C34.6271 7.712 34.5551 7.888 34.4111 8.032C34.2831 8.176 34.0911 8.248 33.8351 8.248C33.6911 8.248 33.5631 8.224 33.4511 8.176C33.3551 8.112 33.2351 8.024 33.0911 7.912C32.9471 7.784 32.8111 7.688 32.6831 7.624C32.5551 7.56 32.4031 7.528 32.2271 7.528C32.0191 7.528 31.7951 7.616 31.5551 7.792C31.3311 7.952 30.9711 8.32 30.4751 8.896V14.056C30.4751 14.536 30.5311 14.888 30.6431 15.112C30.7711 15.336 30.9951 15.496 31.3151 15.592C31.6351 15.672 32.1311 15.712 32.8031 15.712C32.8671 15.712 32.8991 15.76 32.8991 15.856C32.8991 15.952 32.8671 16 32.8031 16C32.2911 16 31.8831 15.992 31.5791 15.976L29.8031 15.952L28.4831 15.976C28.2751 15.992 27.9871 16 27.6191 16C27.5711 16 27.5471 15.952 27.5471 15.856C27.5471 15.76 27.5711 15.712 27.6191 15.712C28.0511 15.712 28.3711 15.672 28.5791 15.592C28.7871 15.496 28.9231 15.336 28.9871 15.112C29.0671 14.888 29.1071 14.536 29.1071 14.056V9.304C29.1071 8.76 29.0431 8.368 28.9151 8.128C28.7871 7.888 28.5711 7.768 28.2671 7.768C28.0111 7.768 27.5791 7.888 26.9711 8.128H26.9231C26.8591 8.128 26.8111 8.096 26.7791 8.032C26.7631 7.952 26.7871 7.896 26.8511 7.864L29.6351 6.544C29.6671 6.528 29.7151 6.52 29.7791 6.52C29.9231 6.52 30.0751 6.704 30.2351 7.072C30.3951 7.44 30.4751 7.912 30.4751 8.488V8.512C31.1311 7.744 31.6511 7.224 32.0351 6.952C32.4191 6.664 32.7871 6.52 33.1391 6.52ZM53.0893 15.712C53.1373 15.712 53.1613 15.76 53.1613 15.856C53.1613 15.952 53.1373 16 53.0893 16C52.7213 16 52.4253 15.992 52.2013 15.976L50.9053 15.952L49.6093 15.976C49.3853 15.992 49.0893 16 48.7213 16C48.6733 16 48.6493 15.952 48.6493 15.856C48.6493 15.76 48.6733 15.712 48.7213 15.712C49.1533 15.712 49.4733 15.672 49.6813 15.592C49.8893 15.496 50.0333 15.336 50.1133 15.112C50.1933 14.872 50.2333 14.52 50.2333 14.056V10.24C50.2333 9.296 50.0653 8.6 49.7293 8.152C49.3933 7.688 48.8733 7.456 48.1693 7.456C47.6893 7.456 47.2013 7.592 46.7053 7.864C46.2253 8.12 45.7773 8.488 45.3613 8.968C45.3773 9.048 45.3853 9.176 45.3853 9.352V14.056C45.3853 14.536 45.4253 14.888 45.5053 15.112C45.5853 15.336 45.7293 15.496 45.9373 15.592C46.1453 15.672 46.4653 15.712 46.8973 15.712C46.9453 15.712 46.9693 15.76 46.9693 15.856C46.9693 15.952 46.9453 16 46.8973 16C46.5293 16 46.2333 15.992 46.0093 15.976L44.7133 15.952L43.3933 15.976C43.1853 15.992 42.8973 16 42.5293 16C42.4813 16 42.4573 15.952 42.4573 15.856C42.4573 15.76 42.4813 15.712 42.5293 15.712C42.9613 15.712 43.2813 15.672 43.4893 15.592C43.6973 15.496 43.8333 15.336 43.8973 15.112C43.9773 14.888 44.0173 14.536 44.0173 14.056V10.24C44.0173 9.296 43.8493 8.6 43.5133 8.152C43.1773 7.688 42.6653 7.456 41.9773 7.456C41.4973 7.456 41.0173 7.584 40.5373 7.84C40.0573 8.096 39.6173 8.456 39.2173 8.92V14.056C39.2173 14.536 39.2493 14.888 39.3133 15.112C39.3933 15.336 39.5373 15.496 39.7453 15.592C39.9533 15.672 40.2733 15.712 40.7053 15.712C40.7533 15.712 40.7773 15.76 40.7773 15.856C40.7773 15.952 40.7533 16 40.7053 16C40.3373 16 40.0493 15.992 39.8413 15.976L38.5453 15.952L37.2253 15.976C37.0173 15.992 36.7293 16 36.3613 16C36.3133 16 36.2893 15.952 36.2893 15.856C36.2893 15.76 36.3133 15.712 36.3613 15.712C36.7933 15.712 37.1133 15.672 37.3213 15.592C37.5293 15.496 37.6653 15.336 37.7293 15.112C37.8093 14.888 37.8493 14.536 37.8493 14.056V9.304C37.8493 8.76 37.7853 8.368 37.6573 8.128C37.5293 7.888 37.3133 7.768 37.0093 7.768C36.7533 7.768 36.3213 7.888 35.7133 8.128H35.6653C35.6013 8.128 35.5533 8.096 35.5213 8.032C35.5053 7.952 35.5293 7.896 35.5933 7.864L38.3773 6.544C38.4093 6.528 38.4573 6.52 38.5213 6.52C38.6653 6.52 38.8173 6.704 38.9773 7.072C39.1373 7.44 39.2173 7.912 39.2173 8.488V8.512C39.7933 7.808 40.3693 7.296 40.9453 6.976C41.5213 6.656 42.1213 6.496 42.7453 6.496C43.4653 6.496 44.0493 6.672 44.4973 7.024C44.9453 7.376 45.2253 7.904 45.3373 8.608C45.9293 7.888 46.5213 7.36 47.1133 7.024C47.7053 6.672 48.3213 6.496 48.9613 6.496C49.8093 6.496 50.4573 6.744 50.9053 7.24C51.3693 7.72 51.6013 8.44 51.6013 9.4V14.056C51.6013 14.536 51.6333 14.888 51.6973 15.112C51.7773 15.336 51.9213 15.496 52.1293 15.592C52.3373 15.672 52.6573 15.712 53.0893 15.712ZM59.1299 16.312C58.2019 16.312 57.3779 16.088 56.6579 15.64C55.9539 15.176 55.4099 14.56 55.0259 13.792C54.6419 13.008 54.4499 12.16 54.4499 11.248C54.4499 10.208 54.6979 9.328 55.1939 8.608C55.7059 7.872 56.3539 7.328 57.1379 6.976C57.9379 6.608 58.7459 6.424 59.5619 6.424C60.5059 6.424 61.3299 6.656 62.0339 7.12C62.7379 7.584 63.2739 8.2 63.6419 8.968C64.0259 9.72 64.2179 10.52 64.2179 11.368C64.2179 12.36 63.9859 13.232 63.5219 13.984C63.0579 14.72 62.4339 15.296 61.6499 15.712C60.8819 16.112 60.0419 16.312 59.1299 16.312ZM59.8259 15.856C60.7059 15.856 61.3859 15.544 61.8659 14.92C62.3459 14.296 62.5859 13.336 62.5859 12.04C62.5859 11.048 62.4179 10.16 62.0819 9.376C61.7619 8.592 61.3139 7.984 60.7379 7.552C60.1619 7.104 59.5059 6.88 58.7699 6.88C57.9059 6.88 57.2339 7.192 56.7539 7.816C56.2899 8.44 56.0579 9.336 56.0579 10.504C56.0579 11.48 56.2179 12.376 56.5379 13.192C56.8579 14.008 57.3059 14.656 57.8819 15.136C58.4579 15.616 59.1059 15.856 59.8259 15.856ZM71.6703 6.52C72.0223 6.52 72.3583 6.616 72.6783 6.808C72.9983 7 73.1583 7.232 73.1583 7.504C73.1583 7.712 73.0863 7.888 72.9423 8.032C72.8143 8.176 72.6223 8.248 72.3663 8.248C72.2223 8.248 72.0943 8.224 71.9823 8.176C71.8863 8.112 71.7663 8.024 71.6223 7.912C71.4783 7.784 71.3423 7.688 71.2143 7.624C71.0863 7.56 70.9343 7.528 70.7583 7.528C70.5503 7.528 70.3263 7.616 70.0863 7.792C69.8623 7.952 69.5023 8.32 69.0063 8.896V14.056C69.0063 14.536 69.0623 14.888 69.1743 15.112C69.3023 15.336 69.5263 15.496 69.8463 15.592C70.1663 15.672 70.6623 15.712 71.3343 15.712C71.3983 15.712 71.4303 15.76 71.4303 15.856C71.4303 15.952 71.3983 16 71.3343 16C70.8223 16 70.4143 15.992 70.1103 15.976L68.3343 15.952L67.0143 15.976C66.8063 15.992 66.5183 16 66.1503 16C66.1023 16 66.0783 15.952 66.0783 15.856C66.0783 15.76 66.1023 15.712 66.1503 15.712C66.5823 15.712 66.9023 15.672 67.1103 15.592C67.3183 15.496 67.4543 15.336 67.5183 15.112C67.5983 14.888 67.6383 14.536 67.6383 14.056V9.304C67.6383 8.76 67.5743 8.368 67.4463 8.128C67.3183 7.888 67.1023 7.768 66.7983 7.768C66.5423 7.768 66.1103 7.888 65.5023 8.128H65.4543C65.3903 8.128 65.3423 8.096 65.3103 8.032C65.2943 7.952 65.3183 7.896 65.3823 7.864L68.1663 6.544C68.1983 6.528 68.2463 6.52 68.3103 6.52C68.4543 6.52 68.6063 6.704 68.7663 7.072C68.9263 7.44 69.0063 7.912 69.0063 8.488V8.512C69.6623 7.744 70.1823 7.224 70.5663 6.952C70.9503 6.664 71.3183 6.52 71.6703 6.52ZM83.3975 14.704C83.4615 14.704 83.5015 14.744 83.5175 14.824C83.5335 14.888 83.5095 14.936 83.4455 14.968L80.9735 16.144C80.9095 16.176 80.8455 16.192 80.7815 16.192C80.5735 16.192 80.3895 16.056 80.2295 15.784C80.0695 15.512 79.9655 15.136 79.9175 14.656L78.4295 15.448C77.9335 15.704 77.5255 15.888 77.2055 16C76.8855 16.112 76.5735 16.168 76.2695 16.168C75.7735 16.168 75.3895 16.04 75.1175 15.784C74.8615 15.512 74.7335 15.176 74.7335 14.776C74.7335 14.344 74.8935 14 75.2135 13.744C75.5495 13.472 76.1415 13.192 76.9895 12.904L79.8935 11.872V9.88C79.8935 8.824 79.7575 8.088 79.4855 7.672C79.2135 7.24 78.8375 7.024 78.3575 7.024C77.8135 7.024 77.3895 7.216 77.0855 7.6C76.7815 7.984 76.5975 8.448 76.5335 8.992C76.4695 9.6 76.1735 9.904 75.6455 9.904C75.3895 9.904 75.1895 9.84 75.0455 9.712C74.9015 9.584 74.8295 9.408 74.8295 9.184C74.8295 8.816 75.0695 8.424 75.5495 8.008C76.0295 7.592 76.6055 7.24 77.2775 6.952C77.9655 6.664 78.5815 6.52 79.1255 6.52C79.7655 6.52 80.2775 6.744 80.6615 7.192C81.0455 7.624 81.2375 8.28 81.2375 9.16V13.408C81.2375 13.968 81.3095 14.376 81.4535 14.632C81.5975 14.888 81.8375 15.016 82.1735 15.016C82.4775 15.016 82.8695 14.912 83.3495 14.704H83.3975ZM79.8935 14.32V14.176V12.16L77.4215 13.096C77.0535 13.24 76.7895 13.4 76.6295 13.576C76.4855 13.752 76.4135 13.976 76.4135 14.248C76.4135 14.584 76.5095 14.848 76.7015 15.04C76.8935 15.216 77.1415 15.304 77.4455 15.304C77.7495 15.304 78.0775 15.224 78.4295 15.064L79.8935 14.32ZM95.3722 15.712C95.4202 15.712 95.4442 15.76 95.4442 15.856C95.4442 15.952 95.4202 16 95.3722 16C95.0042 16 94.7162 15.992 94.5082 15.976L93.2122 15.952L91.8922 15.976C91.6842 15.992 91.3962 16 91.0282 16C90.9802 16 90.9562 15.952 90.9562 15.856C90.9562 15.76 90.9802 15.712 91.0282 15.712C91.4602 15.712 91.7802 15.672 91.9882 15.592C92.1962 15.496 92.3322 15.336 92.3962 15.112C92.4762 14.888 92.5162 14.536 92.5162 14.056V10.168C92.5162 9.224 92.3322 8.528 91.9642 8.08C91.6122 7.632 91.0602 7.408 90.3082 7.408C89.8122 7.408 89.3082 7.544 88.7962 7.816C88.3002 8.072 87.8442 8.432 87.4282 8.896V14.056C87.4282 14.536 87.4602 14.888 87.5242 15.112C87.6042 15.336 87.7482 15.496 87.9562 15.592C88.1642 15.672 88.4842 15.712 88.9162 15.712C88.9642 15.712 88.9882 15.76 88.9882 15.856C88.9882 15.952 88.9642 16 88.9162 16C88.5482 16 88.2602 15.992 88.0522 15.976L86.7562 15.952L85.4362 15.976C85.2282 15.992 84.9402 16 84.5722 16C84.5242 16 84.5002 15.952 84.5002 15.856C84.5002 15.76 84.5242 15.712 84.5722 15.712C85.0042 15.712 85.3242 15.672 85.5322 15.592C85.7402 15.496 85.8762 15.336 85.9402 15.112C86.0202 14.888 86.0602 14.536 86.0602 14.056V9.304C86.0602 8.76 85.9962 8.368 85.8682 8.128C85.7402 7.888 85.5242 7.768 85.2202 7.768C84.9642 7.768 84.5322 7.888 83.9242 8.128H83.8762C83.8122 8.128 83.7642 8.096 83.7322 8.032C83.7162 7.952 83.7402 7.896 83.8042 7.864L86.5882 6.544C86.6202 6.528 86.6682 6.52 86.7322 6.52C86.8762 6.52 87.0282 6.704 87.1882 7.072C87.3482 7.44 87.4282 7.912 87.4282 8.488C88.0362 7.784 88.6362 7.264 89.2282 6.928C89.8362 6.592 90.4602 6.424 91.1002 6.424C91.9962 6.424 92.6842 6.672 93.1642 7.168C93.6442 7.664 93.8842 8.392 93.8842 9.352V14.056C93.8842 14.536 93.9162 14.888 93.9802 15.112C94.0602 15.336 94.2042 15.496 94.4122 15.592C94.6202 15.672 94.9402 15.712 95.3722 15.712ZM103.355 14.752C103.419 14.752 103.467 14.792 103.499 14.872C103.531 14.936 103.523 14.984 103.475 15.016C102.883 15.48 102.347 15.808 101.867 16C101.403 16.192 100.915 16.288 100.403 16.288C99.7306 16.288 99.1786 16.136 98.7466 15.832C98.3146 15.528 98.0986 15.024 98.0986 14.32V8.68C98.0986 8.264 98.0666 7.968 98.0026 7.792C97.9546 7.616 97.8506 7.504 97.6906 7.456C97.5306 7.392 97.2586 7.36 96.8746 7.36C96.8106 7.36 96.7786 7.312 96.7786 7.216C96.7786 7.104 96.8106 7.048 96.8746 7.048C97.5146 7.032 98.0346 6.864 98.4346 6.544C98.8346 6.208 99.0666 5.768 99.1306 5.224C99.1306 5.176 99.1946 5.152 99.3226 5.152C99.4346 5.152 99.4906 5.176 99.4906 5.224V7C100.291 6.984 101.403 6.904 102.827 6.76C102.859 6.76 102.891 6.824 102.923 6.952C102.971 7.064 102.995 7.192 102.995 7.336C102.995 7.464 102.963 7.6 102.899 7.744C102.851 7.872 102.795 7.928 102.731 7.912C101.851 7.688 100.771 7.56 99.4906 7.528V13.504C99.4906 14.16 99.6506 14.648 99.9706 14.968C100.307 15.288 100.779 15.448 101.387 15.448C102.123 15.448 102.763 15.224 103.307 14.776L103.355 14.752Z" fill="#111827"/>
</svg>
