<svg width="131" height="21" viewBox="0 0 131 21" fill="none" xmlns="http://www.w3.org/2000/svg">
<path d="M0.0280002 20V2.24H11.02V3.884H1.96V18.356H11.14V20H0.0280002ZM1.252 11.708V10.064H9.844V11.708H1.252ZM13.8042 20V6.98H15.4242L15.5562 8.444H15.6882C16.2162 7.908 16.8322 7.496 17.5362 7.208C18.2402 6.92 18.9882 6.776 19.7802 6.776C20.5962 6.776 21.3162 6.928 21.9402 7.232C22.5722 7.528 23.0642 8.016 23.4162 8.696C23.7762 9.368 23.9562 10.268 23.9562 11.396V20H22.0482V11.48C22.0482 10.36 21.8002 9.584 21.3042 9.152C20.8162 8.712 20.1522 8.492 19.3122 8.492C18.9282 8.492 18.5202 8.548 18.0882 8.66C17.6562 8.772 17.2322 8.956 16.8162 9.212C16.4082 9.468 16.0442 9.808 15.7242 10.232V20H13.8042ZM32.5208 20.228C31.2888 20.228 30.2448 19.996 29.3888 19.532C28.5328 19.06 27.8808 18.332 27.4328 17.348C26.9848 16.356 26.7608 15.072 26.7608 13.496C26.7608 11.92 27.0008 10.64 27.4808 9.656C27.9688 8.664 28.6768 7.936 29.6048 7.472C30.5328 7.008 31.6688 6.776 33.0128 6.776C33.4688 6.776 33.9248 6.804 34.3808 6.86C34.8368 6.916 35.2728 7 35.6888 7.112V8.744C35.2648 8.632 34.8448 8.548 34.4288 8.492C34.0208 8.436 33.6168 8.408 33.2168 8.408C32.2168 8.408 31.3848 8.572 30.7208 8.9C30.0568 9.228 29.5608 9.76 29.2328 10.496C28.9128 11.232 28.7528 12.216 28.7528 13.448C28.7528 14.712 28.9048 15.72 29.2088 16.472C29.5128 17.224 29.9648 17.768 30.5648 18.104C31.1728 18.432 31.9168 18.596 32.7968 18.596C33.2208 18.596 33.6648 18.556 34.1288 18.476C34.5928 18.388 35.1128 18.252 35.6888 18.068V19.688C35.1768 19.872 34.6528 20.008 34.1168 20.096C33.5888 20.184 33.0568 20.228 32.5208 20.228ZM42.6876 20.228C41.5676 20.228 40.5916 19.996 39.7596 19.532C38.9276 19.06 38.2836 18.332 37.8276 17.348C37.3716 16.356 37.1436 15.072 37.1436 13.496C37.1436 11.936 37.3676 10.66 37.8156 9.668C38.2716 8.676 38.9156 7.948 39.7476 7.484C40.5796 7.012 41.5596 6.776 42.6876 6.776C43.8156 6.776 44.7956 7.012 45.6276 7.484C46.4596 7.948 47.0996 8.676 47.5476 9.668C48.0036 10.652 48.2316 11.928 48.2316 13.496C48.2316 15.056 47.9996 16.332 47.5356 17.324C47.0796 18.316 46.4356 19.048 45.6036 19.52C44.7796 19.992 43.8076 20.228 42.6876 20.228ZM42.6876 18.668C43.4236 18.668 44.0596 18.508 44.5956 18.188C45.1316 17.868 45.5436 17.336 45.8316 16.592C46.1276 15.84 46.2756 14.82 46.2756 13.532C46.2756 12.22 46.1276 11.188 45.8316 10.436C45.5436 9.676 45.1276 9.14 44.5836 8.828C44.0476 8.508 43.4156 8.348 42.6876 8.348C41.9516 8.348 41.3156 8.508 40.7796 8.828C40.2436 9.14 39.8276 9.672 39.5316 10.424C39.2436 11.168 39.0996 12.184 39.0996 13.472C39.0996 14.776 39.2436 15.808 39.5316 16.568C39.8276 17.32 40.2436 17.86 40.7796 18.188C41.3156 18.508 41.9516 18.668 42.6876 18.668ZM55.6739 20.228C54.7299 20.228 53.8699 20.016 53.0939 19.592C52.3179 19.16 51.6979 18.472 51.2339 17.528C50.7779 16.584 50.5499 15.328 50.5499 13.76C50.5499 12.192 50.7979 10.892 51.2939 9.86C51.7979 8.828 52.5379 8.056 53.5139 7.544C54.4899 7.032 55.6899 6.776 57.1139 6.776C57.4819 6.776 57.8499 6.792 58.2179 6.824C58.5859 6.856 58.9259 6.896 59.2379 6.944V0.607999H61.1579V20H59.5259L59.3939 18.596H59.2619C58.8779 19.068 58.3779 19.46 57.7619 19.772C57.1539 20.076 56.4579 20.228 55.6739 20.228ZM56.1059 18.572C56.6899 18.572 57.2619 18.444 57.8219 18.188C58.3819 17.932 58.8539 17.524 59.2379 16.964V8.576C58.9499 8.504 58.6139 8.448 58.2299 8.408C57.8459 8.368 57.4659 8.348 57.0899 8.348C55.5779 8.348 54.4339 8.756 53.6579 9.572C52.8899 10.388 52.5059 11.728 52.5059 13.592C52.5059 14.872 52.6579 15.876 52.9619 16.604C53.2739 17.324 53.6979 17.832 54.2339 18.128C54.7779 18.424 55.4019 18.572 56.1059 18.572ZM70.2648 20.228C68.9128 20.228 67.7768 20 66.8568 19.544C65.9448 19.08 65.2568 18.356 64.7928 17.372C64.3288 16.38 64.0968 15.084 64.0968 13.484C64.0968 11.956 64.3088 10.696 64.7327 9.704C65.1648 8.712 65.7728 7.976 66.5568 7.496C67.3488 7.016 68.2848 6.776 69.3648 6.776C70.4288 6.776 71.3328 7.02 72.0768 7.508C72.8288 7.988 73.4008 8.728 73.7928 9.728C74.1848 10.72 74.3808 11.988 74.3808 13.532V14.12H65.1408V12.812H72.9648L72.5448 13.1C72.5448 11.884 72.4168 10.916 72.1608 10.196C71.9128 9.476 71.5488 8.96 71.0688 8.648C70.5968 8.328 70.0208 8.168 69.3408 8.168C68.6688 8.168 68.0848 8.324 67.5888 8.636C67.0928 8.948 66.7088 9.464 66.4368 10.184C66.1728 10.904 66.0408 11.876 66.0408 13.1V13.772C66.0408 14.972 66.2008 15.932 66.5208 16.652C66.8488 17.364 67.3408 17.88 67.9968 18.2C68.6528 18.512 69.4848 18.668 70.4928 18.668C70.9888 18.668 71.5008 18.624 72.0288 18.536C72.5648 18.44 73.1328 18.308 73.7328 18.14V19.712C73.1088 19.888 72.5128 20.016 71.9448 20.096C71.3848 20.184 70.8248 20.228 70.2648 20.228ZM86.7237 20.228C86.0197 20.228 85.2837 20.168 84.5157 20.048C83.7557 19.928 83.0317 19.748 82.3437 19.508V17.828C82.8397 17.996 83.3397 18.136 83.8437 18.248C84.3557 18.352 84.8557 18.432 85.3437 18.488C85.8317 18.544 86.2997 18.572 86.7477 18.572C88.2197 18.572 89.3077 18.296 90.0117 17.744C90.7157 17.184 91.0677 16.372 91.0677 15.308C91.0677 14.404 90.7997 13.716 90.2637 13.244C89.7357 12.764 88.8317 12.356 87.5517 12.02L86.5917 11.768C85.0797 11.384 83.9477 10.804 83.1957 10.028C82.4437 9.244 82.0677 8.212 82.0677 6.932C82.0677 5.404 82.5957 4.204 83.6517 3.332C84.7157 2.452 86.2957 2.012 88.3917 2.012C89.0797 2.012 89.7597 2.06 90.4317 2.156C91.1037 2.244 91.7157 2.376 92.2677 2.552V4.232C91.6597 4.04 91.0317 3.9 90.3837 3.812C89.7437 3.716 89.0957 3.668 88.4397 3.668C87.4237 3.668 86.5917 3.792 85.9437 4.04C85.2957 4.288 84.8157 4.648 84.5037 5.12C84.1917 5.592 84.0357 6.16 84.0357 6.824C84.0357 7.696 84.2797 8.372 84.7677 8.852C85.2557 9.332 86.0997 9.732 87.2997 10.052L88.2717 10.292C89.3597 10.572 90.2557 10.932 90.9597 11.372C91.6637 11.804 92.1877 12.336 92.5317 12.968C92.8757 13.592 93.0477 14.332 93.0477 15.188C93.0477 16.26 92.7997 17.172 92.3037 17.924C91.8077 18.668 91.0877 19.24 90.1437 19.64C89.1997 20.032 88.0597 20.228 86.7237 20.228ZM99.1572 20.216C97.9332 20.216 96.9692 19.9 96.2652 19.268C95.5692 18.636 95.2212 17.768 95.2212 16.664C95.2212 15.528 95.5932 14.644 96.3372 14.012C97.0892 13.372 98.2932 12.972 99.9492 12.812L103.441 12.44L103.621 13.712L100.069 14.096C99.0372 14.2 98.2932 14.452 97.8372 14.852C97.3892 15.244 97.1652 15.788 97.1652 16.484C97.1652 17.212 97.3732 17.768 97.7892 18.152C98.2052 18.536 98.8252 18.728 99.6492 18.728C100.217 18.728 100.789 18.608 101.365 18.368C101.941 18.12 102.457 17.708 102.913 17.132V11.384C102.913 10.584 102.789 9.968 102.541 9.536C102.293 9.096 101.921 8.788 101.425 8.612C100.929 8.436 100.305 8.348 99.5532 8.348C99.0652 8.348 98.5092 8.392 97.8852 8.48C97.2692 8.568 96.6532 8.716 96.0372 8.924V7.352C96.5972 7.168 97.2132 7.028 97.8852 6.932C98.5652 6.828 99.2052 6.776 99.8052 6.776C100.909 6.776 101.829 6.92 102.565 7.208C103.309 7.496 103.865 7.984 104.233 8.672C104.609 9.352 104.797 10.284 104.797 11.468V20H103.189L103.045 18.548H102.925C102.501 19.084 101.957 19.496 101.293 19.784C100.637 20.072 99.9252 20.216 99.1572 20.216ZM108.281 20V6.98H109.901L110.033 8.444H110.165C110.693 7.908 111.309 7.496 112.013 7.208C112.717 6.92 113.465 6.776 114.257 6.776C115.073 6.776 115.793 6.928 116.417 7.232C117.049 7.528 117.541 8.016 117.893 8.696C118.253 9.368 118.433 10.268 118.433 11.396V20H116.525V11.48C116.525 10.36 116.277 9.584 115.781 9.152C115.293 8.712 114.629 8.492 113.789 8.492C113.405 8.492 112.997 8.548 112.565 8.66C112.133 8.772 111.709 8.956 111.293 9.212C110.885 9.468 110.521 9.808 110.201 10.232V20H108.281ZM125.029 20.228C124.373 20.228 123.745 20.184 123.145 20.096C122.553 20.008 121.977 19.876 121.417 19.7V18.164C122.057 18.356 122.669 18.496 123.253 18.584C123.837 18.664 124.429 18.704 125.029 18.704C126.157 18.704 126.973 18.512 127.477 18.128C127.989 17.744 128.245 17.204 128.245 16.508C128.245 15.916 128.093 15.464 127.789 15.152C127.485 14.832 126.969 14.596 126.241 14.444L124.477 14.084C123.293 13.828 122.445 13.408 121.933 12.824C121.429 12.232 121.177 11.472 121.177 10.544C121.177 9.448 121.597 8.548 122.437 7.844C123.285 7.132 124.585 6.776 126.337 6.776C126.897 6.776 127.429 6.808 127.933 6.872C128.445 6.936 128.937 7.032 129.409 7.16V8.708C128.881 8.564 128.373 8.46 127.885 8.396C127.405 8.332 126.901 8.3 126.373 8.3C125.549 8.3 124.889 8.4 124.393 8.6C123.905 8.792 123.553 9.056 123.337 9.392C123.121 9.72 123.013 10.088 123.013 10.496C123.013 11.008 123.157 11.432 123.445 11.768C123.733 12.104 124.237 12.352 124.957 12.512L126.721 12.872C127.921 13.12 128.781 13.528 129.301 14.096C129.829 14.664 130.093 15.436 130.093 16.412C130.093 17.588 129.661 18.52 128.797 19.208C127.941 19.888 126.685 20.228 125.029 20.228Z" fill="#111827"/>
</svg>
