<svg width="99" height="25" viewBox="0 0 99 25" fill="none" xmlns="http://www.w3.org/2000/svg">
<path d="M1.82 3.1L2.744 1.936V9.928L2.24 9.22H9.032V11.02H2.24L2.744 10.312V18.364L1.82 17.2H10.364V19H0.692V1.3H10.364V3.1H1.82ZM13.8907 24.244V6.256H15.9307V24.244H13.8907ZM20.1187 19.24C19.1347 19.24 18.2147 19 17.3587 18.52C16.5027 18.032 15.8067 17.364 15.2707 16.516C14.7427 15.668 14.4787 14.7 14.4787 13.612C14.4787 13.588 14.4787 13.568 14.4787 13.552C14.4787 13.536 14.4787 13.516 14.4787 13.492L15.9427 13.456C15.9427 13.472 15.9427 13.492 15.9427 13.516C15.9427 13.532 15.9427 13.548 15.9427 13.564C15.9427 14.252 16.1227 14.88 16.4827 15.448C16.8507 16.016 17.3307 16.468 17.9227 16.804C18.5147 17.14 19.1507 17.308 19.8307 17.308C20.9587 17.308 21.8947 16.924 22.6387 16.156C23.3907 15.38 23.7667 14.2 23.7667 12.616C23.7667 11.024 23.3947 9.848 22.6507 9.088C21.9067 8.32 20.9667 7.936 19.8307 7.936C19.1507 7.936 18.5147 8.104 17.9227 8.44C17.3307 8.768 16.8507 9.212 16.4827 9.772C16.1227 10.332 15.9427 10.96 15.9427 11.656L14.4787 11.608C14.4787 10.512 14.7427 9.548 15.2707 8.716C15.8067 7.884 16.5027 7.236 17.3587 6.772C18.2147 6.3 19.1347 6.064 20.1187 6.064C21.1507 6.064 22.1027 6.32 22.9747 6.832C23.8467 7.336 24.5467 8.076 25.0747 9.052C25.6027 10.028 25.8667 11.216 25.8667 12.616C25.8667 14.04 25.6067 15.248 25.0867 16.24C24.5667 17.224 23.8707 17.972 22.9987 18.484C22.1267 18.988 21.1667 19.24 20.1187 19.24ZM29.1748 19V6.256H31.1908V19H29.1748ZM30.1948 3.328C29.8188 3.328 29.4908 3.224 29.2108 3.016C28.9388 2.8 28.8027 2.508 28.8027 2.14C28.8027 1.78 28.9388 1.496 29.2108 1.288C29.4908 1.072 29.8188 0.964 30.1948 0.964C30.5708 0.964 30.8948 1.072 31.1668 1.288C31.4388 1.496 31.5748 1.78 31.5748 2.14C31.5748 2.508 31.4388 2.8 31.1668 3.016C30.8948 3.224 30.5708 3.328 30.1948 3.328ZM37.1804 0.243999V19H35.1644V0.243999H37.1804ZM46.9501 19.228C45.6701 19.228 44.5381 18.944 43.5541 18.376C42.5781 17.8 41.8101 17.016 41.2501 16.024C40.6981 15.024 40.4221 13.888 40.4221 12.616C40.4221 11.344 40.6981 10.216 41.2501 9.232C41.8101 8.248 42.5781 7.476 43.5541 6.916C44.5381 6.356 45.6701 6.076 46.9501 6.076C48.2301 6.076 49.3581 6.356 50.3341 6.916C51.3181 7.476 52.0861 8.248 52.6381 9.232C53.1981 10.216 53.4781 11.344 53.4781 12.616C53.4781 13.888 53.1981 15.024 52.6381 16.024C52.0861 17.016 51.3181 17.8 50.3341 18.376C49.3581 18.944 48.2301 19.228 46.9501 19.228ZM46.9501 17.356C47.8301 17.356 48.6061 17.16 49.2781 16.768C49.9501 16.376 50.4741 15.824 50.8501 15.112C51.2341 14.4 51.4261 13.568 51.4261 12.616C51.4261 11.664 51.2341 10.84 50.8501 10.144C50.4741 9.44 49.9501 8.9 49.2781 8.524C48.6061 8.14 47.8301 7.948 46.9501 7.948C46.0781 7.948 45.3021 8.14 44.6221 8.524C43.9501 8.9 43.4221 9.44 43.0381 10.144C42.6621 10.84 42.4741 11.664 42.4741 12.616C42.4741 13.568 42.6621 14.4 43.0381 15.112C43.4221 15.824 43.9501 16.376 44.6221 16.768C45.3021 17.16 46.0781 17.356 46.9501 17.356ZM64.8001 18.22C65.4881 18.276 66.0921 18.404 66.6121 18.604C67.1401 18.796 67.5521 19.08 67.8481 19.456C68.1441 19.84 68.2921 20.34 68.2921 20.956C68.2921 21.636 68.0601 22.236 67.5961 22.756C67.1321 23.284 66.4281 23.696 65.4841 23.992C64.5401 24.288 63.3521 24.436 61.9201 24.436C59.8961 24.436 58.3681 24.14 57.3361 23.548C56.3041 22.964 55.7881 22.164 55.7881 21.148C55.7881 20.828 55.8241 20.544 55.8961 20.296C55.9761 20.056 56.0641 19.86 56.1601 19.708L58.1041 19.996C58.0401 20.084 57.9761 20.216 57.9121 20.392C57.8561 20.576 57.8281 20.788 57.8281 21.028C57.8281 21.668 58.1921 22.116 58.9201 22.372C59.6481 22.636 60.6801 22.768 62.0161 22.768C63.0161 22.768 63.8361 22.7 64.4761 22.564C65.1161 22.428 65.5921 22.232 65.9041 21.976C66.2161 21.72 66.3721 21.42 66.3721 21.076C66.3721 20.556 66.1521 20.232 65.7121 20.104C65.2801 19.984 64.7441 19.9 64.1041 19.852L59.2561 19.492C58.4481 19.428 57.7881 19.18 57.2761 18.748C56.7721 18.308 56.5201 17.776 56.5201 17.152C56.5201 16.768 56.6121 16.404 56.7961 16.06C56.9881 15.716 57.2081 15.428 57.4561 15.196C57.7121 14.956 57.9401 14.812 58.1401 14.764L59.7481 15.496C59.5481 15.528 59.3001 15.668 59.0041 15.916C58.7161 16.156 58.5721 16.44 58.5721 16.768C58.5721 17.064 58.6881 17.308 58.9201 17.5C59.1521 17.684 59.6121 17.804 60.3001 17.86L64.8001 18.22ZM66.5641 6.256H68.4841L67.6921 11.272C67.5481 12.208 67.2481 13.056 66.7921 13.816C66.3361 14.568 65.7121 15.168 64.9201 15.616C64.1361 16.056 63.1641 16.276 62.0041 16.276C60.7961 16.276 59.7641 16.056 58.9081 15.616C58.0521 15.176 57.3961 14.576 56.9401 13.816C56.4841 13.048 56.2561 12.184 56.2561 11.224C56.2561 10.248 56.4921 9.372 56.9641 8.596C57.4441 7.812 58.1081 7.196 58.9561 6.748C59.8041 6.292 60.7761 6.064 61.8721 6.064C62.8561 6.064 63.7161 6.236 64.4521 6.58C65.1881 6.916 65.7681 7.34 66.1921 7.852C66.6241 8.364 66.8641 8.88 66.9121 9.4L66.1441 9.448L66.5641 6.256ZM61.9921 14.452C62.7681 14.452 63.4321 14.324 63.9841 14.068C64.5441 13.812 64.9721 13.44 65.2681 12.952C65.5721 12.464 65.7241 11.872 65.7241 11.176C65.7241 10.504 65.5721 9.924 65.2681 9.436C64.9721 8.94 64.5441 8.56 63.9841 8.296C63.4321 8.024 62.7721 7.888 62.0041 7.888C61.2681 7.888 60.6161 8.028 60.0481 8.308C59.4881 8.58 59.0481 8.964 58.7281 9.46C58.4161 9.956 58.2601 10.54 58.2601 11.212C58.2601 11.892 58.4081 12.476 58.7041 12.964C59.0081 13.444 59.4361 13.812 59.9881 14.068C60.5481 14.324 61.2161 14.452 61.9921 14.452ZM75.9931 19.228C75.0811 19.228 74.3211 19.072 73.7131 18.76C73.1051 18.44 72.6211 18.028 72.2611 17.524C71.9091 17.02 71.6571 16.476 71.5051 15.892C71.3611 15.3 71.2891 14.732 71.2891 14.188C71.2891 13.884 71.2891 13.572 71.2891 13.252C71.2891 12.924 71.2891 12.596 71.2891 12.268V6.256H73.3411V12.004C73.3411 12.3 73.3411 12.592 73.3411 12.88C73.3411 13.168 73.3411 13.44 73.3411 13.696C73.3411 14.344 73.4291 14.944 73.6051 15.496C73.7891 16.048 74.1051 16.496 74.5531 16.84C75.0011 17.176 75.6171 17.344 76.4011 17.344C77.1371 17.344 77.7811 17.124 78.3331 16.684C78.8851 16.236 79.3171 15.68 79.6291 15.016C79.9411 14.344 80.0971 13.676 80.0971 13.012L81.2851 13.504C81.2851 14.208 81.1611 14.9 80.9131 15.58C80.6651 16.252 80.3091 16.864 79.8451 17.416C79.3891 17.968 78.8331 18.408 78.1771 18.736C77.5291 19.064 76.8011 19.228 75.9931 19.228ZM80.0971 19V6.256H82.1371V19H80.0971ZM86.3398 13.444V11.62H96.1918L95.8318 12.22C95.8318 12.172 95.8318 12.128 95.8318 12.088C95.8318 12.04 95.8318 11.996 95.8318 11.956C95.8318 11.22 95.6758 10.548 95.3638 9.94C95.0598 9.324 94.6038 8.832 93.9958 8.464C93.3878 8.096 92.6358 7.912 91.7398 7.912C90.8358 7.912 90.0398 8.104 89.3518 8.488C88.6638 8.872 88.1278 9.416 87.7438 10.12C87.3598 10.816 87.1678 11.648 87.1678 12.616C87.1678 13.6 87.3518 14.448 87.7198 15.16C88.0958 15.872 88.6278 16.42 89.3158 16.804C90.0038 17.188 90.8198 17.38 91.7638 17.38C92.4358 17.38 93.0198 17.312 93.5158 17.176C94.0118 17.032 94.4198 16.844 94.7398 16.612C95.0678 16.372 95.3158 16.112 95.4838 15.832C95.6518 15.552 95.7518 15.272 95.7838 14.992H97.8238C97.7838 15.504 97.6238 16.012 97.3438 16.516C97.0638 17.02 96.6678 17.48 96.1558 17.896C95.6438 18.304 95.0158 18.632 94.2718 18.88C93.5278 19.128 92.6718 19.252 91.7038 19.252C90.4238 19.252 89.2958 18.972 88.3198 18.412C87.3438 17.852 86.5758 17.076 86.0158 16.084C85.4638 15.092 85.1878 13.952 85.1878 12.664C85.1878 11.36 85.4678 10.216 86.0278 9.232C86.5878 8.24 87.3598 7.464 88.3438 6.904C89.3278 6.344 90.4518 6.064 91.7158 6.064C93.0038 6.064 94.1198 6.344 95.0638 6.904C96.0078 7.464 96.7358 8.232 97.2478 9.208C97.7598 10.176 98.0158 11.28 98.0158 12.52C98.0158 12.648 98.0118 12.816 98.0038 13.024C97.9958 13.232 97.9838 13.372 97.9678 13.444H86.3398Z" fill="#111827"/>
</svg>
