<svg width="104" height="20" viewBox="0 0 104 20" fill="none" xmlns="http://www.w3.org/2000/svg">
<path d="M3.624 19V1.192H5.976V19H3.624ZM3.624 9.088C4.808 9.152 5.992 9.208 7.176 9.256C8.376 9.288 9.568 9.304 10.752 9.304C11.936 9.304 13.12 9.288 14.304 9.256C15.504 9.208 16.696 9.152 17.88 9.088V10.432C16.696 10.496 15.504 10.552 14.304 10.6C13.12 10.632 11.936 10.648 10.752 10.648C9.568 10.648 8.376 10.632 7.176 10.6C5.992 10.552 4.808 10.496 3.624 10.432V9.088ZM15.528 19V1.192H17.88V19H15.528ZM12.96 19C12.816 19 12.744 18.92 12.744 18.76V18.448C12.744 18.288 12.824 18.2 12.984 18.184L15.048 17.824C15.24 17.792 15.368 17.736 15.432 17.656C15.496 17.56 15.528 17.416 15.528 17.224V13.84H17.88V17.248C17.88 17.44 17.912 17.576 17.976 17.656C18.056 17.736 18.192 17.792 18.384 17.824L20.52 18.184C20.664 18.232 20.736 18.328 20.736 18.472V18.784C20.736 18.928 20.656 19 20.496 19H12.96ZM1.056 19C0.912 19 0.84 18.92 0.84 18.76V18.448C0.84 18.288 0.92 18.2 1.08 18.184L3.144 17.824C3.336 17.792 3.464 17.736 3.528 17.656C3.592 17.56 3.624 17.416 3.624 17.224V13.84H5.976V17.248C5.976 17.44 6.008 17.576 6.072 17.656C6.152 17.736 6.288 17.792 6.48 17.824L8.616 18.184C8.76 18.232 8.832 18.328 8.832 18.472V18.784C8.832 18.928 8.752 19 8.592 19H1.056ZM12.744 1.432C12.744 1.272 12.816 1.192 12.96 1.192H20.496C20.656 1.192 20.736 1.264 20.736 1.408V1.72C20.736 1.864 20.664 1.96 20.52 2.008L18.384 2.368C18.192 2.4 18.056 2.456 17.976 2.536C17.912 2.616 17.88 2.752 17.88 2.944V6.352H15.528V2.968C15.528 2.776 15.496 2.64 15.432 2.56C15.368 2.464 15.24 2.4 15.048 2.368L12.984 2.008C12.824 1.992 12.744 1.904 12.744 1.744V1.432ZM0.84 1.432C0.84 1.272 0.912 1.192 1.056 1.192H8.592C8.752 1.192 8.832 1.264 8.832 1.408V1.72C8.832 1.864 8.76 1.96 8.616 2.008L6.48 2.368C6.288 2.4 6.152 2.456 6.072 2.536C6.008 2.616 5.976 2.752 5.976 2.944V6.352H3.624V2.968C3.624 2.776 3.592 2.64 3.528 2.56C3.464 2.464 3.336 2.4 3.144 2.368L1.08 2.008C0.92 1.992 0.84 1.904 0.84 1.744V1.432ZM25.8819 19.192C24.9219 19.192 24.1379 18.912 23.5299 18.352C22.9219 17.792 22.6179 17.072 22.6179 16.192C22.6179 15.2 22.9699 14.432 23.6739 13.888C24.3939 13.344 25.5059 12.984 27.0099 12.808L30.3459 12.4L30.2979 13.48L27.4419 13.864C26.4819 14.008 25.7859 14.24 25.3539 14.56C24.9379 14.88 24.7299 15.336 24.7299 15.928C24.7299 16.44 24.8979 16.848 25.2339 17.152C25.5859 17.456 26.0579 17.608 26.6499 17.608C27.2579 17.608 27.7939 17.512 28.2579 17.32C28.7379 17.112 29.1379 16.88 29.4579 16.624C29.7779 16.368 30.0019 16.152 30.1299 15.976L30.4179 16.288C30.3699 16.544 30.2179 16.84 29.9619 17.176C29.7219 17.496 29.3939 17.816 28.9779 18.136C28.5779 18.44 28.1139 18.696 27.5859 18.904C27.0579 19.096 26.4899 19.192 25.8819 19.192ZM30.0819 11.128C30.0819 10.232 29.8499 9.544 29.3859 9.064C28.9219 8.568 28.2659 8.32 27.4179 8.32C27.0019 8.32 26.6259 8.368 26.2899 8.464C25.9539 8.544 25.6659 8.72 25.4259 8.992C25.2019 9.248 25.0339 9.64 24.9219 10.168L24.7539 11.008C24.7059 11.152 24.6099 11.224 24.4659 11.224H24.2019C24.0419 11.224 23.9539 11.144 23.9379 10.984C23.8419 10.536 23.7459 10.096 23.6499 9.664C23.5699 9.216 23.4899 8.776 23.4099 8.344C23.3779 8.216 23.4339 8.112 23.5779 8.032C23.9939 7.84 24.5539 7.624 25.2579 7.384C25.9779 7.128 26.7779 7 27.6579 7C29.0979 7 30.2259 7.36 31.0419 8.08C31.8739 8.8 32.2899 9.784 32.2899 11.032V15.112H30.0819V11.128ZM32.2899 15.112V18.328L31.8339 17.584L33.8979 18.064C34.0419 18.112 34.1139 18.208 34.1139 18.352V18.64C34.1139 18.784 34.0339 18.864 33.8739 18.88L32.6019 19C31.8819 19.064 31.3459 19.08 30.9939 19.048C30.6419 19.032 30.4099 18.928 30.2979 18.736C30.1859 18.544 30.1299 18.248 30.1299 17.848V16.624L30.0819 16.432V15.112H32.2899ZM36.9234 19V5.344H39.1314V19H36.9234ZM45.4674 11.2C45.4674 10.416 45.2674 9.824 44.8674 9.424C44.4674 9.008 43.8754 8.8 43.0914 8.8C42.4194 8.8 41.7154 8.976 40.9794 9.328C40.2594 9.68 39.5714 10.184 38.9154 10.84L38.7234 10.264C39.1234 9.64 39.6194 9.08 40.2114 8.584C40.8194 8.088 41.4674 7.704 42.1554 7.432C42.8434 7.144 43.4994 7 44.1234 7C45.3074 7 46.1954 7.328 46.7874 7.984C47.3794 8.64 47.6754 9.616 47.6754 10.912V19H45.4674V11.2ZM35.4834 19C35.3394 19 35.2674 18.92 35.2674 18.76V18.52C35.2674 18.36 35.3474 18.272 35.5074 18.256L36.4434 18.04C36.6674 17.992 36.8034 17.936 36.8514 17.872C36.8994 17.808 36.9234 17.664 36.9234 17.44V14.68H39.1314V17.464C39.1314 17.672 39.1554 17.808 39.2034 17.872C39.2674 17.936 39.4114 17.984 39.6354 18.016L41.1234 18.28C41.2674 18.296 41.3394 18.384 41.3394 18.544V18.784C41.3394 18.928 41.2594 19 41.0994 19H35.4834ZM36.9234 5.368V1.864L37.3554 2.584L35.2914 2.248C35.1474 2.232 35.0754 2.144 35.0754 1.984V1.696C35.0754 1.552 35.1554 1.472 35.3154 1.456L38.5074 0.975999C38.7314 0.943999 38.8914 0.96 38.9874 1.024C39.0834 1.072 39.1314 1.2 39.1314 1.408V5.368H36.9234ZM44.0274 19C43.8834 19 43.8114 18.92 43.8114 18.76V18.52C43.8114 18.36 43.8914 18.272 44.0514 18.256L44.9874 18.04C45.2114 17.992 45.3474 17.936 45.3954 17.872C45.4434 17.808 45.4674 17.664 45.4674 17.44V14.68H47.6754V17.464C47.6754 17.672 47.6994 17.808 47.7474 17.872C47.8114 17.936 47.9554 17.984 48.1794 18.016L49.6674 18.28C49.8114 18.296 49.8834 18.384 49.8834 18.544V18.784C49.8834 18.928 49.8034 19 49.6434 19H44.0274ZM67.5289 19C67.3849 19 67.3129 18.92 67.3129 18.76V18.52C67.3129 18.36 67.3929 18.272 67.5529 18.256L68.8009 18.04C69.0249 17.992 69.1609 17.936 69.2089 17.872C69.2569 17.808 69.2809 17.664 69.2809 17.44V11.2C69.2809 10.416 69.0969 9.824 68.7289 9.424C68.3769 9.008 67.8569 8.8 67.1689 8.8C65.8409 8.8 64.5369 9.48 63.2569 10.84L63.0409 10.264C63.4249 9.624 63.8969 9.064 64.4569 8.584C65.0169 8.088 65.6169 7.704 66.2569 7.432C66.8969 7.144 67.5369 7 68.1769 7C69.2649 7 70.0889 7.328 70.6489 7.984C71.2089 8.64 71.4889 9.616 71.4889 10.912V17.464C71.4889 17.672 71.5129 17.808 71.5609 17.872C71.6249 17.936 71.7689 17.984 71.9929 18.016L73.4809 18.28C73.6249 18.296 73.6969 18.384 73.6969 18.544V18.784C73.6969 18.928 73.6169 19 73.4569 19H67.5289ZM51.7609 19C51.6169 19 51.5449 18.92 51.5449 18.76V18.52C51.5449 18.36 51.6249 18.272 51.7849 18.256L52.7449 18.04C52.9689 17.992 53.1049 17.936 53.1529 17.872C53.2009 17.808 53.2249 17.664 53.2249 17.44V11.416H55.4329V17.464C55.4329 17.672 55.4569 17.808 55.5049 17.872C55.5689 17.936 55.7129 17.992 55.9369 18.04L57.1609 18.256C57.3049 18.304 57.3769 18.4 57.3769 18.544V18.784C57.3769 18.928 57.2969 19 57.1369 19H51.7609ZM59.6329 19C59.4889 19 59.4169 18.92 59.4169 18.76V18.52C59.4169 18.36 59.4969 18.272 59.6569 18.256L60.7129 18.04C60.9369 17.992 61.0729 17.936 61.1209 17.872C61.1689 17.808 61.1929 17.664 61.1929 17.44V11.2C61.1929 10.416 61.0169 9.824 60.6649 9.424C60.3129 9.008 59.7929 8.8 59.1049 8.8C57.7929 8.8 56.4809 9.48 55.1689 10.84L54.9529 10.264C55.5609 9.304 56.3369 8.52 57.2809 7.912C58.2249 7.304 59.1769 7 60.1369 7C61.2249 7 62.0409 7.336 62.5849 8.008C63.1289 8.664 63.4009 9.632 63.4009 10.912V17.464C63.4009 17.672 63.4249 17.808 63.4729 17.872C63.5369 17.936 63.6809 17.992 63.9049 18.04L64.9609 18.256C65.1049 18.304 65.1769 18.4 65.1769 18.544V18.784C65.1769 18.928 65.0969 19 64.9369 19H59.6329ZM53.2249 11.416V7.912L53.6569 8.632L51.5929 8.296C51.4489 8.28 51.3769 8.192 51.3769 8.032V7.744C51.3769 7.616 51.4569 7.528 51.6169 7.48L54.6649 7.024C54.8889 6.992 55.0489 7.008 55.1449 7.072C55.2409 7.12 55.2889 7.248 55.2889 7.456V9.832L55.4329 10.24V11.416H53.2249ZM76.5094 19V5.344H78.7174V19H76.5094ZM75.0694 19C74.9254 19 74.8534 18.92 74.8534 18.76V18.52C74.8534 18.36 74.9334 18.272 75.0934 18.256L76.0294 18.04C76.2534 17.992 76.3894 17.936 76.4374 17.872C76.4854 17.808 76.5094 17.664 76.5094 17.44V14.68H78.7174V17.464C78.7174 17.672 78.7414 17.808 78.7894 17.872C78.8534 17.936 78.9974 17.984 79.2214 18.016L80.7094 18.28C80.8534 18.296 80.9254 18.384 80.9254 18.544V18.784C80.9254 18.928 80.8454 19 80.6854 19H75.0694ZM76.5094 5.368V1.864L76.9414 2.584L74.8774 2.248C74.7334 2.232 74.6614 2.144 74.6614 1.984V1.696C74.6614 1.552 74.7414 1.472 74.9014 1.456L78.0934 0.975999C78.3174 0.943999 78.4774 0.96 78.5734 1.024C78.6694 1.072 78.7174 1.2 78.7174 1.408V5.368H76.5094ZM88.0766 19.192C87.0366 19.192 86.0846 18.952 85.2206 18.472C84.3566 17.976 83.6686 17.272 83.1566 16.36C82.6606 15.432 82.4126 14.32 82.4126 13.024C82.4126 11.712 82.6766 10.616 83.2046 9.736C83.7326 8.84 84.4366 8.16 85.3166 7.696C86.1966 7.232 87.1646 7 88.2206 7C89.1166 7 89.9326 7.216 90.6686 7.648C91.4206 8.064 92.0206 8.664 92.4686 9.448C92.9166 10.232 93.1406 11.168 93.1406 12.256C93.1406 12.32 93.1406 12.4 93.1406 12.496C93.1406 12.592 93.1326 12.68 93.1166 12.76C93.0686 12.904 92.9726 12.976 92.8286 12.976H84.3086V11.872H91.6766L91.1246 12.4C91.1246 12.32 91.1246 12.248 91.1246 12.184C91.1246 12.104 91.1246 12.032 91.1246 11.968C91.1246 11.264 90.9886 10.64 90.7166 10.096C90.4446 9.552 90.0686 9.12 89.5886 8.8C89.1246 8.48 88.5886 8.32 87.9806 8.32C86.9246 8.32 86.1006 8.72 85.5086 9.52C84.9326 10.304 84.6446 11.432 84.6446 12.904C84.6446 13.816 84.8206 14.64 85.1726 15.376C85.5246 16.112 86.0046 16.696 86.6126 17.128C87.2206 17.544 87.9086 17.752 88.6766 17.752C89.9246 17.752 90.9566 17.4 91.7726 16.696C91.8846 16.6 91.9806 16.616 92.0606 16.744L92.2766 17.056C92.3566 17.168 92.3486 17.296 92.2526 17.44C91.7566 17.984 91.1406 18.416 90.4046 18.736C89.6846 19.04 88.9086 19.192 88.0766 19.192ZM99.8844 19.168C98.7804 19.168 97.9484 18.864 97.3884 18.256C96.8444 17.632 96.5724 16.712 96.5724 15.496V7.432L96.6204 7.192V4.888C96.6204 4.744 96.7004 4.648 96.8604 4.6C97.0204 4.568 97.1964 4.544 97.3884 4.528C97.5804 4.496 97.7804 4.472 97.9884 4.456C98.1964 4.424 98.3884 4.408 98.5644 4.408C98.7084 4.408 98.7804 4.488 98.7804 4.648V15.448C98.7804 16.248 98.9644 16.824 99.3324 17.176C99.7004 17.528 100.3 17.704 101.132 17.704C101.388 17.704 101.652 17.688 101.924 17.656C102.212 17.624 102.516 17.568 102.836 17.488C102.98 17.456 103.06 17.52 103.076 17.68L103.1 17.992C103.116 18.12 103.06 18.24 102.932 18.352C102.676 18.512 102.372 18.656 102.02 18.784C101.668 18.896 101.308 18.984 100.94 19.048C100.572 19.128 100.22 19.168 99.8844 19.168ZM95.0604 8.368C94.9324 8.368 94.8764 8.288 94.8924 8.128L94.9884 7.624C95.0204 7.48 95.1164 7.4 95.2764 7.384L96.6204 7.192H101.564L103.052 7.12C103.196 7.12 103.268 7.2 103.268 7.36C103.284 7.488 103.284 7.624 103.268 7.768C103.268 7.896 103.252 8.024 103.22 8.152C103.172 8.296 103.076 8.368 102.932 8.368H95.0604Z" fill="#111827"/>
</svg>
