<svg width="50" height="19" viewBox="0 0 50 19" fill="none" xmlns="http://www.w3.org/2000/svg">
<path d="M2.22727 0.545454V18H0.113636V0.545454H2.22727ZM8.20384 10.125V18H6.19247V4.90909H8.13565V6.95455H8.30611C8.61293 6.28977 9.07884 5.75568 9.70384 5.35227C10.3288 4.94318 11.1357 4.73864 12.1243 4.73864C13.0107 4.73864 13.7862 4.92045 14.451 5.28409C15.1158 5.64205 15.6328 6.1875 16.0021 6.92045C16.3714 7.64773 16.5561 8.56818 16.5561 9.68182V18H14.5447V9.81818C14.5447 8.78977 14.2777 7.98864 13.7436 7.41477C13.2095 6.83523 12.4766 6.54545 11.5447 6.54545C10.9027 6.54545 10.3288 6.68466 9.82315 6.96307C9.32315 7.24148 8.92827 7.64773 8.63849 8.18182C8.34872 8.71591 8.20384 9.36364 8.20384 10.125ZM25.9247 4.90909V6.61364H19.1406V4.90909H25.9247ZM21.1179 1.77273H23.1293V14.25C23.1293 14.8182 23.2116 15.2443 23.3764 15.5284C23.5469 15.8068 23.7628 15.9943 24.0241 16.0909C24.2912 16.1818 24.5724 16.2273 24.8679 16.2273C25.0895 16.2273 25.2713 16.2159 25.4134 16.1932C25.5554 16.1648 25.669 16.142 25.7543 16.125L26.1634 17.9318C26.027 17.983 25.8366 18.0341 25.5923 18.0852C25.348 18.142 25.0384 18.1705 24.6634 18.1705C24.0952 18.1705 23.5384 18.0483 22.9929 17.804C22.4531 17.5597 22.0043 17.1875 21.6463 16.6875C21.294 16.1875 21.1179 15.5568 21.1179 14.7955V1.77273ZM34.2983 18.2727C33.0369 18.2727 31.9489 17.9943 31.0341 17.4375C30.125 16.875 29.4233 16.0909 28.929 15.0852C28.4403 14.0739 28.196 12.8977 28.196 11.5568C28.196 10.2159 28.4403 9.03409 28.929 8.01136C29.4233 6.98295 30.1108 6.18182 30.9915 5.60795C31.8778 5.02841 32.9119 4.73864 34.0938 4.73864C34.7756 4.73864 35.4489 4.85227 36.1136 5.07954C36.7784 5.30682 37.3835 5.67614 37.929 6.1875C38.4744 6.69318 38.9091 7.36364 39.233 8.19886C39.5568 9.03409 39.7188 10.0625 39.7188 11.2841V12.1364H29.6278V10.3977H37.6733C37.6733 9.65909 37.5256 9 37.2301 8.42045C36.9403 7.84091 36.5256 7.38352 35.9858 7.0483C35.4517 6.71307 34.821 6.54545 34.0938 6.54545C33.2926 6.54545 32.5994 6.74432 32.0142 7.14205C31.4347 7.53409 30.9886 8.04545 30.6761 8.67614C30.3636 9.30682 30.2074 9.98295 30.2074 10.7045V11.8636C30.2074 12.8523 30.3778 13.6903 30.7188 14.3778C31.0653 15.0597 31.5455 15.5795 32.1591 15.9375C32.7727 16.2898 33.4858 16.4659 34.2983 16.4659C34.8267 16.4659 35.304 16.392 35.7301 16.2443C36.1619 16.0909 36.5341 15.8636 36.8466 15.5625C37.1591 15.2557 37.4006 14.875 37.571 14.4205L39.5142 14.9659C39.3097 15.625 38.9659 16.2045 38.483 16.7045C38 17.1989 37.4034 17.5852 36.6932 17.8636C35.983 18.1364 35.1847 18.2727 34.2983 18.2727ZM42.7784 18V4.90909H44.7216V6.88636H44.858C45.0966 6.23864 45.5284 5.71307 46.1534 5.30966C46.7784 4.90625 47.483 4.70454 48.267 4.70454C48.4148 4.70454 48.5994 4.70739 48.821 4.71307C49.0426 4.71875 49.2102 4.72727 49.3239 4.73864V6.78409C49.2557 6.76705 49.0994 6.74148 48.8551 6.70739C48.6165 6.66761 48.3636 6.64773 48.0966 6.64773C47.4602 6.64773 46.892 6.78125 46.392 7.0483C45.8977 7.30966 45.5057 7.6733 45.2159 8.1392C44.9318 8.59943 44.7898 9.125 44.7898 9.71591V18H42.7784Z" fill="#111827"/>
</svg>
