<svg width="199" height="20" viewBox="0 0 199 20" fill="none" xmlns="http://www.w3.org/2000/svg">
<path d="M5.48 19.24C3.8 19.24 2.48 18.768 1.52 17.824C0.56 16.88 0.08 15.592 0.08 13.96H2.24C2.24 15.032 2.52 15.864 3.08 16.456C3.656 17.032 4.456 17.32 5.48 17.32C6.504 17.32 7.296 17.032 7.856 16.456C8.432 15.864 8.72 15.032 8.72 13.96V3.448H4.52V1.48H10.88V13.96C10.88 15.592 10.392 16.88 9.416 17.824C8.456 18.768 7.144 19.24 5.48 19.24ZM20.5906 19.24C19.5506 19.24 18.6386 19.032 17.8546 18.616C17.0866 18.2 16.4866 17.616 16.0546 16.864C15.6386 16.096 15.4306 15.208 15.4306 14.2V10.6C15.4306 9.576 15.6386 8.688 16.0546 7.936C16.4866 7.184 17.0866 6.6 17.8546 6.184C18.6386 5.768 19.5506 5.56 20.5906 5.56C21.6306 5.56 22.5346 5.768 23.3026 6.184C24.0866 6.6 24.6866 7.184 25.1026 7.936C25.5346 8.688 25.7506 9.576 25.7506 10.6V12.928H17.5426V14.2C17.5426 15.24 17.8066 16.04 18.3346 16.6C18.8626 17.144 19.6146 17.416 20.5906 17.416C21.4226 17.416 22.0946 17.272 22.6066 16.984C23.1186 16.68 23.4306 16.232 23.5426 15.64H25.7026C25.5586 16.744 25.0146 17.624 24.0706 18.28C23.1426 18.92 21.9826 19.24 20.5906 19.24ZM23.6386 11.488V10.6C23.6386 9.56 23.3746 8.76 22.8466 8.2C22.3346 7.64 21.5826 7.36 20.5906 7.36C19.6146 7.36 18.8626 7.64 18.3346 8.2C17.8066 8.76 17.5426 9.56 17.5426 10.6V11.296H23.8066L23.6386 11.488ZM36.4213 19C35.2853 19 34.3973 18.696 33.7573 18.088C33.1333 17.48 32.8213 16.624 32.8213 15.52V7.768H29.1013V5.8H32.8213V2.08H34.9813V5.8H40.2613V7.768H34.9813V15.52C34.9813 16.528 35.4613 17.032 36.4213 17.032H40.0213V19H36.4213ZM44.4039 19V1.48H49.3719C50.9719 1.48 52.2199 1.88 53.1159 2.68C54.0279 3.48 54.4839 4.592 54.4839 6.016C54.4839 6.816 54.3159 7.512 53.9799 8.104C53.6439 8.696 53.1639 9.152 52.5399 9.472C51.9319 9.792 51.1959 9.944 50.3319 9.928V9.568C51.2599 9.552 52.0599 9.728 52.7319 10.096C53.4199 10.464 53.9479 10.992 54.3159 11.68C54.6999 12.368 54.8919 13.184 54.8919 14.128C54.8919 15.12 54.6839 15.984 54.2679 16.72C53.8519 17.456 53.2599 18.024 52.4919 18.424C51.7239 18.808 50.8039 19 49.7319 19H44.4039ZM46.5159 17.056H49.4919C50.4999 17.056 51.2919 16.792 51.8679 16.264C52.4599 15.72 52.7559 14.984 52.7559 14.056C52.7559 13.096 52.4599 12.32 51.8679 11.728C51.2919 11.12 50.4999 10.816 49.4919 10.816H46.5159V17.056ZM46.5159 8.944H49.3479C50.2759 8.944 51.0039 8.696 51.5319 8.2C52.0759 7.704 52.3479 7.032 52.3479 6.184C52.3479 5.336 52.0839 4.664 51.5559 4.168C51.0279 3.672 50.2999 3.424 49.3719 3.424H46.5159V8.944ZM59.2265 19V5.8H61.3385V8.32H61.8425L61.1465 9.88C61.1465 8.456 61.4505 7.384 62.0585 6.664C62.6825 5.928 63.6025 5.56 64.8185 5.56C66.2105 5.56 67.3145 6 68.1305 6.88C68.9625 7.744 69.3785 8.92 69.3785 10.408V11.2H67.2185V10.6C67.2185 9.56 66.9625 8.768 66.4505 8.224C65.9545 7.664 65.2425 7.384 64.3145 7.384C63.4025 7.384 62.6825 7.664 62.1545 8.224C61.6425 8.784 61.3865 9.576 61.3865 10.6V19H59.2265ZM77.0011 19.24C75.6091 19.24 74.5131 18.888 73.7131 18.184C72.9131 17.464 72.5131 16.496 72.5131 15.28C72.5131 14.048 72.9131 13.08 73.7131 12.376C74.5131 11.672 75.5931 11.32 76.9531 11.32H81.0331V10C81.0331 9.184 80.7851 8.56 80.2891 8.128C79.8091 7.68 79.1211 7.456 78.2251 7.456C77.4411 7.456 76.7851 7.624 76.2571 7.96C75.7291 8.28 75.4251 8.72 75.3451 9.28H73.1851C73.3291 8.144 73.8651 7.24 74.7931 6.568C75.7211 5.896 76.8811 5.56 78.2731 5.56C79.7931 5.56 80.9931 5.952 81.8731 6.736C82.7531 7.52 83.1931 8.584 83.1931 9.928V19H81.0811V16.48H80.7211L81.0811 16.12C81.0811 17.08 80.7051 17.84 79.9531 18.4C79.2171 18.96 78.2331 19.24 77.0011 19.24ZM77.5291 17.536C78.5531 17.536 79.3931 17.28 80.0491 16.768C80.7051 16.256 81.0331 15.6 81.0331 14.8V12.928H77.0011C76.2811 12.928 75.7131 13.128 75.2971 13.528C74.8811 13.928 74.6731 14.472 74.6731 15.16C74.6731 15.896 74.9211 16.48 75.4171 16.912C75.9291 17.328 76.6331 17.536 77.5291 17.536ZM87.3838 19V17.032H92.0638V7.768H87.9838V5.8H94.2238V17.032H98.6638V19H87.3838ZM92.9038 3.424C92.3758 3.424 91.9598 3.288 91.6558 3.016C91.3518 2.744 91.1998 2.376 91.1998 1.912C91.1998 1.432 91.3518 1.056 91.6558 0.783998C91.9598 0.495999 92.3758 0.352 92.9038 0.352C93.4318 0.352 93.8478 0.495999 94.1518 0.783998C94.4558 1.056 94.6078 1.432 94.6078 1.912C94.6078 2.376 94.4558 2.744 94.1518 3.016C93.8478 3.288 93.4318 3.424 92.9038 3.424ZM101.942 19V5.8H104.102V8.32H104.558L104.102 8.824C104.102 7.784 104.414 6.984 105.038 6.424C105.662 5.848 106.526 5.56 107.63 5.56C108.958 5.56 110.014 5.968 110.798 6.784C111.582 7.6 111.974 8.712 111.974 10.12V19H109.814V10.36C109.814 9.416 109.558 8.696 109.046 8.2C108.55 7.688 107.87 7.432 107.006 7.432C106.11 7.432 105.398 7.704 104.87 8.248C104.358 8.792 104.102 9.576 104.102 10.6V19H101.942ZM120.917 19.192C120.021 19.192 119.237 19.056 118.565 18.784C117.909 18.496 117.381 18.096 116.981 17.584C116.597 17.072 116.365 16.464 116.285 15.76H118.445C118.541 16.224 118.797 16.592 119.213 16.864C119.645 17.136 120.213 17.272 120.917 17.272H121.925C122.773 17.272 123.405 17.104 123.821 16.768C124.237 16.416 124.445 15.952 124.445 15.376C124.445 14.816 124.253 14.376 123.869 14.056C123.501 13.72 122.949 13.496 122.213 13.384L120.437 13.096C119.141 12.872 118.173 12.472 117.533 11.896C116.909 11.304 116.597 10.448 116.597 9.328C116.597 8.144 116.973 7.232 117.725 6.592C118.477 5.936 119.605 5.608 121.109 5.608H122.021C123.285 5.608 124.301 5.904 125.069 6.496C125.837 7.088 126.301 7.888 126.461 8.896H124.301C124.205 8.48 123.965 8.152 123.581 7.912C123.197 7.656 122.677 7.528 122.021 7.528H121.109C120.293 7.528 119.693 7.68 119.309 7.984C118.941 8.288 118.757 8.744 118.757 9.352C118.757 9.896 118.917 10.296 119.237 10.552C119.557 10.808 120.061 10.992 120.749 11.104L122.525 11.392C123.949 11.616 124.981 12.032 125.621 12.64C126.277 13.248 126.605 14.128 126.605 15.28C126.605 16.496 126.213 17.456 125.429 18.16C124.661 18.848 123.493 19.192 121.925 19.192H120.917ZM144.73 19V1.48H147.562L149.386 7.144C149.562 7.656 149.722 8.168 149.866 8.68C150.01 9.176 150.114 9.56 150.178 9.832C150.258 9.56 150.362 9.176 150.49 8.68C150.618 8.168 150.762 7.648 150.922 7.12L152.65 1.48H155.482V19H153.37V12.64C153.37 11.936 153.394 11.136 153.442 10.24C153.49 9.344 153.554 8.432 153.634 7.504C153.714 6.56 153.794 5.664 153.874 4.816C153.97 3.952 154.05 3.2 154.114 2.56L151.282 11.32H149.002L146.146 2.56C146.226 3.184 146.306 3.912 146.386 4.744C146.466 5.56 146.538 6.432 146.602 7.36C146.666 8.272 146.722 9.184 146.77 10.096C146.818 11.008 146.842 11.856 146.842 12.64V19H144.73ZM164.497 19.192C163.441 19.192 162.529 18.992 161.761 18.592C160.993 18.192 160.393 17.616 159.961 16.864C159.545 16.096 159.337 15.192 159.337 14.152V10.648C159.337 9.592 159.545 8.688 159.961 7.936C160.393 7.184 160.993 6.608 161.761 6.208C162.529 5.808 163.441 5.608 164.497 5.608C165.553 5.608 166.465 5.808 167.233 6.208C168.001 6.608 168.593 7.184 169.009 7.936C169.441 8.688 169.657 9.584 169.657 10.624V14.152C169.657 15.192 169.441 16.096 169.009 16.864C168.593 17.616 168.001 18.192 167.233 18.592C166.465 18.992 165.553 19.192 164.497 19.192ZM164.497 17.272C165.441 17.272 166.177 17.008 166.705 16.48C167.233 15.952 167.497 15.176 167.497 14.152V10.648C167.497 9.624 167.233 8.848 166.705 8.32C166.177 7.792 165.441 7.528 164.497 7.528C163.569 7.528 162.833 7.792 162.289 8.32C161.761 8.848 161.497 9.624 161.497 10.648V14.152C161.497 15.176 161.761 15.952 162.289 16.48C162.833 17.008 163.569 17.272 164.497 17.272ZM173.896 19V5.8H176.056V8.32H176.512L176.056 8.824C176.056 7.784 176.368 6.984 176.992 6.424C177.616 5.848 178.48 5.56 179.584 5.56C180.912 5.56 181.968 5.968 182.752 6.784C183.536 7.6 183.928 8.712 183.928 10.12V19H181.768V10.36C181.768 9.416 181.512 8.696 181 8.2C180.504 7.688 179.824 7.432 178.96 7.432C178.064 7.432 177.352 7.704 176.824 8.248C176.312 8.792 176.056 9.576 176.056 10.6V19H173.896ZM193.278 19.192C192.222 19.192 191.31 18.992 190.542 18.592C189.774 18.192 189.174 17.616 188.742 16.864C188.326 16.096 188.118 15.192 188.118 14.152V10.648C188.118 9.592 188.326 8.688 188.742 7.936C189.174 7.184 189.774 6.608 190.542 6.208C191.31 5.808 192.222 5.608 193.278 5.608C194.334 5.608 195.246 5.808 196.014 6.208C196.782 6.608 197.374 7.184 197.79 7.936C198.222 8.688 198.438 9.584 198.438 10.624V14.152C198.438 15.192 198.222 16.096 197.79 16.864C197.374 17.616 196.782 18.192 196.014 18.592C195.246 18.992 194.334 19.192 193.278 19.192ZM193.278 17.272C194.222 17.272 194.958 17.008 195.486 16.48C196.014 15.952 196.278 15.176 196.278 14.152V10.648C196.278 9.624 196.014 8.848 195.486 8.32C194.958 7.792 194.222 7.528 193.278 7.528C192.35 7.528 191.614 7.792 191.07 8.32C190.542 8.848 190.278 9.624 190.278 10.648V14.152C190.278 15.176 190.542 15.952 191.07 16.48C191.614 17.008 192.35 17.272 193.278 17.272Z" fill="#111827"/>
</svg>
