<svg width="44" height="19" viewBox="0 0 44 19" fill="none" xmlns="http://www.w3.org/2000/svg">
<path d="M9.952 16.044V18H0.196V0.803999H2.512V16.044H9.952ZM18.6081 12.528C17.6241 12.56 16.7841 12.64 16.0881 12.768C15.4001 12.888 14.8361 13.048 14.3961 13.248C13.9641 13.448 13.6481 13.684 13.4481 13.956C13.2561 14.228 13.1601 14.532 13.1601 14.868C13.1601 15.188 13.2121 15.464 13.3161 15.696C13.4201 15.928 13.5601 16.12 13.7361 16.272C13.9201 16.416 14.1321 16.524 14.3721 16.596C14.6201 16.66 14.8841 16.692 15.1641 16.692C15.5401 16.692 15.8841 16.656 16.1961 16.584C16.5081 16.504 16.8001 16.392 17.0721 16.248C17.3521 16.104 17.6161 15.932 17.8641 15.732C18.1201 15.532 18.3681 15.304 18.6081 15.048V12.528ZM11.7081 7.56C12.3801 6.912 13.1041 6.428 13.8801 6.108C14.6561 5.788 15.5161 5.628 16.4601 5.628C17.1401 5.628 17.7441 5.74 18.2721 5.964C18.8001 6.188 19.2441 6.5 19.6041 6.9C19.9641 7.3 20.2361 7.784 20.4201 8.352C20.6041 8.92 20.6961 9.544 20.6961 10.224V18H19.7481C19.5401 18 19.3801 17.968 19.2681 17.904C19.1561 17.832 19.0681 17.696 19.0041 17.496L18.7641 16.344C18.4441 16.64 18.1321 16.904 17.8281 17.136C17.5241 17.36 17.2041 17.552 16.8681 17.712C16.5321 17.864 16.1721 17.98 15.7881 18.06C15.4121 18.148 14.9921 18.192 14.5281 18.192C14.0561 18.192 13.6121 18.128 13.1961 18C12.7801 17.864 12.4161 17.664 12.1041 17.4C11.8001 17.136 11.5561 16.804 11.3721 16.404C11.1961 15.996 11.1081 15.516 11.1081 14.964C11.1081 14.484 11.2401 14.024 11.5041 13.584C11.7681 13.136 12.1961 12.74 12.7881 12.396C13.3801 12.052 14.1521 11.772 15.1041 11.556C16.0561 11.332 17.2241 11.204 18.6081 11.172V10.224C18.6081 9.28 18.4041 8.568 17.9961 8.088C17.5881 7.6 16.9921 7.356 16.2081 7.356C15.6801 7.356 15.2361 7.424 14.8761 7.56C14.5241 7.688 14.2161 7.836 13.9521 8.004C13.6961 8.164 13.4721 8.312 13.2801 8.448C13.0961 8.576 12.9121 8.64 12.7281 8.64C12.5841 8.64 12.4601 8.604 12.3561 8.532C12.2521 8.452 12.1641 8.356 12.0921 8.244L11.7081 7.56ZM27.5178 18.192C26.5578 18.192 25.8178 17.924 25.2978 17.388C24.7858 16.852 24.5298 16.08 24.5298 15.072V7.632H23.0658C22.9378 7.632 22.8298 7.596 22.7418 7.524C22.6538 7.444 22.6098 7.324 22.6098 7.164V6.312L24.6018 6.06L25.0938 2.304C25.1178 2.184 25.1698 2.088 25.2498 2.016C25.3378 1.936 25.4498 1.896 25.5858 1.896H26.6658V6.084H30.1818V7.632H26.6658V14.928C26.6658 15.44 26.7898 15.82 27.0378 16.068C27.2858 16.316 27.6058 16.44 27.9978 16.44C28.2218 16.44 28.4138 16.412 28.5738 16.356C28.7418 16.292 28.8858 16.224 29.0058 16.152C29.1258 16.08 29.2258 16.016 29.3058 15.96C29.3938 15.896 29.4698 15.864 29.5338 15.864C29.6458 15.864 29.7458 15.932 29.8338 16.068L30.4578 17.088C30.0898 17.432 29.6458 17.704 29.1258 17.904C28.6058 18.096 28.0698 18.192 27.5178 18.192ZM37.441 5.652C38.329 5.652 39.129 5.8 39.841 6.096C40.553 6.392 41.161 6.812 41.665 7.356C42.169 7.9 42.553 8.56 42.817 9.336C43.089 10.104 43.225 10.964 43.225 11.916C43.225 12.876 43.089 13.74 42.817 14.508C42.553 15.276 42.169 15.932 41.665 16.476C41.161 17.02 40.553 17.44 39.841 17.736C39.129 18.024 38.329 18.168 37.441 18.168C36.545 18.168 35.737 18.024 35.017 17.736C34.305 17.44 33.697 17.02 33.193 16.476C32.689 15.932 32.301 15.276 32.029 14.508C31.765 13.74 31.633 12.876 31.633 11.916C31.633 10.964 31.765 10.104 32.029 9.336C32.301 8.56 32.689 7.9 33.193 7.356C33.697 6.812 34.305 6.392 35.017 6.096C35.737 5.8 36.545 5.652 37.441 5.652ZM37.441 16.5C38.641 16.5 39.537 16.1 40.129 15.3C40.721 14.492 41.017 13.368 41.017 11.928C41.017 10.48 40.721 9.352 40.129 8.544C39.537 7.736 38.641 7.332 37.441 7.332C36.833 7.332 36.301 7.436 35.845 7.644C35.397 7.852 35.021 8.152 34.717 8.544C34.421 8.936 34.197 9.42 34.045 9.996C33.901 10.564 33.829 11.208 33.829 11.928C33.829 13.368 34.125 14.492 34.717 15.3C35.317 16.1 36.225 16.5 37.441 16.5Z" fill="#111827"/>
</svg>
