<svg width="49" height="18" viewBox="0 0 49 18" fill="none" xmlns="http://www.w3.org/2000/svg">
<path d="M0.32 17V16.208C0.928 16.176 1.344 16.04 1.568 15.8C1.792 15.544 1.912 15.2 1.928 14.768C1.96 14.32 1.976 13.816 1.976 13.256V2.888C1.976 2.568 1.984 2.264 2 1.976C2.016 1.672 2.032 1.4 2.048 1.16C1.76 1.176 1.472 1.192 1.184 1.208C0.896 1.224 0.608 1.24 0.32 1.256V0.199999H5.72V0.991999C5.128 1.008 4.712 1.144 4.472 1.4C4.248 1.656 4.12 2 4.088 2.432C4.072 2.864 4.064 3.368 4.064 3.944V14.24C4.064 14.672 4.056 15.04 4.04 15.344C4.04 15.648 4.024 15.904 3.992 16.112L8.48 16.04C9.488 16.024 10.248 15.704 10.76 15.08C11.288 14.456 11.552 13.44 11.552 12.032H12.368L12.224 17H0.32ZM19.883 17.384C18.763 17.384 17.747 17.128 16.835 16.616C15.923 16.088 15.195 15.368 14.651 14.456C14.123 13.528 13.859 12.472 13.859 11.288C13.859 10.024 14.123 8.888 14.651 7.88C15.179 6.872 15.899 6.08 16.811 5.504C17.723 4.912 18.747 4.616 19.883 4.616C21.003 4.616 22.019 4.888 22.931 5.432C23.843 5.96 24.571 6.68 25.115 7.592C25.659 8.504 25.931 9.544 25.931 10.712C25.931 11.944 25.659 13.072 25.115 14.096C24.587 15.104 23.867 15.904 22.955 16.496C22.043 17.088 21.019 17.384 19.883 17.384ZM20.075 16.424C20.923 16.424 21.595 16.184 22.091 15.704C22.587 15.224 22.939 14.6 23.147 13.832C23.371 13.064 23.483 12.256 23.483 11.408C23.483 10.688 23.411 9.984 23.267 9.296C23.139 8.592 22.931 7.96 22.643 7.4C22.355 6.824 21.979 6.368 21.515 6.032C21.067 5.696 20.523 5.528 19.883 5.528C19.051 5.528 18.371 5.768 17.843 6.248C17.315 6.728 16.923 7.352 16.667 8.12C16.427 8.888 16.307 9.712 16.307 10.592C16.307 11.584 16.443 12.528 16.715 13.424C16.987 14.304 17.403 15.024 17.963 15.584C18.523 16.144 19.227 16.424 20.075 16.424ZM27.9701 16.28C28.4661 16.28 28.8101 16.16 29.0021 15.92C29.1941 15.664 29.3061 15.32 29.3381 14.888C29.3701 14.44 29.3861 13.928 29.3861 13.352V7.88C29.3861 7.624 29.3861 7.368 29.3861 7.112C29.4021 6.856 29.4341 6.592 29.4821 6.32C29.1941 6.336 28.9061 6.352 28.6181 6.368C28.3461 6.368 28.0661 6.376 27.7781 6.392V5.408H28.5221C29.2101 5.408 29.6821 5.344 29.9381 5.216C30.2101 5.072 30.4341 4.92 30.6101 4.76H31.3061C31.3381 5.016 31.3621 5.336 31.3781 5.72C31.3941 6.088 31.4101 6.56 31.4261 7.136C31.6661 6.736 31.9941 6.344 32.4101 5.96C32.8261 5.576 33.2901 5.256 33.8021 5C34.3301 4.744 34.8821 4.616 35.4581 4.616C35.9061 4.616 36.2981 4.736 36.6341 4.976C36.9701 5.216 37.1381 5.6 37.1381 6.128C37.1381 6.256 37.0981 6.416 37.0181 6.608C36.9381 6.784 36.8101 6.944 36.6341 7.088C36.4581 7.216 36.2261 7.28 35.9381 7.28C35.5861 7.264 35.3061 7.128 35.0981 6.872C34.8901 6.6 34.8101 6.288 34.8581 5.936C34.4581 5.92 34.0421 6.024 33.6101 6.248C33.1941 6.472 32.8021 6.784 32.4341 7.184C32.0661 7.568 31.7381 8.024 31.4501 8.552L31.4741 14.456C31.4741 14.776 31.4661 15.064 31.4501 15.32C31.4501 15.56 31.4261 15.816 31.3781 16.088C31.6341 16.072 31.8821 16.064 32.1221 16.064C32.3781 16.048 32.6341 16.032 32.8901 16.016V17H27.9701V16.28ZM45.4848 17C45.4368 16.728 45.4048 16.488 45.3888 16.28C45.3728 16.072 45.3488 15.856 45.3168 15.632C44.7728 16.176 44.1808 16.608 43.5408 16.928C42.9168 17.232 42.2528 17.384 41.5488 17.384C40.3328 17.384 39.4288 17.112 38.8368 16.568C38.2448 16.008 37.9488 15.328 37.9488 14.528C37.9488 13.792 38.1728 13.16 38.6208 12.632C39.0848 12.088 39.6768 11.648 40.3968 11.312C41.1328 10.96 41.9248 10.704 42.7728 10.544C43.6368 10.368 44.4688 10.288 45.2688 10.304V8.816C45.2688 8.256 45.2208 7.728 45.1248 7.232C45.0288 6.736 44.8208 6.328 44.5008 6.008C44.1808 5.688 43.6688 5.52 42.9648 5.504C42.5008 5.488 42.0208 5.576 41.5248 5.768C41.0448 5.96 40.6928 6.288 40.4688 6.752C40.5968 6.88 40.6768 7.032 40.7088 7.208C40.7568 7.368 40.7808 7.52 40.7808 7.664C40.7808 7.856 40.7008 8.08 40.5408 8.336C40.3808 8.576 40.1008 8.688 39.7008 8.672C39.3648 8.672 39.1088 8.56 38.9328 8.336C38.7568 8.096 38.6688 7.816 38.6688 7.496C38.6688 6.952 38.8688 6.464 39.2688 6.032C39.6848 5.6 40.2528 5.256 40.9728 5C41.6928 4.744 42.5088 4.616 43.4208 4.616C44.7648 4.616 45.7568 4.976 46.3968 5.696C47.0368 6.4 47.3488 7.52 47.3328 9.056C47.3328 9.648 47.3328 10.248 47.3328 10.856C47.3328 11.448 47.3248 12.048 47.3088 12.656C47.3088 13.248 47.3088 13.848 47.3088 14.456C47.3088 14.712 47.3008 14.968 47.2848 15.224C47.2688 15.48 47.2448 15.768 47.2128 16.088C47.5008 16.072 47.7808 16.056 48.0528 16.04C48.3408 16.024 48.6288 16.008 48.9168 15.992V17H45.4848ZM45.2688 11.12C44.7248 11.136 44.1488 11.208 43.5408 11.336C42.9488 11.448 42.3968 11.624 41.8848 11.864C41.3888 12.104 40.9808 12.424 40.6608 12.824C40.3568 13.208 40.2128 13.68 40.2288 14.24C40.2608 14.832 40.4528 15.28 40.8048 15.584C41.1728 15.872 41.6048 16.016 42.1008 16.016C42.7568 16.016 43.3248 15.896 43.8048 15.656C44.3008 15.4 44.7888 15.048 45.2688 14.6C45.2528 14.424 45.2448 14.232 45.2448 14.024C45.2448 13.816 45.2448 13.6 45.2448 13.376C45.2448 13.296 45.2448 13.04 45.2448 12.608C45.2608 12.176 45.2688 11.68 45.2688 11.12Z" fill="#111827"/>
</svg>
