<svg width="97" height="24" viewBox="0 0 97 24" fill="none" xmlns="http://www.w3.org/2000/svg">
<path d="M0.68 18V0.719999H2.3L9.092 15.252L15.848 0.719999H17.492V17.988H15.812V4.656L9.656 18H8.516L2.372 4.656V18H0.68ZM24.5677 18.36C23.5917 18.36 22.7717 18.184 22.1077 17.832C21.4517 17.48 20.9597 17.012 20.6317 16.428C20.3037 15.844 20.1397 15.208 20.1397 14.52C20.1397 13.816 20.2797 13.216 20.5597 12.72C20.8477 12.216 21.2357 11.804 21.7237 11.484C22.2197 11.164 22.7917 10.92 23.4397 10.752C24.0957 10.592 24.8197 10.452 25.6117 10.332C26.4117 10.204 27.1917 10.096 27.9517 10.008C28.7197 9.912 29.3917 9.82 29.9677 9.732L29.3437 10.116C29.3677 8.836 29.1197 7.888 28.5997 7.272C28.0797 6.656 27.1757 6.348 25.8877 6.348C24.9997 6.348 24.2477 6.548 23.6317 6.948C23.0237 7.348 22.5957 7.98 22.3477 8.844L20.6317 8.34C20.9277 7.18 21.5237 6.28 22.4197 5.64C23.3157 5 24.4797 4.68 25.9117 4.68C27.0957 4.68 28.0997 4.904 28.9237 5.352C29.7557 5.792 30.3437 6.432 30.6877 7.272C30.8477 7.648 30.9517 8.068 30.9997 8.532C31.0477 8.996 31.0717 9.468 31.0717 9.948V18H29.4997V14.748L29.9557 14.94C29.5157 16.052 28.8317 16.9 27.9037 17.484C26.9757 18.068 25.8637 18.36 24.5677 18.36ZM24.7717 16.836C25.5957 16.836 26.3157 16.688 26.9317 16.392C27.5477 16.096 28.0437 15.692 28.4197 15.18C28.7957 14.66 29.0397 14.076 29.1517 13.428C29.2477 13.012 29.2997 12.556 29.3077 12.06C29.3157 11.556 29.3197 11.18 29.3197 10.932L29.9917 11.28C29.3917 11.36 28.7397 11.44 28.0357 11.52C27.3397 11.6 26.6517 11.692 25.9717 11.796C25.2997 11.9 24.6917 12.024 24.1477 12.168C23.7797 12.272 23.4237 12.42 23.0797 12.612C22.7357 12.796 22.4517 13.044 22.2277 13.356C22.0117 13.668 21.9037 14.056 21.9037 14.52C21.9037 14.896 21.9957 15.26 22.1797 15.612C22.3717 15.964 22.6757 16.256 23.0917 16.488C23.5157 16.72 24.0757 16.836 24.7717 16.836ZM43.5556 18V11.388C43.5556 10.668 43.4876 10.008 43.3516 9.408C43.2156 8.8 42.9956 8.272 42.6916 7.824C42.3956 7.368 42.0076 7.016 41.5276 6.768C41.0556 6.52 40.4796 6.396 39.7996 6.396C39.1756 6.396 38.6236 6.504 38.1436 6.72C37.6716 6.936 37.2716 7.248 36.9436 7.656C36.6236 8.056 36.3796 8.544 36.2116 9.12C36.0436 9.696 35.9596 10.352 35.9596 11.088L34.7116 10.812C34.7116 9.484 34.9436 8.368 35.4076 7.464C35.8716 6.56 36.5116 5.876 37.3276 5.412C38.1436 4.948 39.0796 4.716 40.1356 4.716C40.9116 4.716 41.5876 4.836 42.1636 5.076C42.7476 5.316 43.2396 5.64 43.6396 6.048C44.0476 6.456 44.3756 6.924 44.6236 7.452C44.8716 7.972 45.0516 8.528 45.1636 9.12C45.2756 9.704 45.3316 10.288 45.3316 10.872V18H43.5556ZM34.1836 18V5.04H35.7796V8.232H35.9596V18H34.1836ZM48.4456 18V5.04H50.0296V8.16L49.7176 7.752C49.8616 7.368 50.0496 7.016 50.2816 6.696C50.5136 6.368 50.7656 6.1 51.0376 5.892C51.3736 5.596 51.7656 5.372 52.2136 5.22C52.6616 5.06 53.1136 4.968 53.5696 4.944C54.0256 4.912 54.4416 4.944 54.8176 5.04V6.696C54.3456 6.576 53.8296 6.548 53.2696 6.612C52.7096 6.676 52.1936 6.9 51.7216 7.284C51.2896 7.62 50.9656 8.024 50.7496 8.496C50.5336 8.96 50.3896 9.456 50.3176 9.984C50.2456 10.504 50.2096 11.02 50.2096 11.532V18H48.4456ZM62.2717 18.36C60.9837 18.36 59.8837 18.068 58.9717 17.484C58.0597 16.9 57.3597 16.092 56.8717 15.06C56.3837 14.028 56.1397 12.844 56.1397 11.508C56.1397 10.148 56.3877 8.956 56.8837 7.932C57.3797 6.908 58.0837 6.112 58.9957 5.544C59.9157 4.968 61.0077 4.68 62.2717 4.68C63.5677 4.68 64.6717 4.972 65.5837 5.556C66.5037 6.132 67.2037 6.936 67.6837 7.968C68.1717 8.992 68.4157 10.172 68.4157 11.508C68.4157 12.868 68.1717 14.064 67.6837 15.096C67.1957 16.12 66.4917 16.92 65.5717 17.496C64.6517 18.072 63.5517 18.36 62.2717 18.36ZM62.2717 16.668C63.7117 16.668 64.7837 16.192 65.4877 15.24C66.1917 14.28 66.5437 13.036 66.5437 11.508C66.5437 9.94 66.1877 8.692 65.4757 7.764C64.7717 6.836 63.7037 6.372 62.2717 6.372C61.3037 6.372 60.5037 6.592 59.8717 7.032C59.2477 7.464 58.7797 8.068 58.4677 8.844C58.1637 9.612 58.0117 10.5 58.0117 11.508C58.0117 13.068 58.3717 14.32 59.0917 15.264C59.8117 16.2 60.8717 16.668 62.2717 16.668ZM76.8828 18.36C75.6908 18.36 74.6828 18.06 73.8588 17.46C73.0348 16.852 72.4108 16.032 71.9868 15C71.5628 13.96 71.3508 12.796 71.3508 11.508C71.3508 10.196 71.5628 9.028 71.9868 8.004C72.4188 6.972 73.0508 6.16 73.8828 5.568C74.7148 4.976 75.7388 4.68 76.9548 4.68C78.1388 4.68 79.1548 4.98 80.0028 5.58C80.8508 6.18 81.4988 6.996 81.9468 8.028C82.4028 9.06 82.6308 10.22 82.6308 11.508C82.6308 12.804 82.4028 13.968 81.9468 15C81.4908 16.032 80.8348 16.852 79.9788 17.46C79.1228 18.06 78.0908 18.36 76.8828 18.36ZM71.0508 23.76V5.04H72.6348V14.796H72.8268V23.76H71.0508ZM76.7028 16.716C77.6068 16.716 78.3588 16.488 78.9588 16.032C79.5588 15.576 80.0068 14.956 80.3028 14.172C80.6068 13.38 80.7588 12.492 80.7588 11.508C80.7588 10.532 80.6108 9.652 80.3148 8.868C80.0188 8.084 79.5668 7.464 78.9588 7.008C78.3588 6.552 77.5948 6.324 76.6668 6.324C75.7628 6.324 75.0108 6.544 74.4108 6.984C73.8188 7.424 73.3748 8.036 73.0788 8.82C72.7828 9.596 72.6348 10.492 72.6348 11.508C72.6348 12.508 72.7828 13.404 73.0788 14.196C73.3748 14.98 73.8228 15.596 74.4228 16.044C75.0228 16.492 75.7828 16.716 76.7028 16.716ZM90.7499 18.36C89.4859 18.36 88.3899 18.08 87.4619 17.52C86.5419 16.96 85.8259 16.172 85.3139 15.156C84.8019 14.14 84.5459 12.948 84.5459 11.58C84.5459 10.164 84.7979 8.94 85.3019 7.908C85.8059 6.876 86.5139 6.08 87.4259 5.52C88.3459 4.96 89.4299 4.68 90.6779 4.68C91.9579 4.68 93.0499 4.976 93.9539 5.568C94.8579 6.152 95.5419 6.992 96.0059 8.088C96.4699 9.184 96.6819 10.492 96.6419 12.012H94.8419V11.388C94.8099 9.708 94.4459 8.44 93.7499 7.584C93.0619 6.728 92.0539 6.3 90.7259 6.3C89.3339 6.3 88.2659 6.752 87.5219 7.656C86.7859 8.56 86.4179 9.848 86.4179 11.52C86.4179 13.152 86.7859 14.42 87.5219 15.324C88.2659 16.22 89.3179 16.668 90.6779 16.668C91.6059 16.668 92.4139 16.456 93.1019 16.032C93.7979 15.6 94.3459 14.98 94.7459 14.172L96.3899 14.808C95.8779 15.936 95.1219 16.812 94.1219 17.436C93.1299 18.052 92.0059 18.36 90.7499 18.36ZM85.7939 12.012V10.536H95.6939V12.012H85.7939Z" fill="#111827"/>
</svg>
