<svg width="131" height="18" viewBox="0 0 131 18" fill="none" xmlns="http://www.w3.org/2000/svg">
<path d="M18.184 0.199999V17H16.48V3.56L9.88 14.864H9.04L2.44 3.632V17H0.736V0.199999H2.2L9.496 12.656L16.72 0.199999H18.184ZM28.4579 17.12C27.2419 17.12 26.1459 16.848 25.1699 16.304C24.1939 15.744 23.4259 14.976 22.8659 14C22.3059 13.024 22.0259 11.92 22.0259 10.688C22.0259 9.456 22.3059 8.352 22.8659 7.376C23.4259 6.4 24.1939 5.64 25.1699 5.096C26.1459 4.552 27.2419 4.28 28.4579 4.28C29.6739 4.28 30.7699 4.552 31.7459 5.096C32.7219 5.64 33.4819 6.4 34.0259 7.376C34.5859 8.352 34.8659 9.456 34.8659 10.688C34.8659 11.92 34.5859 13.024 34.0259 14C33.4819 14.976 32.7219 15.744 31.7459 16.304C30.7699 16.848 29.6739 17.12 28.4579 17.12ZM28.4579 15.608C29.3539 15.608 30.1539 15.408 30.8579 15.008C31.5779 14.592 32.1379 14.008 32.5379 13.256C32.9379 12.504 33.1379 11.648 33.1379 10.688C33.1379 9.728 32.9379 8.872 32.5379 8.12C32.1379 7.368 31.5779 6.792 30.8579 6.392C30.1539 5.976 29.3539 5.768 28.4579 5.768C27.5619 5.768 26.7539 5.976 26.0339 6.392C25.3299 6.792 24.7699 7.368 24.3539 8.12C23.9539 8.872 23.7539 9.728 23.7539 10.688C23.7539 11.648 23.9539 12.504 24.3539 13.256C24.7699 14.008 25.3299 14.592 26.0339 15.008C26.7539 15.408 27.5619 15.608 28.4579 15.608ZM44.7768 4.28C46.3608 4.28 47.6168 4.744 48.5448 5.672C49.4888 6.584 49.9608 7.92 49.9608 9.68V17H48.2568V9.848C48.2568 8.536 47.9288 7.536 47.2728 6.848C46.6168 6.16 45.6808 5.816 44.4648 5.816C43.1048 5.816 42.0248 6.224 41.2248 7.04C40.4408 7.84 40.0488 8.952 40.0488 10.376V17H38.3448V4.376H39.9768V6.704C40.4408 5.936 41.0808 5.344 41.8968 4.928C42.7288 4.496 43.6888 4.28 44.7768 4.28ZM61.2349 16.232C60.9149 16.52 60.5149 16.744 60.0349 16.904C59.5709 17.048 59.0829 17.12 58.5709 17.12C57.3869 17.12 56.4749 16.8 55.8349 16.16C55.1949 15.52 54.8749 14.616 54.8749 13.448V5.816H52.6189V4.376H54.8749V1.616H56.5789V4.376H60.4189V5.816H56.5789V13.352C56.5789 14.104 56.7629 14.68 57.1309 15.08C57.5149 15.464 58.0589 15.656 58.7629 15.656C59.1149 15.656 59.4509 15.6 59.7709 15.488C60.1069 15.376 60.3949 15.216 60.6349 15.008L61.2349 16.232ZM67.7209 17.12C66.6969 17.12 65.7129 16.976 64.7689 16.688C63.8409 16.384 63.1129 16.008 62.5849 15.56L63.3529 14.216C63.8809 14.632 64.5449 14.976 65.3449 15.248C66.1449 15.504 66.9769 15.632 67.8409 15.632C68.9929 15.632 69.8409 15.456 70.3849 15.104C70.9449 14.736 71.2249 14.224 71.2249 13.568C71.2249 13.104 71.0729 12.744 70.7689 12.488C70.4649 12.216 70.0809 12.016 69.6169 11.888C69.1529 11.744 68.5369 11.608 67.7689 11.48C66.7449 11.288 65.9209 11.096 65.2969 10.904C64.6729 10.696 64.1369 10.352 63.6889 9.872C63.2569 9.392 63.0409 8.728 63.0409 7.88C63.0409 6.824 63.4809 5.96 64.3609 5.288C65.2409 4.616 66.4649 4.28 68.0329 4.28C68.8489 4.28 69.6649 4.392 70.4809 4.616C71.2969 4.824 71.9689 5.104 72.4969 5.456L71.7529 6.824C70.7129 6.104 69.4729 5.744 68.0329 5.744C66.9449 5.744 66.1209 5.936 65.5609 6.32C65.0169 6.704 64.7449 7.208 64.7449 7.832C64.7449 8.312 64.8969 8.696 65.2009 8.984C65.5209 9.272 65.9129 9.488 66.3769 9.632C66.8409 9.76 67.4809 9.896 68.2969 10.04C69.3049 10.232 70.1129 10.424 70.7209 10.616C71.3289 10.808 71.8489 11.136 72.2809 11.6C72.7129 12.064 72.9289 12.704 72.9289 13.52C72.9289 14.624 72.4649 15.504 71.5369 16.16C70.6249 16.8 69.3529 17.12 67.7209 17.12ZM87.0711 11.216H76.5111C76.6071 12.528 77.1111 13.592 78.0231 14.408C78.9351 15.208 80.0871 15.608 81.4791 15.608C82.2631 15.608 82.9831 15.472 83.6391 15.2C84.2951 14.912 84.8631 14.496 85.3431 13.952L86.3031 15.056C85.7431 15.728 85.0391 16.24 84.1911 16.592C83.3591 16.944 82.4391 17.12 81.4311 17.12C80.1351 17.12 78.9831 16.848 77.9751 16.304C76.9831 15.744 76.2071 14.976 75.6471 14C75.0871 13.024 74.8071 11.92 74.8071 10.688C74.8071 9.456 75.0711 8.352 75.5991 7.376C76.1431 6.4 76.8791 5.64 77.8071 5.096C78.7511 4.552 79.8071 4.28 80.9751 4.28C82.1431 4.28 83.1911 4.552 84.1191 5.096C85.0471 5.64 85.7751 6.4 86.3031 7.376C86.8311 8.336 87.0951 9.44 87.0951 10.688L87.0711 11.216ZM80.9751 5.744C79.7591 5.744 78.7351 6.136 77.9031 6.92C77.0871 7.688 76.6231 8.696 76.5111 9.944H85.4631C85.3511 8.696 84.8791 7.688 84.0471 6.92C83.2311 6.136 82.2071 5.744 80.9751 5.744ZM92.1955 6.848C92.5955 6 93.1875 5.36 93.9715 4.928C94.7715 4.496 95.7555 4.28 96.9235 4.28V5.936L96.5155 5.912C95.1875 5.912 94.1475 6.32 93.3955 7.136C92.6435 7.952 92.2675 9.096 92.2675 10.568V17H90.5635V4.376H92.1955V6.848ZM101.641 6.848C102.041 6 102.633 5.36 103.417 4.928C104.217 4.496 105.201 4.28 106.369 4.28V5.936L105.961 5.912C104.633 5.912 103.593 6.32 102.841 7.136C102.089 7.952 101.713 9.096 101.713 10.568V17H100.009V4.376H101.641V6.848ZM113.847 4.28C115.495 4.28 116.759 4.696 117.639 5.528C118.519 6.344 118.959 7.56 118.959 9.176V17H117.327V15.032C116.943 15.688 116.375 16.2 115.623 16.568C114.887 16.936 114.007 17.12 112.983 17.12C111.575 17.12 110.455 16.784 109.623 16.112C108.791 15.44 108.375 14.552 108.375 13.448C108.375 12.376 108.759 11.512 109.527 10.856C110.311 10.2 111.551 9.872 113.247 9.872H117.255V9.104C117.255 8.016 116.951 7.192 116.343 6.632C115.735 6.056 114.847 5.768 113.679 5.768C112.879 5.768 112.111 5.904 111.375 6.176C110.639 6.432 110.007 6.792 109.479 7.256L108.711 5.984C109.351 5.44 110.119 5.024 111.015 4.736C111.911 4.432 112.855 4.28 113.847 4.28ZM113.247 15.776C114.207 15.776 115.031 15.56 115.719 15.128C116.407 14.68 116.919 14.04 117.255 13.208V11.144H113.295C111.135 11.144 110.055 11.896 110.055 13.4C110.055 14.136 110.335 14.72 110.895 15.152C111.455 15.568 112.239 15.776 113.247 15.776ZM130.235 16.232C129.915 16.52 129.515 16.744 129.035 16.904C128.571 17.048 128.083 17.12 127.571 17.12C126.387 17.12 125.475 16.8 124.835 16.16C124.195 15.52 123.875 14.616 123.875 13.448V5.816H121.619V4.376H123.875V1.616H125.579V4.376H129.419V5.816H125.579V13.352C125.579 14.104 125.763 14.68 126.131 15.08C126.515 15.464 127.059 15.656 127.763 15.656C128.115 15.656 128.451 15.6 128.771 15.488C129.107 15.376 129.395 15.216 129.635 15.008L130.235 16.232Z" fill="#111827"/>
</svg>
