<svg width="69" height="19" viewBox="0 0 69 19" fill="none" xmlns="http://www.w3.org/2000/svg">
<path d="M1.024 18.168C0.4 18.168 0.0880001 17.84 0.0880001 17.184V1.92C0.0880001 1.248 0.376 0.912 0.952 0.912C1.192 0.912 1.376 0.96 1.504 1.056C1.632 1.136 1.776 1.288 1.936 1.512L11.824 14.688V1.872C11.824 1.232 12.136 0.912 12.76 0.912C13.352 0.912 13.648 1.232 13.648 1.872V17.208C13.648 17.848 13.384 18.168 12.856 18.168C12.616 18.168 12.424 18.12 12.28 18.024C12.136 17.928 11.984 17.776 11.824 17.568L1.936 4.344V17.184C1.936 17.84 1.632 18.168 1.024 18.168ZM21.7176 18.216C18.9176 18.216 17.5176 16.672 17.5176 13.584V7.152C17.5176 6.496 17.8376 6.168 18.4776 6.168C19.1336 6.168 19.4616 6.496 19.4616 7.152V13.56C19.4616 14.6 19.6696 15.368 20.0856 15.864C20.5176 16.36 21.1896 16.608 22.1016 16.608C23.0936 16.608 23.9016 16.28 24.5256 15.624C25.1496 14.952 25.4616 14.064 25.4616 12.96V7.152C25.4616 6.496 25.7896 6.168 26.4456 6.168C27.0856 6.168 27.4056 6.496 27.4056 7.152V17.16C27.4056 17.832 27.0936 18.168 26.4696 18.168C25.8296 18.168 25.5096 17.832 25.5096 17.16V16.032C25.1416 16.736 24.6216 17.28 23.9496 17.664C23.2936 18.032 22.5496 18.216 21.7176 18.216ZM32.0028 18.168C31.3628 18.168 31.0428 17.832 31.0428 17.16V7.152C31.0428 6.496 31.3548 6.168 31.9788 6.168C32.6188 6.168 32.9388 6.496 32.9388 7.152V8.328C33.3228 7.592 33.8668 7.04 34.5708 6.672C35.2748 6.304 36.0668 6.12 36.9468 6.12C39.7148 6.12 41.0988 7.656 41.0988 10.728V17.16C41.0988 17.832 40.7788 18.168 40.1388 18.168C39.4828 18.168 39.1548 17.832 39.1548 17.16V10.848C39.1548 9.76 38.9388 8.968 38.5068 8.472C38.0908 7.96 37.4188 7.704 36.4908 7.704C35.4188 7.704 34.5628 8.04 33.9228 8.712C33.2988 9.368 32.9868 10.248 32.9868 11.352V17.16C32.9868 17.832 32.6588 18.168 32.0028 18.168ZM45.6434 3.528C44.7954 3.528 44.3714 3.128 44.3714 2.328C44.3714 1.544 44.7954 1.152 45.6434 1.152C46.4914 1.152 46.9154 1.544 46.9154 2.328C46.9154 3.128 46.4914 3.528 45.6434 3.528ZM45.6434 18.12C45.0034 18.12 44.6834 17.768 44.6834 17.064V7.248C44.6834 6.56 45.0034 6.216 45.6434 6.216C46.2994 6.216 46.6274 6.56 46.6274 7.248V17.064C46.6274 17.768 46.2994 18.12 45.6434 18.12ZM54.9415 18.216C53.5655 18.216 52.5335 17.856 51.8455 17.136C51.1575 16.4 50.8135 15.344 50.8135 13.968V7.848H49.2055C48.6455 7.848 48.3655 7.592 48.3655 7.08C48.3655 6.584 48.6455 6.336 49.2055 6.336H50.8135V3.576C50.8135 2.92 51.1415 2.592 51.7975 2.592C52.4375 2.592 52.7575 2.92 52.7575 3.576V6.336H55.7815C56.3415 6.336 56.6215 6.584 56.6215 7.08C56.6215 7.592 56.3415 7.848 55.7815 7.848H52.7575V13.776C52.7575 14.688 52.9495 15.384 53.3335 15.864C53.7175 16.328 54.3415 16.56 55.2055 16.56C55.5095 16.56 55.7655 16.528 55.9735 16.464C56.1815 16.4 56.3655 16.368 56.5255 16.368C56.6695 16.352 56.7895 16.4 56.8855 16.512C56.9815 16.624 57.0295 16.816 57.0295 17.088C57.0295 17.28 56.9895 17.456 56.9095 17.616C56.8455 17.776 56.7255 17.888 56.5495 17.952C56.3575 18.016 56.1015 18.072 55.7815 18.12C55.4775 18.184 55.1975 18.216 54.9415 18.216ZM63.3829 18.216C62.2469 18.216 61.2629 17.968 60.4309 17.472C59.5989 16.976 58.9509 16.28 58.4869 15.384C58.0389 14.472 57.8149 13.4 57.8149 12.168C57.8149 10.936 58.0389 9.872 58.4869 8.976C58.9509 8.064 59.5989 7.36 60.4309 6.864C61.2629 6.368 62.2469 6.12 63.3829 6.12C64.5029 6.12 65.4789 6.368 66.3109 6.864C67.1589 7.36 67.8069 8.064 68.2549 8.976C68.7189 9.872 68.9509 10.936 68.9509 12.168C68.9509 13.4 68.7189 14.472 68.2549 15.384C67.8069 16.28 67.1589 16.976 66.3109 17.472C65.4789 17.968 64.5029 18.216 63.3829 18.216ZM63.3829 16.656C64.4709 16.656 65.3429 16.272 65.9989 15.504C66.6549 14.72 66.9829 13.608 66.9829 12.168C66.9829 10.712 66.6549 9.6 65.9989 8.832C65.3429 8.064 64.4709 7.68 63.3829 7.68C62.2789 7.68 61.3989 8.064 60.7429 8.832C60.1029 9.6 59.7829 10.712 59.7829 12.168C59.7829 13.608 60.1029 14.72 60.7429 15.504C61.3989 16.272 62.2789 16.656 63.3829 16.656Z" fill="#111827"/>
</svg>
