<svg width="177" height="19" viewBox="0 0 177 19" fill="none" xmlns="http://www.w3.org/2000/svg">
<path d="M7.64 18.432C6.296 18.432 5.096 18.008 4.04 17.16C2.984 16.312 2.16 15.2 1.568 13.824C0.976 12.432 0.68 10.976 0.68 9.456C0.68 7.936 0.976 6.488 1.568 5.112C2.16 3.72 2.984 2.6 4.04 1.752C5.096 0.903999 6.296 0.48 7.64 0.48C8.984 0.48 10.184 0.903999 11.24 1.752C12.296 2.6 13.12 3.72 13.712 5.112C14.304 6.488 14.6 7.936 14.6 9.456C14.6 10.976 14.304 12.432 13.712 13.824C13.12 15.2 12.296 16.312 11.24 17.16C10.184 18.008 8.984 18.432 7.64 18.432ZM7.64 17.664C9.208 17.664 10.336 16.952 11.024 15.528C11.712 14.088 12.056 12.064 12.056 9.456C12.056 6.832 11.712 4.808 11.024 3.384C10.336 1.96 9.208 1.248 7.64 1.248C6.072 1.248 4.944 1.96 4.256 3.384C3.568 4.808 3.224 6.832 3.224 9.456C3.224 12.064 3.568 14.088 4.256 15.528C4.944 16.952 6.072 17.664 7.64 17.664ZM16.4767 17.424H17.7247C17.9167 17.424 18.0527 17.384 18.1327 17.304C18.2127 17.224 18.2527 17.088 18.2527 16.896V2.016C18.2527 1.824 18.2127 1.688 18.1327 1.608C18.0527 1.528 17.9167 1.488 17.7247 1.488H16.4767V0.912H19.9807V16.896C19.9807 17.088 20.0207 17.224 20.1007 17.304C20.1807 17.384 20.3167 17.424 20.5087 17.424H21.7567V18H16.4767V17.424ZM27.6494 18.288C26.8974 18.288 26.1934 18.04 25.5374 17.544C24.8974 17.032 24.3854 16.336 24.0014 15.456C23.6174 14.576 23.4254 13.6 23.4254 12.528C23.4254 11.456 23.6174 10.48 24.0014 9.6C24.3854 8.72 24.8974 8.032 25.5374 7.536C26.1934 7.024 26.8974 6.768 27.6494 6.768C28.2734 6.768 28.8334 6.976 29.3294 7.392C29.8254 7.792 30.1934 8.28 30.4334 8.856L30.5294 8.832V2.016C30.5294 1.824 30.4894 1.688 30.4094 1.608C30.3294 1.528 30.1934 1.488 30.0014 1.488H28.2734V0.912H32.2574V16.896C32.2574 17.088 32.2974 17.224 32.3774 17.304C32.4574 17.384 32.5934 17.424 32.7854 17.424H34.0334V18H30.5294V16.224L30.4334 16.2C30.1294 16.84 29.7374 17.352 29.2574 17.736C28.7934 18.104 28.2574 18.288 27.6494 18.288ZM27.9134 17.616C28.3934 17.616 28.8334 17.44 29.2334 17.088C29.6334 16.736 29.9454 16.256 30.1694 15.648C30.4094 15.024 30.5294 14.352 30.5294 13.632V11.424C30.5294 10.704 30.4094 10.04 30.1694 9.432C29.9454 8.808 29.6334 8.32 29.2334 7.968C28.8334 7.616 28.3934 7.44 27.9134 7.44C27.1294 7.44 26.5374 7.88 26.1374 8.76C25.7374 9.64 25.5374 10.896 25.5374 12.528C25.5374 14.16 25.7374 15.416 26.1374 16.296C26.5374 17.176 27.1294 17.616 27.9134 17.616ZM49.9631 18.432C49.2911 18.432 48.6271 18.288 47.9711 18C47.3311 17.696 46.7711 17.368 46.2911 17.016C45.6191 16.504 45.2191 16.248 45.0911 16.248C44.7711 16.248 44.5631 16.592 44.4671 17.28L44.3711 18.24H43.8191L43.6511 10.656H44.2271C44.3231 11.84 44.6511 12.976 45.2111 14.064C45.7871 15.136 46.4991 16.008 47.3471 16.68C48.1951 17.336 49.0671 17.664 49.9631 17.664C51.2751 17.664 52.2271 17.344 52.8191 16.704C53.4271 16.064 53.7311 15.296 53.7311 14.4C53.7311 13.616 53.4991 13 53.0351 12.552C52.5871 12.104 51.9231 11.704 51.0431 11.352L47.3951 9.888C46.1311 9.376 45.1951 8.72 44.5871 7.92C43.9951 7.104 43.6991 6.128 43.6991 4.992C43.6991 3.456 44.1471 2.32 45.0431 1.584C45.9391 0.848 47.0591 0.48 48.4031 0.48C49.4591 0.48 50.6271 0.96 51.9071 1.92C52.0671 2.032 52.2271 2.136 52.3871 2.232C52.5471 2.312 52.6911 2.352 52.8191 2.352C53.0911 2.352 53.2511 2.16 53.2991 1.776L53.3951 0.912H53.9711L54.2111 7.152H53.6351C53.3791 6 52.9711 4.976 52.4111 4.08C51.8671 3.184 51.2271 2.488 50.4911 1.992C49.7551 1.496 48.9951 1.248 48.2111 1.248C47.3151 1.248 46.5791 1.544 46.0031 2.136C45.4271 2.712 45.1391 3.52 45.1391 4.56C45.1391 5.28 45.3231 5.84 45.6911 6.24C46.0591 6.64 46.6031 6.984 47.3231 7.272L51.9551 9.12C53.0271 9.552 53.8271 10.168 54.3551 10.968C54.8991 11.768 55.1711 12.608 55.1711 13.488C55.1711 14.336 54.9791 15.136 54.5951 15.888C54.2271 16.64 53.6511 17.256 52.8671 17.736C52.0991 18.2 51.1311 18.432 49.9631 18.432ZM61.3659 18.288C60.6459 18.288 60.0459 18.032 59.5659 17.52C59.1019 17.008 58.8699 16.312 58.8699 15.432V7.728H57.0939V7.056H57.6219C58.3419 7.056 58.9019 6.672 59.3019 5.904C59.7179 5.12 59.9259 4.256 59.9259 3.312V2.448H60.5979V7.056H63.5739V7.728H60.5979V15.552C60.5979 16.032 60.6939 16.432 60.8859 16.752C61.0779 17.072 61.4059 17.232 61.8699 17.232C63.0059 17.232 63.5739 16.272 63.5739 14.352H64.0059C64.0059 15.424 63.8459 16.352 63.5259 17.136C63.2219 17.904 62.5019 18.288 61.3659 18.288ZM69.0365 18.288C68.1885 18.288 67.4525 18.08 66.8285 17.664C66.2205 17.248 65.9165 16.512 65.9165 15.456C65.9165 14.64 66.1245 14 66.5405 13.536C66.9565 13.072 67.4365 12.744 67.9805 12.552C68.5405 12.344 69.2125 12.168 69.9965 12.024L72.2045 11.616V9.576C72.2045 8.088 71.4605 7.344 69.9725 7.344C69.4285 7.344 68.9325 7.488 68.4845 7.776C68.0365 8.048 67.8125 8.36 67.8125 8.712C67.8125 8.872 67.8365 8.992 67.8845 9.072C67.9165 9.12 67.9645 9.168 68.0285 9.216C68.1085 9.264 68.1805 9.296 68.2445 9.312C68.5325 9.392 68.7485 9.504 68.8925 9.648C69.0525 9.792 69.1325 9.992 69.1325 10.248C69.1325 10.584 69.0285 10.824 68.8205 10.968C68.6285 11.112 68.3805 11.184 68.0765 11.184C67.7245 11.184 67.4045 11.048 67.1165 10.776C66.8285 10.504 66.6845 10.112 66.6845 9.6C66.6845 9.008 66.8445 8.496 67.1645 8.064C67.5005 7.632 67.9245 7.312 68.4365 7.104C68.9645 6.88 69.5005 6.768 70.0445 6.768C71.1005 6.768 72.0125 7.048 72.7805 7.608C73.5485 8.152 73.9325 9.008 73.9325 10.176V16.08C73.9325 16.88 74.1805 17.28 74.6765 17.28C75.0765 17.28 75.3645 17.048 75.5405 16.584C75.7165 16.12 75.8045 15.552 75.8045 14.88H76.2365C76.2365 15.84 76.0925 16.648 75.8045 17.304C75.5325 17.96 75.0365 18.288 74.3165 18.288C73.6285 18.288 73.1085 18.088 72.7565 17.688C72.4205 17.272 72.2365 16.704 72.2045 15.984L72.0845 15.936C71.8445 16.496 71.4525 17.032 70.9085 17.544C70.3805 18.04 69.7565 18.288 69.0365 18.288ZM69.4205 17.424C70.1405 17.424 70.7005 17.144 71.1005 16.584C71.5165 16.008 71.8845 15.28 72.2045 14.4V12.12L70.1165 12.576C69.3485 12.736 68.7885 13.056 68.4365 13.536C68.1005 14 67.9325 14.664 67.9325 15.528C67.9325 16.264 68.0845 16.768 68.3885 17.04C68.6925 17.296 69.0365 17.424 69.4205 17.424ZM77.5839 17.424H78.5919C78.7839 17.424 78.9199 17.384 78.9999 17.304C79.0799 17.224 79.1199 17.088 79.1199 16.896V8.16C79.1199 7.968 79.0799 7.832 78.9999 7.752C78.9199 7.672 78.7839 7.632 78.5919 7.632H77.5839V7.056H80.8479V9.024L80.9439 9.048C81.3119 8.28 81.7679 7.712 82.3119 7.344C82.8559 6.96 83.4559 6.768 84.1119 6.768C85.2799 6.768 86.1039 7.128 86.5839 7.848C87.0799 8.568 87.3279 9.432 87.3279 10.44V16.896C87.3279 17.088 87.3679 17.224 87.4479 17.304C87.5279 17.384 87.6639 17.424 87.8559 17.424H88.8639V18H84.0639V17.424H85.0719C85.2639 17.424 85.3999 17.384 85.4799 17.304C85.5599 17.224 85.5999 17.088 85.5999 16.896V9.984C85.5999 9.28 85.4559 8.68 85.1679 8.184C84.8959 7.688 84.4239 7.44 83.7519 7.44C83.1919 7.44 82.6879 7.64 82.2399 8.04C81.8079 8.424 81.4639 8.96 81.2079 9.648C80.9679 10.32 80.8479 11.072 80.8479 11.904V16.896C80.8479 17.088 80.8879 17.224 80.9679 17.304C81.0479 17.384 81.1839 17.424 81.3759 17.424H82.3839V18H77.5839V17.424ZM95.0088 18.288C94.2568 18.288 93.5528 18.04 92.8968 17.544C92.2568 17.032 91.7448 16.336 91.3608 15.456C90.9768 14.576 90.7848 13.6 90.7848 12.528C90.7848 11.456 90.9768 10.48 91.3608 9.6C91.7448 8.72 92.2568 8.032 92.8968 7.536C93.5528 7.024 94.2568 6.768 95.0088 6.768C95.6328 6.768 96.1928 6.976 96.6888 7.392C97.1848 7.792 97.5528 8.28 97.7928 8.856L97.8888 8.832V2.016C97.8888 1.824 97.8488 1.688 97.7688 1.608C97.6888 1.528 97.5528 1.488 97.3608 1.488H95.6328V0.912H99.6168V16.896C99.6168 17.088 99.6568 17.224 99.7368 17.304C99.8168 17.384 99.9528 17.424 100.145 17.424H101.393V18H97.8888V16.224L97.7928 16.2C97.4888 16.84 97.0968 17.352 96.6168 17.736C96.1528 18.104 95.6168 18.288 95.0088 18.288ZM95.2728 17.616C95.7528 17.616 96.1928 17.44 96.5928 17.088C96.9928 16.736 97.3048 16.256 97.5288 15.648C97.7688 15.024 97.8888 14.352 97.8888 13.632V11.424C97.8888 10.704 97.7688 10.04 97.5288 9.432C97.3048 8.808 96.9928 8.32 96.5928 7.968C96.1928 7.616 95.7528 7.44 95.2728 7.44C94.4888 7.44 93.8968 7.88 93.4968 8.76C93.0968 9.64 92.8968 10.896 92.8968 12.528C92.8968 14.16 93.0968 15.416 93.4968 16.296C93.8968 17.176 94.4888 17.616 95.2728 17.616ZM106.396 18.288C105.548 18.288 104.812 18.08 104.188 17.664C103.58 17.248 103.276 16.512 103.276 15.456C103.276 14.64 103.484 14 103.9 13.536C104.316 13.072 104.796 12.744 105.34 12.552C105.9 12.344 106.572 12.168 107.356 12.024L109.564 11.616V9.576C109.564 8.088 108.82 7.344 107.332 7.344C106.788 7.344 106.292 7.488 105.844 7.776C105.396 8.048 105.172 8.36 105.172 8.712C105.172 8.872 105.196 8.992 105.244 9.072C105.276 9.12 105.324 9.168 105.388 9.216C105.468 9.264 105.54 9.296 105.604 9.312C105.892 9.392 106.108 9.504 106.252 9.648C106.412 9.792 106.492 9.992 106.492 10.248C106.492 10.584 106.388 10.824 106.18 10.968C105.988 11.112 105.74 11.184 105.436 11.184C105.084 11.184 104.764 11.048 104.476 10.776C104.188 10.504 104.044 10.112 104.044 9.6C104.044 9.008 104.204 8.496 104.524 8.064C104.86 7.632 105.284 7.312 105.796 7.104C106.324 6.88 106.86 6.768 107.404 6.768C108.46 6.768 109.372 7.048 110.14 7.608C110.908 8.152 111.292 9.008 111.292 10.176V16.08C111.292 16.88 111.54 17.28 112.036 17.28C112.436 17.28 112.724 17.048 112.9 16.584C113.076 16.12 113.164 15.552 113.164 14.88H113.596C113.596 15.84 113.452 16.648 113.164 17.304C112.892 17.96 112.396 18.288 111.676 18.288C110.988 18.288 110.468 18.088 110.116 17.688C109.78 17.272 109.596 16.704 109.564 15.984L109.444 15.936C109.204 16.496 108.812 17.032 108.268 17.544C107.74 18.04 107.116 18.288 106.396 18.288ZM106.78 17.424C107.5 17.424 108.06 17.144 108.46 16.584C108.876 16.008 109.244 15.28 109.564 14.4V12.12L107.476 12.576C106.708 12.736 106.148 13.056 105.796 13.536C105.46 14 105.292 14.664 105.292 15.528C105.292 16.264 105.444 16.768 105.748 17.04C106.052 17.296 106.396 17.424 106.78 17.424ZM114.943 17.424H115.951C116.143 17.424 116.279 17.384 116.359 17.304C116.439 17.224 116.479 17.088 116.479 16.896V8.16C116.479 7.968 116.439 7.832 116.359 7.752C116.279 7.672 116.143 7.632 115.951 7.632H114.943V7.056H118.207V9.456L118.303 9.48C118.639 8.648 119.071 7.992 119.599 7.512C120.143 7.016 120.719 6.768 121.327 6.768C121.935 6.768 122.431 6.944 122.815 7.296C123.199 7.648 123.391 8.128 123.391 8.736C123.391 9.088 123.263 9.432 123.007 9.768C122.767 10.104 122.455 10.272 122.071 10.272C121.767 10.272 121.511 10.192 121.303 10.032C121.095 9.872 120.991 9.648 120.991 9.36C120.991 9.024 121.151 8.736 121.471 8.496C121.615 8.4 121.719 8.312 121.783 8.232C121.863 8.152 121.903 8.048 121.903 7.92C121.903 7.776 121.831 7.664 121.687 7.584C121.559 7.488 121.375 7.44 121.135 7.44C120.639 7.44 120.159 7.68 119.695 8.16C119.247 8.64 118.887 9.264 118.615 10.032C118.343 10.8 118.207 11.6 118.207 12.432V16.896C118.207 17.088 118.247 17.224 118.327 17.304C118.407 17.384 118.543 17.424 118.735 17.424H119.743V18H114.943V17.424ZM129.251 18.288C128.499 18.288 127.795 18.04 127.139 17.544C126.499 17.032 125.987 16.336 125.603 15.456C125.219 14.576 125.027 13.6 125.027 12.528C125.027 11.456 125.219 10.48 125.603 9.6C125.987 8.72 126.499 8.032 127.139 7.536C127.795 7.024 128.499 6.768 129.251 6.768C129.875 6.768 130.435 6.976 130.931 7.392C131.427 7.792 131.795 8.28 132.035 8.856L132.131 8.832V2.016C132.131 1.824 132.091 1.688 132.011 1.608C131.931 1.528 131.795 1.488 131.603 1.488H129.875V0.912H133.859V16.896C133.859 17.088 133.899 17.224 133.979 17.304C134.059 17.384 134.195 17.424 134.387 17.424H135.635V18H132.131V16.224L132.035 16.2C131.731 16.84 131.339 17.352 130.859 17.736C130.395 18.104 129.859 18.288 129.251 18.288ZM129.515 17.616C129.995 17.616 130.435 17.44 130.835 17.088C131.235 16.736 131.547 16.256 131.771 15.648C132.011 15.024 132.131 14.352 132.131 13.632V11.424C132.131 10.704 132.011 10.04 131.771 9.432C131.547 8.808 131.235 8.32 130.835 7.968C130.435 7.616 129.995 7.44 129.515 7.44C128.731 7.44 128.139 7.88 127.739 8.76C127.339 9.64 127.139 10.896 127.139 12.528C127.139 14.16 127.339 15.416 127.739 16.296C128.139 17.176 128.731 17.616 129.515 17.616ZM147.893 17.232H150.197C150.629 17.232 150.845 17.016 150.845 16.584V2.256C150.845 2.032 150.797 1.872 150.701 1.776C150.605 1.664 150.437 1.608 150.197 1.608H149.333C148.325 1.608 147.453 2.12 146.717 3.144C146.253 3.8 145.941 4.624 145.781 5.616C145.621 6.592 145.541 7.312 145.541 7.776H144.869L145.061 0.912H158.837L159.029 7.776H158.357C158.357 7.312 158.277 6.592 158.117 5.616C157.957 4.624 157.645 3.8 157.181 3.144C156.445 2.12 155.573 1.608 154.565 1.608H153.701C153.461 1.608 153.293 1.664 153.197 1.776C153.101 1.872 153.053 2.032 153.053 2.256V16.584C153.053 17.016 153.269 17.232 153.701 17.232H156.005V18H147.893V17.232ZM165.025 17.232H167.329C167.761 17.232 167.977 17.016 167.977 16.584V2.256C167.977 2.032 167.929 1.872 167.833 1.776C167.737 1.664 167.569 1.608 167.329 1.608H166.465C165.457 1.608 164.585 2.12 163.849 3.144C163.385 3.8 163.073 4.624 162.913 5.616C162.753 6.592 162.673 7.312 162.673 7.776H162.001L162.193 0.912H175.969L176.161 7.776H175.489C175.489 7.312 175.409 6.592 175.249 5.616C175.089 4.624 174.777 3.8 174.313 3.144C173.577 2.12 172.705 1.608 171.697 1.608H170.833C170.593 1.608 170.425 1.664 170.329 1.776C170.233 1.872 170.185 2.032 170.185 2.256V16.584C170.185 17.016 170.401 17.232 170.833 17.232H173.137V18H165.025V17.232Z" fill="#111827"/>
</svg>
