<svg width="119" height="24" viewBox="0 0 119 24" fill="none" xmlns="http://www.w3.org/2000/svg">
<path d="M16.2266 9.41016C16.2266 12.1523 15.5312 14.3086 14.1406 15.8789C12.7578 17.4492 10.832 18.2344 8.36328 18.2344C5.83984 18.2344 3.89062 17.4648 2.51562 15.9258C1.14844 14.3789 0.464844 12.1992 0.464844 9.38672C0.464844 6.59766 1.15234 4.4375 2.52734 2.90625C3.90234 1.36719 5.85547 0.597656 8.38672 0.597656C10.8477 0.597656 12.7695 1.37891 14.1523 2.94141C15.5352 4.50391 16.2266 6.66016 16.2266 9.41016ZM2.57422 9.41016C2.57422 11.7305 3.06641 13.4922 4.05078 14.6953C5.04297 15.8906 6.48047 16.4883 8.36328 16.4883C10.2617 16.4883 11.6953 15.8906 12.6641 14.6953C13.6328 13.5 14.1172 11.7383 14.1172 9.41016C14.1172 7.10547 13.6328 5.35938 12.6641 4.17188C11.7031 2.97656 10.2773 2.37891 8.38672 2.37891C6.48828 2.37891 5.04297 2.98047 4.05078 4.18359C3.06641 5.37891 2.57422 7.12109 2.57422 9.41016ZM25.7422 18.2344C24.9062 18.2344 24.1406 18.082 23.4453 17.7773C22.7578 17.4648 22.1797 16.9883 21.7109 16.3477H21.5703C21.6641 17.0977 21.7109 17.8086 21.7109 18.4805V23.7656H19.7656V5.15625H21.3477L21.6172 6.91406H21.7109C22.2109 6.21094 22.793 5.70312 23.457 5.39062C24.1211 5.07812 24.8828 4.92188 25.7422 4.92188C27.4453 4.92188 28.7578 5.50391 29.6797 6.66797C30.6094 7.83203 31.0742 9.46484 31.0742 11.5664C31.0742 13.6758 30.6016 15.3164 29.6562 16.4883C28.7188 17.6523 27.4141 18.2344 25.7422 18.2344ZM25.4609 6.57422C24.1484 6.57422 23.1992 6.9375 22.6133 7.66406C22.0273 8.39062 21.7266 9.54688 21.7109 11.1328V11.5664C21.7109 13.3711 22.0117 14.6641 22.6133 15.4453C23.2148 16.2188 24.1797 16.6055 25.5078 16.6055C26.6172 16.6055 27.4844 16.1562 28.1094 15.2578C28.7422 14.3594 29.0586 13.1211 29.0586 11.543C29.0586 9.94141 28.7422 8.71484 28.1094 7.86328C27.4844 7.00391 26.6016 6.57422 25.4609 6.57422ZM39.9102 18.2344C38.0117 18.2344 36.5117 17.6562 35.4102 16.5C34.3164 15.3438 33.7695 13.7383 33.7695 11.6836C33.7695 9.61328 34.2773 7.96875 35.293 6.75C36.3164 5.53125 37.6875 4.92188 39.4062 4.92188C41.0156 4.92188 42.2891 5.45312 43.2266 6.51562C44.1641 7.57031 44.6328 8.96484 44.6328 10.6992V11.9297H35.7852C35.8242 13.4375 36.2031 14.582 36.9219 15.3633C37.6484 16.1445 38.668 16.5352 39.9805 16.5352C41.3633 16.5352 42.7305 16.2461 44.082 15.668V17.4023C43.3945 17.6992 42.7422 17.9102 42.125 18.0352C41.5156 18.168 40.7773 18.2344 39.9102 18.2344ZM39.3828 6.55078C38.3516 6.55078 37.5273 6.88672 36.9102 7.55859C36.3008 8.23047 35.9414 9.16016 35.832 10.3477H42.5469C42.5469 9.12109 42.2734 8.18359 41.7266 7.53516C41.1797 6.87891 40.3984 6.55078 39.3828 6.55078ZM56.75 18V9.69141C56.75 8.64453 56.5117 7.86328 56.0352 7.34766C55.5586 6.83203 54.8125 6.57422 53.7969 6.57422C52.4531 6.57422 51.4688 6.9375 50.8438 7.66406C50.2188 8.39062 49.9062 9.58984 49.9062 11.2617V18H47.9609V5.15625H49.543L49.8594 6.91406H49.9531C50.3516 6.28125 50.9102 5.79297 51.6289 5.44922C52.3477 5.09766 53.1484 4.92188 54.0312 4.92188C55.5781 4.92188 56.7422 5.29688 57.5234 6.04688C58.3047 6.78906 58.6953 7.98047 58.6953 9.62109V18H56.75ZM78.8984 13.4414C78.8984 14.9492 78.3516 16.125 77.2578 16.9688C76.1641 17.8125 74.6797 18.2344 72.8047 18.2344C70.7734 18.2344 69.2109 17.9727 68.1172 17.4492V15.5273C68.8203 15.8242 69.5859 16.0586 70.4141 16.2305C71.2422 16.4023 72.0625 16.4883 72.875 16.4883C74.2031 16.4883 75.2031 16.2383 75.875 15.7383C76.5469 15.2305 76.8828 14.5273 76.8828 13.6289C76.8828 13.0352 76.7617 12.5508 76.5195 12.1758C76.2852 11.793 75.8867 11.4414 75.3242 11.1211C74.7695 10.8008 73.9219 10.4375 72.7812 10.0312C71.1875 9.46094 70.0469 8.78516 69.3594 8.00391C68.6797 7.22266 68.3398 6.20312 68.3398 4.94531C68.3398 3.625 68.8359 2.57422 69.8281 1.79297C70.8203 1.01172 72.1328 0.621094 73.7656 0.621094C75.4688 0.621094 77.0352 0.933594 78.4648 1.55859L77.8438 3.29297C76.4297 2.69922 75.0547 2.40234 73.7188 2.40234C72.6641 2.40234 71.8398 2.62891 71.2461 3.08203C70.6523 3.53516 70.3555 4.16406 70.3555 4.96875C70.3555 5.5625 70.4648 6.05078 70.6836 6.43359C70.9023 6.80859 71.2695 7.15625 71.7852 7.47656C72.3086 7.78906 73.1055 8.13672 74.1758 8.51953C75.9727 9.16016 77.207 9.84766 77.8789 10.582C78.5586 11.3164 78.8984 12.2695 78.8984 13.4414ZM90.0078 18L89.6211 16.1719H89.5273C88.8867 16.9766 88.2461 17.5234 87.6055 17.8125C86.9727 18.0938 86.1797 18.2344 85.2266 18.2344C83.9531 18.2344 82.9531 17.9062 82.2266 17.25C81.5078 16.5938 81.1484 15.6602 81.1484 14.4492C81.1484 11.8555 83.2227 10.4961 87.3711 10.3711L89.5508 10.3008V9.50391C89.5508 8.49609 89.332 7.75391 88.8945 7.27734C88.4648 6.79297 87.7734 6.55078 86.8203 6.55078C85.75 6.55078 84.5391 6.87891 83.1875 7.53516L82.5898 6.04688C83.2227 5.70312 83.9141 5.43359 84.6641 5.23828C85.4219 5.04297 86.1797 4.94531 86.9375 4.94531C88.4688 4.94531 89.6016 5.28516 90.3359 5.96484C91.0781 6.64453 91.4492 7.73438 91.4492 9.23438V18H90.0078ZM85.6133 16.6289C86.8242 16.6289 87.7734 16.2969 88.4609 15.6328C89.1562 14.9688 89.5039 14.0391 89.5039 12.8438V11.6836L87.5586 11.7656C86.0117 11.8203 84.8945 12.0625 84.207 12.4922C83.5273 12.9141 83.1875 13.5742 83.1875 14.4727C83.1875 15.1758 83.3984 15.7109 83.8203 16.0781C84.25 16.4453 84.8477 16.6289 85.6133 16.6289ZM104.258 18V9.69141C104.258 8.64453 104.02 7.86328 103.543 7.34766C103.066 6.83203 102.32 6.57422 101.305 6.57422C99.9609 6.57422 98.9766 6.9375 98.3516 7.66406C97.7266 8.39062 97.4141 9.58984 97.4141 11.2617V18H95.4688V5.15625H97.0508L97.3672 6.91406H97.4609C97.8594 6.28125 98.418 5.79297 99.1367 5.44922C99.8555 5.09766 100.656 4.92188 101.539 4.92188C103.086 4.92188 104.25 5.29688 105.031 6.04688C105.812 6.78906 106.203 7.98047 106.203 9.62109V18H104.258ZM118.496 14.4961C118.496 15.6914 118.051 16.6133 117.16 17.2617C116.27 17.9102 115.02 18.2344 113.41 18.2344C111.707 18.2344 110.379 17.9648 109.426 17.4258V15.6211C110.043 15.9336 110.703 16.1797 111.406 16.3594C112.117 16.5391 112.801 16.6289 113.457 16.6289C114.473 16.6289 115.254 16.4688 115.801 16.1484C116.348 15.8203 116.621 15.3242 116.621 14.6602C116.621 14.1602 116.402 13.7344 115.965 13.3828C115.535 13.0234 114.691 12.6016 113.434 12.1172C112.238 11.6719 111.387 11.2852 110.879 10.957C110.379 10.6211 110.004 10.2422 109.754 9.82031C109.512 9.39844 109.391 8.89453 109.391 8.30859C109.391 7.26172 109.816 6.4375 110.668 5.83594C111.52 5.22656 112.688 4.92188 114.172 4.92188C115.555 4.92188 116.906 5.20312 118.227 5.76562L117.535 7.34766C116.246 6.81641 115.078 6.55078 114.031 6.55078C113.109 6.55078 112.414 6.69531 111.945 6.98438C111.477 7.27344 111.242 7.67188 111.242 8.17969C111.242 8.52344 111.328 8.81641 111.5 9.05859C111.68 9.30078 111.965 9.53125 112.355 9.75C112.746 9.96875 113.496 10.2852 114.605 10.6992C116.129 11.2539 117.156 11.8125 117.688 12.375C118.227 12.9375 118.496 13.6445 118.496 14.4961Z" fill="#111827"/>
</svg>
