<svg width="61" height="21" viewBox="0 0 61 21" fill="none" xmlns="http://www.w3.org/2000/svg">
<path d="M5.48 20.216C4.168 20.216 3.12 19.96 2.336 19.448C1.552 18.936 0.992 18.208 0.656 17.264C0.32 16.304 0.152 15.184 0.152 13.904V6.536C0.152 5.256 0.32 4.16 0.656 3.248C1.008 2.32 1.568 1.616 2.336 1.136C3.12 0.639999 4.168 0.391999 5.48 0.391999C6.792 0.391999 7.832 0.639999 8.6 1.136C9.368 1.632 9.92 2.336 10.256 3.248C10.608 4.16 10.784 5.256 10.784 6.536V13.928C10.784 15.192 10.608 16.296 10.256 17.24C9.92 18.184 9.368 18.92 8.6 19.448C7.832 19.96 6.792 20.216 5.48 20.216ZM5.48 18.08C6.2 18.08 6.744 17.936 7.112 17.648C7.48 17.344 7.728 16.928 7.856 16.4C7.984 15.856 8.048 15.224 8.048 14.504V5.984C8.048 5.264 7.984 4.648 7.856 4.136C7.728 3.608 7.48 3.208 7.112 2.936C6.744 2.648 6.2 2.504 5.48 2.504C4.76 2.504 4.208 2.648 3.824 2.936C3.456 3.208 3.208 3.608 3.08 4.136C2.952 4.648 2.888 5.264 2.888 5.984V14.504C2.888 15.224 2.952 15.856 3.08 16.4C3.208 16.928 3.456 17.344 3.824 17.648C4.208 17.936 4.76 18.08 5.48 18.08ZM16.4495 20.192C15.3135 20.192 14.4015 19.84 13.7135 19.136C13.0255 18.416 12.6335 17.472 12.5375 16.304L14.6735 15.656C14.8015 16.536 15.0175 17.2 15.3215 17.648C15.6255 18.08 16.0735 18.296 16.6655 18.296C17.1295 18.296 17.4815 18.168 17.7215 17.912C17.9615 17.64 18.0815 17.28 18.0815 16.832C18.0815 16.432 17.9935 16.072 17.8175 15.752C17.6415 15.432 17.3535 15.104 16.9535 14.768L14.5775 12.728C14.0975 12.312 13.6895 11.848 13.3535 11.336C13.0335 10.824 12.8735 10.16 12.8735 9.344C12.8735 8.608 13.0175 7.992 13.3055 7.496C13.6095 6.984 14.0255 6.6 14.5535 6.344C15.0975 6.072 15.7295 5.936 16.4495 5.936C17.5535 5.936 18.3935 6.296 18.9695 7.016C19.5615 7.72 19.8975 8.576 19.9775 9.584L18.2495 10.232C18.1855 9.752 18.0895 9.336 17.9615 8.984C17.8335 8.616 17.6575 8.336 17.4335 8.144C17.2095 7.936 16.9135 7.832 16.5455 7.832C16.1295 7.832 15.7935 7.976 15.5375 8.264C15.2975 8.536 15.1775 8.864 15.1775 9.248C15.1775 9.488 15.2255 9.728 15.3215 9.968C15.4335 10.192 15.6175 10.416 15.8735 10.64L18.3215 12.896C18.6575 13.2 18.9695 13.528 19.2575 13.88C19.5615 14.232 19.8095 14.632 20.0015 15.08C20.1935 15.528 20.2895 16.048 20.2895 16.64C20.2895 17.424 20.1295 18.08 19.8095 18.608C19.4895 19.136 19.0415 19.536 18.4655 19.808C17.8895 20.064 17.2175 20.192 16.4495 20.192ZM23.8181 20L21.5861 6.128H23.6981L25.1381 16.352L26.9861 6.128H28.9541L30.8021 16.304L32.2421 6.128H34.3541L32.0501 20H29.8901L27.9941 10.208L26.1221 20H23.8181ZM38.8154 20.192C38.2714 20.192 37.7914 20.04 37.3754 19.736C36.9594 19.416 36.6314 19.016 36.3914 18.536C36.1514 18.04 36.0314 17.52 36.0314 16.976C36.0314 16.112 36.1754 15.384 36.4634 14.792C36.7514 14.2 37.1434 13.704 37.6394 13.304C38.1514 12.888 38.7354 12.528 39.3914 12.224C40.0634 11.92 40.7674 11.624 41.5034 11.336V10.352C41.5034 9.792 41.4714 9.328 41.4074 8.96C41.3434 8.592 41.2074 8.32 40.9994 8.144C40.8074 7.952 40.5114 7.856 40.1114 7.856C39.7594 7.856 39.4714 7.936 39.2474 8.096C39.0394 8.256 38.8874 8.488 38.7914 8.792C38.6954 9.08 38.6474 9.424 38.6474 9.824V10.52L36.1034 10.424C36.1354 8.888 36.4874 7.76 37.1594 7.04C37.8314 6.304 38.8714 5.936 40.2794 5.936C41.6554 5.936 42.6314 6.312 43.2074 7.064C43.7834 7.816 44.0714 8.904 44.0714 10.328V16.664C44.0714 17.096 44.0794 17.512 44.0954 17.912C44.1274 18.312 44.1594 18.688 44.1914 19.04C44.2394 19.376 44.2794 19.696 44.3114 20H41.9594C41.9114 19.744 41.8474 19.424 41.7674 19.04C41.7034 18.64 41.6554 18.28 41.6234 17.96C41.4634 18.504 41.1514 19.016 40.6874 19.496C40.2394 19.96 39.6154 20.192 38.8154 20.192ZM39.8234 17.984C40.0794 17.984 40.3194 17.912 40.5434 17.768C40.7674 17.624 40.9674 17.464 41.1434 17.288C41.3194 17.096 41.4394 16.944 41.5034 16.832V12.896C41.1034 13.12 40.7274 13.344 40.3754 13.568C40.0234 13.792 39.7114 14.032 39.4394 14.288C39.1834 14.528 38.9754 14.808 38.8154 15.128C38.6714 15.432 38.5994 15.784 38.5994 16.184C38.5994 16.744 38.7034 17.184 38.9114 17.504C39.1194 17.824 39.4234 17.984 39.8234 17.984ZM46.7782 20V0.559999H49.3462V20H46.7782ZM55.2386 20.192C54.0706 20.192 53.1986 19.768 52.6226 18.92C52.0466 18.056 51.7586 16.6 51.7586 14.552V11.864C51.7586 10.808 51.8466 9.832 52.0226 8.936C52.1986 8.024 52.5266 7.296 53.0066 6.752C53.5026 6.208 54.2226 5.936 55.1666 5.936C55.6306 5.936 56.0546 6.04 56.4386 6.248C56.8226 6.456 57.1666 6.712 57.4706 7.016V0.559999H60.0386V20H57.4706V19.112C57.1666 19.432 56.8306 19.696 56.4626 19.904C56.1106 20.096 55.7026 20.192 55.2386 20.192ZM55.8866 18.176C56.1266 18.176 56.3826 18.136 56.6546 18.056C56.9266 17.96 57.1986 17.824 57.4706 17.648V8.552C57.2466 8.392 56.9986 8.256 56.7266 8.144C56.4546 8.016 56.1586 7.952 55.8386 7.952C55.2466 7.952 54.8466 8.24 54.6386 8.816C54.4306 9.376 54.3266 10.056 54.3266 10.856V14.768C54.3266 15.408 54.3586 15.992 54.4226 16.52C54.5026 17.032 54.6546 17.44 54.8786 17.744C55.1026 18.032 55.4386 18.176 55.8866 18.176Z" fill="#111827"/>
</svg>
