<svg width="82" height="24" viewBox="0 0 82 24" fill="none" xmlns="http://www.w3.org/2000/svg">
<path d="M2.46875 9.33984C2.46875 11.5664 2.98047 13.3164 4.00391 14.5898C5.02734 15.8555 6.53906 16.4883 8.53906 16.4883C10.5391 16.4883 12.043 15.8555 13.0508 14.5898C14.0664 13.3242 14.5742 11.5742 14.5742 9.33984C14.5742 7.05859 14.0625 5.28906 13.0391 4.03125C12.0234 2.77344 10.5273 2.14453 8.55078 2.14453C6.57422 2.14453 5.06641 2.77344 4.02734 4.03125C2.98828 5.28906 2.46875 7.05859 2.46875 9.33984ZM16.7422 9.33984C16.7422 10.6602 16.5586 11.8672 16.1914 12.9609C15.832 14.0547 15.3086 14.9961 14.6211 15.7852C13.9414 16.5664 13.082 17.1758 12.043 17.6133C11.0039 18.043 9.83594 18.2578 8.53906 18.2578C6.78906 18.2578 5.28906 17.8867 4.03906 17.1445C2.79688 16.3945 1.86328 15.3555 1.23828 14.0273C0.621094 12.6914 0.3125 11.125 0.3125 9.32812C0.3125 6.55469 1.03516 4.36719 2.48047 2.76562C3.92578 1.16406 5.94922 0.363281 8.55078 0.363281C11.1133 0.363281 13.1172 1.17188 14.5625 2.78906C16.0156 4.39844 16.7422 6.58203 16.7422 9.33984ZM23.1289 11.4609L18.5938 5.14453H20.832L24.2656 10.043L27.7109 5.14453H29.9492L25.4023 11.4844L30.0664 18H27.8984L24.2773 12.832L20.6562 18H18.418L23.1289 11.4609ZM30.4883 5.14453H32.5625L36.6172 15.8438L40.2266 5.14453H42.3008C38.832 14.6914 37.0391 19.6133 36.9219 19.9102C36.3828 21.2617 35.7305 22.25 34.9648 22.875C34.1992 23.5078 33.1914 23.8242 31.9414 23.8242C31.5664 23.8242 31.1719 23.793 30.7578 23.7305L30.6406 22.0664C31.0781 22.0977 31.4062 22.1133 31.625 22.1133C32.5078 22.1133 33.1758 21.9492 33.6289 21.6211C34.0898 21.3008 34.5 20.6953 34.8594 19.8047C35.1797 18.9844 35.418 18.3516 35.5742 17.9062L30.4883 5.14453ZM48.8398 16.3242C49.5039 16.3242 50.0859 16.207 50.5859 15.9727C51.0859 15.7383 51.4766 15.4141 51.7578 15C52.0391 14.5859 52.2461 14.125 52.3789 13.6172C52.5195 13.1094 52.5898 12.5547 52.5898 11.9531V11.0039C52.5898 10.3789 52.5195 9.80469 52.3789 9.28125C52.2383 8.75 52.0195 8.27734 51.7227 7.86328C51.4336 7.44141 51.043 7.11328 50.5508 6.87891C50.0664 6.64453 49.5 6.52734 48.8516 6.52734C48.3125 6.52734 47.8203 6.62891 47.375 6.83203C46.9375 7.03516 46.5742 7.30469 46.2852 7.64062C46.0039 7.96875 45.7617 8.35547 45.5586 8.80078C45.3633 9.23828 45.2227 9.68359 45.1367 10.1367C45.0508 10.5898 45.0078 11.0469 45.0078 11.5078C45.0078 11.9609 45.0547 12.4102 45.1484 12.8555C45.2422 13.3008 45.3906 13.7344 45.5938 14.1562C45.7969 14.5781 46.043 14.9492 46.332 15.2695C46.6211 15.582 46.9805 15.8359 47.4102 16.0312C47.8477 16.2266 48.3242 16.3242 48.8398 16.3242ZM45.8281 23.8828L45.6523 22.1133H48.043C48.707 22.1133 49.2852 22.0664 49.7773 21.9727C50.2695 21.8789 50.6797 21.7227 51.0078 21.5039C51.3359 21.293 51.6016 21.0547 51.8047 20.7891C52.0078 20.5312 52.1602 20.1914 52.2617 19.7695C52.3711 19.3555 52.4414 18.9414 52.4727 18.5273C52.5117 18.1211 52.5312 17.6211 52.5312 17.0273V15.8906C52.0625 16.5625 51.5195 17.082 50.9023 17.4492C50.2852 17.8086 49.5 17.9883 48.5469 17.9883C47.8125 17.9883 47.1328 17.8633 46.5078 17.6133C45.8906 17.3555 45.3672 17.0156 44.9375 16.5938C44.5156 16.1719 44.1523 15.6836 43.8477 15.1289C43.5508 14.5742 43.332 14 43.1914 13.4062C43.0586 12.8125 42.9922 12.2148 42.9922 11.6133C42.9922 10.6758 43.1055 9.80859 43.332 9.01172C43.5664 8.21484 43.9102 7.50391 44.3633 6.87891C44.8164 6.25391 45.4102 5.76562 46.1445 5.41406C46.8867 5.05469 47.7344 4.875 48.6875 4.875C49.5312 4.875 50.2656 5.03906 50.8906 5.36719C51.5234 5.6875 52.0898 6.18359 52.5898 6.85547V5.14453H54.5V17.0742C54.5 17.6211 54.4844 18.0977 54.4531 18.5039C54.4297 18.918 54.3633 19.375 54.2539 19.875C54.1523 20.375 54.0117 20.8047 53.832 21.1641C53.6523 21.5234 53.3984 21.8828 53.0703 22.2422C52.75 22.6094 52.3633 22.9023 51.9102 23.1211C51.4648 23.3477 50.9102 23.5312 50.2461 23.6719C49.582 23.8125 48.832 23.8828 47.9961 23.8828H45.8281ZM65.1758 7.52344C64.6055 6.83594 63.8203 6.49219 62.8203 6.49219C61.8203 6.49219 61.0039 6.84766 60.3711 7.55859C59.7383 8.26172 59.3672 9.22656 59.2578 10.4531H66.043C66.043 9.17969 65.7539 8.20312 65.1758 7.52344ZM63.207 18.2695C61.3398 18.2695 59.8672 17.6758 58.7891 16.4883C57.7188 15.3008 57.1836 13.6758 57.1836 11.6133C57.1836 9.62109 57.7031 8.00781 58.7422 6.77344C59.7812 5.53125 61.1484 4.89844 62.8438 4.875C64.4375 4.875 65.6992 5.42188 66.6289 6.51562C67.5664 7.60156 68.0352 9.05469 68.0352 10.875C68.0352 10.9688 68.0312 11.1406 68.0234 11.3906C68.0234 11.6406 68.0234 11.8203 68.0234 11.9297H59.1992C59.2227 13.3906 59.5977 14.5312 60.3242 15.3516C61.0586 16.1641 62.043 16.5703 63.2773 16.5703C64.6367 16.5703 66 16.2109 67.3672 15.4922L67.6719 17.0742C66.3672 17.8711 64.8789 18.2695 63.207 18.2695ZM70.7539 18V5.14453H72.3945L72.6406 6.98438C73.1484 6.35156 73.7812 5.84375 74.5391 5.46094C75.3047 5.07031 76.1289 4.875 77.0117 4.875C78.4961 4.875 79.5938 5.29297 80.3047 6.12891C81.0156 6.95703 81.3711 8.23438 81.3711 9.96094V18H79.4141C79.4141 12.8438 79.4102 10.082 79.4023 9.71484C79.3711 8.62109 79.1484 7.82031 78.7344 7.3125C78.3281 6.80469 77.6445 6.55078 76.6836 6.55078C75.6758 6.55078 74.8359 6.79297 74.1641 7.27734C73.4922 7.76172 73.0547 8.39062 72.8516 9.16406C72.7734 9.6875 72.7344 10.2891 72.7344 10.9688V18H70.7539Z" fill="#111827"/>
</svg>
