<svg width="168" height="24" viewBox="0 0 168 24" fill="none" xmlns="http://www.w3.org/2000/svg">
<path d="M5.16797 16.457C5.16797 17.0586 5.23047 17.4961 5.35547 17.7695C5.48047 18.043 5.70703 18.2305 6.03516 18.332C6.36328 18.4336 6.88281 18.4961 7.59375 18.5195V19C6.76562 18.9531 5.58984 18.9297 4.06641 18.9297C2.69141 18.9297 1.66797 18.9531 0.996094 19V18.5195C1.57422 18.4961 1.99219 18.4336 2.25 18.332C2.51562 18.2305 2.69531 18.043 2.78906 17.7695C2.89062 17.4961 2.94141 17.0586 2.94141 16.457V4.55078C2.94141 3.94922 2.89062 3.51172 2.78906 3.23828C2.69531 2.96484 2.51562 2.77734 2.25 2.67578C1.99219 2.57422 1.57422 2.51172 0.996094 2.48828V2.00781C1.66016 2.05469 2.63672 2.07812 3.92578 2.07812C4.55078 2.07812 5.23828 2.07031 5.98828 2.05469C6.74609 2.03906 7.26562 2.03125 7.54688 2.03125C8.80469 2.03125 9.86719 2.23047 10.7344 2.62891C11.6016 3.01953 12.25 3.57031 12.6797 4.28125C13.1172 4.99219 13.3359 5.82031 13.3359 6.76562C13.3359 7.64062 13.1406 8.48438 12.75 9.29688C12.3594 10.1094 11.6914 10.7852 10.7461 11.3242C9.80859 11.8633 8.56641 12.1328 7.01953 12.1328H5.16797V16.457ZM6.78516 11.6523C8.34766 11.6523 9.42969 11.2344 10.0312 10.3984C10.6328 9.5625 10.9336 8.4375 10.9336 7.02344C10.9336 5.99219 10.8008 5.14453 10.5352 4.48047C10.2695 3.81641 9.84375 3.32031 9.25781 2.99219C8.67969 2.65625 7.91016 2.48828 6.94922 2.48828C6.44922 2.48828 6.07422 2.54688 5.82422 2.66406C5.57422 2.77344 5.40234 2.97266 5.30859 3.26172C5.21484 3.55078 5.16797 3.98047 5.16797 4.55078V11.6523H6.78516ZM18.3281 16.7734C18.3281 17.2188 18.3867 17.5664 18.5039 17.8164C18.6289 18.0664 18.8203 18.2422 19.0781 18.3438C19.3438 18.4453 19.7031 18.4961 20.1562 18.4961V19C18.6875 18.9375 17.7188 18.9062 17.25 18.9062C16.7812 18.9062 15.8125 18.9375 14.3438 19V18.4961C14.7969 18.4961 15.1523 18.4453 15.4102 18.3438C15.6758 18.2422 15.8672 18.0664 15.9844 17.8164C16.1094 17.5664 16.1719 17.2188 16.1719 16.7734V3.0625C16.1719 2.32031 16.0352 1.78516 15.7617 1.45703C15.4961 1.12109 15.0234 0.953125 14.3438 0.953125V0.449219C14.8438 0.496094 15.3398 0.519531 15.832 0.519531C16.8633 0.519531 17.6953 0.40625 18.3281 0.179688V16.7734ZM28.3594 9.20312C28.3594 8.27344 28.1641 7.64062 27.7734 7.30469C27.3906 6.96094 26.8438 6.78906 26.1328 6.78906C25 6.78906 24.207 7.07422 23.7539 7.64453C24.0742 7.72266 24.3398 7.89453 24.5508 8.16016C24.7695 8.41797 24.8789 8.73438 24.8789 9.10938C24.8789 9.51562 24.75 9.83594 24.4922 10.0703C24.2422 10.2969 23.9023 10.4102 23.4727 10.4102C23.0664 10.4102 22.7461 10.2734 22.5117 10C22.2852 9.72656 22.1719 9.36719 22.1719 8.92188C22.1719 8.29688 22.5469 7.72656 23.2969 7.21094C23.6875 6.95312 24.168 6.73828 24.7383 6.56641C25.3164 6.39453 25.957 6.30859 26.6602 6.30859C27.3164 6.30859 27.8945 6.39062 28.3945 6.55469C28.8945 6.71094 29.2852 6.92969 29.5664 7.21094C29.9336 7.58594 30.1836 8.02344 30.3164 8.52344C30.457 9.01562 30.5273 9.69922 30.5273 10.5742V17.2422C30.5273 17.6406 30.582 17.9297 30.6914 18.1094C30.8086 18.2891 31 18.3789 31.2656 18.3789C31.4609 18.3789 31.6406 18.3359 31.8047 18.25C31.9688 18.1641 32.1484 18.0391 32.3438 17.875L32.6133 18.2852C32.332 18.4961 32.0977 18.6602 31.9102 18.7773C31.7227 18.8945 31.5078 18.9883 31.2656 19.0586C31.0234 19.1289 30.7422 19.1641 30.4219 19.1641C29.6484 19.1641 29.1094 18.9727 28.8047 18.5898C28.5078 18.1992 28.3594 17.6797 28.3594 17.0312C27.8906 17.8047 27.3281 18.3555 26.6719 18.6836C26.0156 19.0039 25.3477 19.1641 24.668 19.1641C24.1133 19.1641 23.6055 19.0703 23.1445 18.8828C22.6836 18.6875 22.3125 18.3906 22.0312 17.9922C21.7578 17.5859 21.6211 17.082 21.6211 16.4805C21.6211 15.8711 21.7695 15.3516 22.0664 14.9219C22.3633 14.4922 22.7812 14.1172 23.3203 13.7969C23.8594 13.4688 24.582 13.1133 25.4883 12.7305C25.6445 12.668 26.0273 12.5117 26.6367 12.2617C27.2461 12.0117 27.6836 11.7617 27.9492 11.5117C28.2227 11.2617 28.3594 10.9883 28.3594 10.6914V9.20312ZM28.3594 11.6758C28.2422 11.8555 28.0469 12.0234 27.7734 12.1797C27.5 12.3359 26.9297 12.625 26.0625 13.0469C25.6016 13.2656 25.2109 13.4922 24.8906 13.7266C24.5703 13.9531 24.2969 14.2617 24.0703 14.6523C23.8438 15.043 23.7305 15.5234 23.7305 16.0938C23.7305 16.7891 23.9062 17.3164 24.2578 17.6758C24.6094 18.0273 25.0742 18.2031 25.6523 18.2031C26.7148 18.2031 27.6172 17.5977 28.3594 16.3867V11.6758ZM40.5234 6.63672C41.3672 6.68359 42.0391 6.70703 42.5391 6.70703C43.25 6.70703 43.8594 6.68359 44.3672 6.63672V7.11719C44.0469 7.15625 43.7617 7.30078 43.5117 7.55078C43.2617 7.80078 43.0273 8.21875 42.8086 8.80469L38.8711 19.1172L38.0508 21.2031C37.7461 21.9922 37.4023 22.5547 37.0195 22.8906C36.5664 23.3047 35.9414 23.5117 35.1445 23.5117C34.668 23.5117 34.2773 23.3828 33.9727 23.125C33.668 22.875 33.5156 22.5234 33.5156 22.0703C33.5156 21.6875 33.6289 21.3789 33.8555 21.1445C34.082 20.918 34.3945 20.8047 34.793 20.8047C35.1445 20.8047 35.4336 20.9023 35.6602 21.0977C35.8945 21.293 36.0117 21.5703 36.0117 21.9297C36.0117 22.4062 35.7969 22.7656 35.3672 23.0078C35.3984 23.0234 35.4453 23.0312 35.5078 23.0312C36.3906 23.0312 37.0703 22.4062 37.5469 21.1562L38.4023 18.9648L34.043 8.48828C33.7695 7.93359 33.4961 7.57031 33.2227 7.39844C32.957 7.22656 32.6875 7.14062 32.4141 7.14062V6.63672C33.1641 6.73828 33.9492 6.78906 34.7695 6.78906C35.457 6.78906 36.4961 6.73828 37.8867 6.63672V7.14062C37.4961 7.14062 37.1914 7.15625 36.9727 7.1875C36.7539 7.21094 36.5703 7.28516 36.4219 7.41016C36.2812 7.52734 36.2109 7.71484 36.2109 7.97266C36.2109 8.26172 36.3125 8.65625 36.5156 9.15625L39.4102 16.3281L42.0586 9.37891C42.2305 8.91016 42.3164 8.54297 42.3164 8.27734C42.3164 7.90234 42.1719 7.625 41.8828 7.44531C41.6016 7.26562 41.1484 7.15625 40.5234 7.11719V6.63672ZM46.9688 6.66016C46.9688 5.70703 47.0078 4.91406 47.0859 4.28125C47.1641 3.64062 47.2891 3.09766 47.4609 2.65234C47.6406 2.20703 47.8867 1.80078 48.1992 1.43359C48.5117 1.05859 48.918 0.765625 49.418 0.554688C49.918 0.335937 50.4609 0.226562 51.0469 0.226562C51.8672 0.226562 52.5625 0.445313 53.1328 0.882812C53.6328 1.28906 53.8828 1.78516 53.8828 2.37109C53.8828 2.73828 53.7617 3.04297 53.5195 3.28516C53.2852 3.51953 52.9805 3.63672 52.6055 3.63672C52.2383 3.63672 51.9258 3.51953 51.668 3.28516C51.418 3.05078 51.293 2.73828 51.293 2.34766C51.293 2.01953 51.3828 1.75 51.5625 1.53906C51.75 1.32031 51.9961 1.17969 52.3008 1.11719C52.2539 0.96875 52.125 0.84375 51.9141 0.742188C51.7031 0.640625 51.4375 0.589844 51.1172 0.589844C50.4062 0.589844 49.8867 0.886719 49.5586 1.48047C49.3789 1.80078 49.2617 2.28125 49.207 2.92188C49.1523 3.55469 49.125 4.59375 49.125 6.03906V6.66016H51.7031V7.14062H49.125V16.5273C49.125 17.2695 49.3359 17.7852 49.7578 18.0742C50.1797 18.3555 50.8164 18.4961 51.668 18.4961V19C49.6992 18.9375 48.4688 18.9062 47.9766 18.9062C47.5859 18.9062 46.6406 18.9375 45.1406 19V18.4961C45.5938 18.4961 45.9492 18.4453 46.207 18.3438C46.4727 18.2422 46.6641 18.0664 46.7812 17.8164C46.9062 17.5664 46.9688 17.2188 46.9688 16.7734V7.14062H45.0469V6.66016H46.9688ZM60.0703 9.20312C60.0703 8.27344 59.875 7.64062 59.4844 7.30469C59.1016 6.96094 58.5547 6.78906 57.8438 6.78906C56.7109 6.78906 55.918 7.07422 55.4648 7.64453C55.7852 7.72266 56.0508 7.89453 56.2617 8.16016C56.4805 8.41797 56.5898 8.73438 56.5898 9.10938C56.5898 9.51562 56.4609 9.83594 56.2031 10.0703C55.9531 10.2969 55.6133 10.4102 55.1836 10.4102C54.7773 10.4102 54.457 10.2734 54.2227 10C53.9961 9.72656 53.8828 9.36719 53.8828 8.92188C53.8828 8.29688 54.2578 7.72656 55.0078 7.21094C55.3984 6.95312 55.8789 6.73828 56.4492 6.56641C57.0273 6.39453 57.668 6.30859 58.3711 6.30859C59.0273 6.30859 59.6055 6.39062 60.1055 6.55469C60.6055 6.71094 60.9961 6.92969 61.2773 7.21094C61.6445 7.58594 61.8945 8.02344 62.0273 8.52344C62.168 9.01562 62.2383 9.69922 62.2383 10.5742V17.2422C62.2383 17.6406 62.293 17.9297 62.4023 18.1094C62.5195 18.2891 62.7109 18.3789 62.9766 18.3789C63.1719 18.3789 63.3516 18.3359 63.5156 18.25C63.6797 18.1641 63.8594 18.0391 64.0547 17.875L64.3242 18.2852C64.043 18.4961 63.8086 18.6602 63.6211 18.7773C63.4336 18.8945 63.2188 18.9883 62.9766 19.0586C62.7344 19.1289 62.4531 19.1641 62.1328 19.1641C61.3594 19.1641 60.8203 18.9727 60.5156 18.5898C60.2188 18.1992 60.0703 17.6797 60.0703 17.0312C59.6016 17.8047 59.0391 18.3555 58.3828 18.6836C57.7266 19.0039 57.0586 19.1641 56.3789 19.1641C55.8242 19.1641 55.3164 19.0703 54.8555 18.8828C54.3945 18.6875 54.0234 18.3906 53.7422 17.9922C53.4688 17.5859 53.332 17.082 53.332 16.4805C53.332 15.8711 53.4805 15.3516 53.7773 14.9219C54.0742 14.4922 54.4922 14.1172 55.0312 13.7969C55.5703 13.4688 56.293 13.1133 57.1992 12.7305C57.3555 12.668 57.7383 12.5117 58.3477 12.2617C58.957 12.0117 59.3945 11.7617 59.6602 11.5117C59.9336 11.2617 60.0703 10.9883 60.0703 10.6914V9.20312ZM60.0703 11.6758C59.9531 11.8555 59.7578 12.0234 59.4844 12.1797C59.2109 12.3359 58.6406 12.625 57.7734 13.0469C57.3125 13.2656 56.9219 13.4922 56.6016 13.7266C56.2812 13.9531 56.0078 14.2617 55.7812 14.6523C55.5547 15.043 55.4414 15.5234 55.4414 16.0938C55.4414 16.7891 55.6172 17.3164 55.9688 17.6758C56.3203 18.0273 56.7852 18.2031 57.3633 18.2031C58.4258 18.2031 59.3281 17.5977 60.0703 16.3867V11.6758ZM67.7812 0.636719C68.0547 0.636719 68.3086 0.707031 68.543 0.847656C68.7773 0.988281 68.9648 1.17578 69.1055 1.41016C69.2461 1.64453 69.3164 1.89844 69.3164 2.17188C69.3164 2.44531 69.2461 2.70312 69.1055 2.94531C68.9648 3.17969 68.7773 3.36719 68.543 3.50781C68.3086 3.64062 68.0547 3.70703 67.7812 3.70703C67.5078 3.70703 67.25 3.64062 67.0078 3.50781C66.7734 3.36719 66.5859 3.17969 66.4453 2.94531C66.3125 2.70312 66.2461 2.44531 66.2461 2.17188C66.2461 1.89844 66.3125 1.64453 66.4453 1.41016C66.5859 1.17578 66.7734 0.988281 67.0078 0.847656C67.25 0.707031 67.5078 0.636719 67.7812 0.636719ZM69.0234 16.7734C69.0234 17.2188 69.082 17.5664 69.1992 17.8164C69.3242 18.0664 69.5156 18.2422 69.7734 18.3438C70.0391 18.4453 70.3984 18.4961 70.8516 18.4961V19C69.3828 18.9375 68.4141 18.9062 67.9453 18.9062C67.4766 18.9062 66.5078 18.9375 65.0391 19V18.4961C65.4922 18.4961 65.8477 18.4453 66.1055 18.3438C66.3711 18.2422 66.5625 18.0664 66.6797 17.8164C66.8047 17.5664 66.8672 17.2188 66.8672 16.7734V9.26172C66.8672 8.51953 66.7305 7.98047 66.457 7.64453C66.1914 7.30859 65.7188 7.14062 65.0391 7.14062V6.63672C65.5391 6.68359 66.0352 6.70703 66.5273 6.70703C67.543 6.70703 68.375 6.59766 69.0234 6.37891V16.7734ZM76.0547 9.37891C76.2344 8.87891 76.4922 8.39453 76.8281 7.92578C77.1719 7.45703 77.5781 7.07031 78.0469 6.76562C78.5156 6.46094 79.0117 6.30859 79.5352 6.30859C79.957 6.30859 80.332 6.39453 80.6602 6.56641C80.9961 6.73047 81.2578 6.95703 81.4453 7.24609C81.6328 7.53516 81.7266 7.85156 81.7266 8.19531C81.7266 8.61719 81.6016 8.97656 81.3516 9.27344C81.1016 9.5625 80.7695 9.70703 80.3555 9.70703C80.0039 9.70703 79.7031 9.59766 79.4531 9.37891C79.2031 9.15234 79.0781 8.84766 79.0781 8.46484C79.0781 7.94141 79.3516 7.50781 79.8984 7.16406C79.7891 7.00781 79.6211 6.92969 79.3945 6.92969C78.7617 6.92969 78.1914 7.17188 77.6836 7.65625C77.1758 8.14062 76.7773 8.73828 76.4883 9.44922C76.1992 10.1602 76.0547 10.8242 76.0547 11.4414V16.5273C76.0547 17.2695 76.2656 17.7852 76.6875 18.0742C77.1094 18.3555 77.7461 18.4961 78.5977 18.4961V19C76.6289 18.9375 75.3984 18.9062 74.9062 18.9062C74.4844 18.9062 73.5391 18.9375 72.0703 19V18.4961C72.5234 18.4961 72.8789 18.4453 73.1367 18.3438C73.4023 18.2422 73.5938 18.0664 73.7109 17.8164C73.8359 17.5664 73.8984 17.2188 73.8984 16.7734V9.26172C73.8984 8.51953 73.7617 7.98047 73.4883 7.64453C73.2227 7.30859 72.75 7.14062 72.0703 7.14062V6.63672C72.5703 6.68359 73.0664 6.70703 73.5586 6.70703C74.5742 6.70703 75.4062 6.59766 76.0547 6.37891V9.37891ZM88.5352 2.00781C89.3945 2.0625 90.1758 2.08984 90.8789 2.08984L91.4648 2.07812C93.668 2.03125 94.875 2.00781 95.0859 2.00781C97.9141 2.00781 100.031 2.71484 101.438 4.12891C102.852 5.54297 103.559 7.60547 103.559 10.3164C103.559 12.0586 103.215 13.5859 102.527 14.8984C101.848 16.2031 100.855 17.2148 99.5508 17.9336C98.2461 18.6445 96.6875 19 94.875 19C94.6562 19 94.1328 18.9883 93.3047 18.9648C92.4844 18.9414 91.8867 18.9297 91.5117 18.9297C90.1992 18.9297 89.207 18.9531 88.5352 19V18.5195C89.1133 18.4961 89.5312 18.4336 89.7891 18.332C90.0547 18.2305 90.2344 18.043 90.3281 17.7695C90.4297 17.4961 90.4805 17.0586 90.4805 16.457V4.55078C90.4805 3.94922 90.4297 3.51172 90.3281 3.23828C90.2344 2.96484 90.0547 2.77734 89.7891 2.67578C89.5312 2.57422 89.1133 2.51172 88.5352 2.48828V2.00781ZM92.707 16.5039C92.707 17.082 92.7539 17.5156 92.8477 17.8047C92.9414 18.0859 93.1133 18.2852 93.3633 18.4023C93.6211 18.5117 94.0039 18.5664 94.5117 18.5664C96.2148 18.5664 97.5508 18.2578 98.5195 17.6406C99.4883 17.0234 100.168 16.125 100.559 14.9453C100.957 13.7578 101.156 12.2461 101.156 10.4102C101.156 8.56641 100.941 7.06641 100.512 5.91016C100.082 4.74609 99.3789 3.87891 98.4023 3.30859C97.4336 2.73047 96.1289 2.44141 94.4883 2.44141C93.9883 2.44141 93.6133 2.5 93.3633 2.61719C93.1133 2.72656 92.9414 2.92578 92.8477 3.21484C92.7539 3.50391 92.707 3.93359 92.707 4.50391V16.5039ZM108.328 0.636719C108.602 0.636719 108.855 0.707031 109.09 0.847656C109.324 0.988281 109.512 1.17578 109.652 1.41016C109.793 1.64453 109.863 1.89844 109.863 2.17188C109.863 2.44531 109.793 2.70312 109.652 2.94531C109.512 3.17969 109.324 3.36719 109.09 3.50781C108.855 3.64062 108.602 3.70703 108.328 3.70703C108.055 3.70703 107.797 3.64062 107.555 3.50781C107.32 3.36719 107.133 3.17969 106.992 2.94531C106.859 2.70312 106.793 2.44531 106.793 2.17188C106.793 1.89844 106.859 1.64453 106.992 1.41016C107.133 1.17578 107.32 0.988281 107.555 0.847656C107.797 0.707031 108.055 0.636719 108.328 0.636719ZM109.57 16.7734C109.57 17.2188 109.629 17.5664 109.746 17.8164C109.871 18.0664 110.062 18.2422 110.32 18.3438C110.586 18.4453 110.945 18.4961 111.398 18.4961V19C109.93 18.9375 108.961 18.9062 108.492 18.9062C108.023 18.9062 107.055 18.9375 105.586 19V18.4961C106.039 18.4961 106.395 18.4453 106.652 18.3438C106.918 18.2422 107.109 18.0664 107.227 17.8164C107.352 17.5664 107.414 17.2188 107.414 16.7734V9.26172C107.414 8.51953 107.277 7.98047 107.004 7.64453C106.738 7.30859 106.266 7.14062 105.586 7.14062V6.63672C106.086 6.68359 106.582 6.70703 107.074 6.70703C108.09 6.70703 108.922 6.59766 109.57 6.37891V16.7734ZM113.895 14.3711C114.012 15.3633 114.18 16.1797 114.398 16.8203C114.617 17.4609 114.953 17.9609 115.406 18.3203C115.859 18.6797 116.469 18.8594 117.234 18.8594C117.586 18.8594 117.922 18.7852 118.242 18.6367C118.57 18.4805 118.84 18.2344 119.051 17.8984C119.262 17.5547 119.367 17.1133 119.367 16.5742C119.367 16.1367 119.254 15.7461 119.027 15.4023C118.809 15.0508 118.52 14.7383 118.16 14.4648C117.801 14.1836 117.297 13.8398 116.648 13.4336C115.859 12.9336 115.254 12.5234 114.832 12.2031C114.418 11.8828 114.066 11.4922 113.777 11.0312C113.488 10.5703 113.344 10.0273 113.344 9.40234C113.344 8.72266 113.504 8.15234 113.824 7.69141C114.145 7.22266 114.57 6.875 115.102 6.64844C115.641 6.42188 116.238 6.30859 116.895 6.30859C117.457 6.30859 117.961 6.39844 118.406 6.57812C118.859 6.75781 119.227 6.96094 119.508 7.1875C119.68 7.32031 119.82 7.38672 119.93 7.38672C120.211 7.38672 120.391 7.03516 120.469 6.33203H121.02C120.957 7.11328 120.926 8.47266 120.926 10.4102H120.375C120.203 9.35547 119.863 8.48438 119.355 7.79688C118.848 7.10938 118.098 6.76562 117.105 6.76562C116.527 6.76562 116.055 6.92969 115.688 7.25781C115.32 7.57812 115.137 8.02734 115.137 8.60547C115.137 9.16016 115.324 9.625 115.699 10C116.082 10.3672 116.539 10.7188 117.07 11.0547C117.609 11.3906 117.992 11.6328 118.219 11.7812C118.953 12.2578 119.543 12.6836 119.988 13.0586C120.441 13.4258 120.805 13.8516 121.078 14.3359C121.359 14.8125 121.5 15.3594 121.5 15.9766C121.5 16.6875 121.312 17.2969 120.938 17.8047C120.57 18.3047 120.074 18.6875 119.449 18.9531C118.824 19.2109 118.141 19.3398 117.398 19.3398C116.688 19.3398 116.055 19.2266 115.5 19C115.188 18.8438 114.859 18.6289 114.516 18.3555C114.453 18.293 114.379 18.2617 114.293 18.2617C114.059 18.2617 113.895 18.5625 113.801 19.1641H113.25C113.312 18.25 113.344 16.6523 113.344 14.3711H113.895ZM127.148 8.91016C127.508 8.08203 128.023 7.44141 128.695 6.98828C129.367 6.53516 130.133 6.30859 130.992 6.30859C131.844 6.30859 132.605 6.53906 133.277 7C133.957 7.46094 134.488 8.14062 134.871 9.03906C135.262 9.9375 135.457 11.0117 135.457 12.2617C135.457 13.4883 135.262 14.6406 134.871 15.7188C134.48 16.7891 133.871 17.6602 133.043 18.332C132.223 19.0039 131.195 19.3398 129.961 19.3398C129.352 19.3398 128.797 19.2227 128.297 18.9883C127.805 18.7461 127.422 18.4297 127.148 18.0391V21.1094C127.148 21.7578 127.34 22.207 127.723 22.457C128.105 22.7148 128.684 22.8438 129.457 22.8438V23.3477C129.254 23.3398 128.797 23.3203 128.086 23.2891C127.383 23.2578 126.688 23.2422 126 23.2422C125.492 23.2422 124.969 23.2578 124.43 23.2891C123.891 23.3203 123.551 23.3398 123.41 23.3477V22.8438C123.996 22.8438 124.406 22.7344 124.641 22.5156C124.875 22.3047 124.992 21.918 124.992 21.3555V9.26172C124.992 8.51953 124.855 7.98047 124.582 7.64453C124.316 7.30859 123.844 7.14062 123.164 7.14062V6.63672C123.664 6.68359 124.16 6.70703 124.652 6.70703C125.668 6.70703 126.5 6.59766 127.148 6.37891V8.91016ZM127.148 17.2422C127.383 17.7188 127.715 18.0977 128.145 18.3789C128.574 18.6523 129.09 18.7891 129.691 18.7891C131.98 18.7891 133.125 16.7227 133.125 12.5898C133.125 8.87891 132.195 7.02344 130.336 7.02344C129.609 7.02344 128.957 7.28516 128.379 7.80859C127.809 8.32422 127.398 9.07422 127.148 10.0586V17.2422ZM141.094 16.7734C141.094 17.2188 141.152 17.5664 141.27 17.8164C141.395 18.0664 141.586 18.2422 141.844 18.3438C142.109 18.4453 142.469 18.4961 142.922 18.4961V19C141.453 18.9375 140.484 18.9062 140.016 18.9062C139.547 18.9062 138.578 18.9375 137.109 19V18.4961C137.562 18.4961 137.918 18.4453 138.176 18.3438C138.441 18.2422 138.633 18.0664 138.75 17.8164C138.875 17.5664 138.938 17.2188 138.938 16.7734V3.0625C138.938 2.32031 138.801 1.78516 138.527 1.45703C138.262 1.12109 137.789 0.953125 137.109 0.953125V0.449219C137.609 0.496094 138.105 0.519531 138.598 0.519531C139.629 0.519531 140.461 0.40625 141.094 0.179688V16.7734ZM151.125 9.20312C151.125 8.27344 150.93 7.64062 150.539 7.30469C150.156 6.96094 149.609 6.78906 148.898 6.78906C147.766 6.78906 146.973 7.07422 146.52 7.64453C146.84 7.72266 147.105 7.89453 147.316 8.16016C147.535 8.41797 147.645 8.73438 147.645 9.10938C147.645 9.51562 147.516 9.83594 147.258 10.0703C147.008 10.2969 146.668 10.4102 146.238 10.4102C145.832 10.4102 145.512 10.2734 145.277 10C145.051 9.72656 144.938 9.36719 144.938 8.92188C144.938 8.29688 145.312 7.72656 146.062 7.21094C146.453 6.95312 146.934 6.73828 147.504 6.56641C148.082 6.39453 148.723 6.30859 149.426 6.30859C150.082 6.30859 150.66 6.39062 151.16 6.55469C151.66 6.71094 152.051 6.92969 152.332 7.21094C152.699 7.58594 152.949 8.02344 153.082 8.52344C153.223 9.01562 153.293 9.69922 153.293 10.5742V17.2422C153.293 17.6406 153.348 17.9297 153.457 18.1094C153.574 18.2891 153.766 18.3789 154.031 18.3789C154.227 18.3789 154.406 18.3359 154.57 18.25C154.734 18.1641 154.914 18.0391 155.109 17.875L155.379 18.2852C155.098 18.4961 154.863 18.6602 154.676 18.7773C154.488 18.8945 154.273 18.9883 154.031 19.0586C153.789 19.1289 153.508 19.1641 153.188 19.1641C152.414 19.1641 151.875 18.9727 151.57 18.5898C151.273 18.1992 151.125 17.6797 151.125 17.0312C150.656 17.8047 150.094 18.3555 149.438 18.6836C148.781 19.0039 148.113 19.1641 147.434 19.1641C146.879 19.1641 146.371 19.0703 145.91 18.8828C145.449 18.6875 145.078 18.3906 144.797 17.9922C144.523 17.5859 144.387 17.082 144.387 16.4805C144.387 15.8711 144.535 15.3516 144.832 14.9219C145.129 14.4922 145.547 14.1172 146.086 13.7969C146.625 13.4688 147.348 13.1133 148.254 12.7305C148.41 12.668 148.793 12.5117 149.402 12.2617C150.012 12.0117 150.449 11.7617 150.715 11.5117C150.988 11.2617 151.125 10.9883 151.125 10.6914V9.20312ZM151.125 11.6758C151.008 11.8555 150.812 12.0234 150.539 12.1797C150.266 12.3359 149.695 12.625 148.828 13.0469C148.367 13.2656 147.977 13.4922 147.656 13.7266C147.336 13.9531 147.062 14.2617 146.836 14.6523C146.609 15.043 146.496 15.5234 146.496 16.0938C146.496 16.7891 146.672 17.3164 147.023 17.6758C147.375 18.0273 147.84 18.2031 148.418 18.2031C149.48 18.2031 150.383 17.5977 151.125 16.3867V11.6758ZM163.289 6.63672C164.133 6.68359 164.805 6.70703 165.305 6.70703C166.016 6.70703 166.625 6.68359 167.133 6.63672V7.11719C166.812 7.15625 166.527 7.30078 166.277 7.55078C166.027 7.80078 165.793 8.21875 165.574 8.80469L161.637 19.1172L160.816 21.2031C160.512 21.9922 160.168 22.5547 159.785 22.8906C159.332 23.3047 158.707 23.5117 157.91 23.5117C157.434 23.5117 157.043 23.3828 156.738 23.125C156.434 22.875 156.281 22.5234 156.281 22.0703C156.281 21.6875 156.395 21.3789 156.621 21.1445C156.848 20.918 157.16 20.8047 157.559 20.8047C157.91 20.8047 158.199 20.9023 158.426 21.0977C158.66 21.293 158.777 21.5703 158.777 21.9297C158.777 22.4062 158.562 22.7656 158.133 23.0078C158.164 23.0234 158.211 23.0312 158.273 23.0312C159.156 23.0312 159.836 22.4062 160.312 21.1562L161.168 18.9648L156.809 8.48828C156.535 7.93359 156.262 7.57031 155.988 7.39844C155.723 7.22656 155.453 7.14062 155.18 7.14062V6.63672C155.93 6.73828 156.715 6.78906 157.535 6.78906C158.223 6.78906 159.262 6.73828 160.652 6.63672V7.14062C160.262 7.14062 159.957 7.15625 159.738 7.1875C159.52 7.21094 159.336 7.28516 159.188 7.41016C159.047 7.52734 158.977 7.71484 158.977 7.97266C158.977 8.26172 159.078 8.65625 159.281 9.15625L162.176 16.3281L164.824 9.37891C164.996 8.91016 165.082 8.54297 165.082 8.27734C165.082 7.90234 164.938 7.625 164.648 7.44531C164.367 7.26562 163.914 7.15625 163.289 7.11719V6.63672Z" fill="#111827"/>
</svg>
