<svg width="94" height="26" viewBox="0 0 94 26" fill="none" xmlns="http://www.w3.org/2000/svg">
<path d="M12.032 7.168C12.032 8.56 11.552 9.72 10.592 10.648C9.648 11.56 8.2 12.016 6.248 12.016H3.032V19H0.848V2.272H6.248C8.136 2.272 9.568 2.728 10.544 3.64C11.536 4.552 12.032 5.728 12.032 7.168ZM6.248 10.216C7.464 10.216 8.36 9.952 8.936 9.424C9.512 8.896 9.8 8.144 9.8 7.168C9.8 5.104 8.616 4.072 6.248 4.072H3.032V10.216H6.248ZM20.4824 19.216C19.2504 19.216 18.1304 18.936 17.1224 18.376C16.1304 17.816 15.3464 17.024 14.7704 16C14.2104 14.96 13.9304 13.76 13.9304 12.4C13.9304 11.056 14.2184 9.872 14.7944 8.848C15.3864 7.808 16.1864 7.016 17.1944 6.472C18.2024 5.912 19.3304 5.632 20.5784 5.632C21.8264 5.632 22.9544 5.912 23.9624 6.472C24.9704 7.016 25.7624 7.8 26.3384 8.824C26.9304 9.848 27.2264 11.04 27.2264 12.4C27.2264 13.76 26.9224 14.96 26.3144 16C25.7224 17.024 24.9144 17.816 23.8904 18.376C22.8664 18.936 21.7304 19.216 20.4824 19.216ZM20.4824 17.296C21.2664 17.296 22.0024 17.112 22.6904 16.744C23.3784 16.376 23.9304 15.824 24.3464 15.088C24.7784 14.352 24.9944 13.456 24.9944 12.4C24.9944 11.344 24.7864 10.448 24.3704 9.712C23.9544 8.976 23.4104 8.432 22.7384 8.08C22.0664 7.712 21.3384 7.528 20.5544 7.528C19.7544 7.528 19.0184 7.712 18.3464 8.08C17.6904 8.432 17.1624 8.976 16.7624 9.712C16.3624 10.448 16.1624 11.344 16.1624 12.4C16.1624 13.472 16.3544 14.376 16.7384 15.112C17.1384 15.848 17.6664 16.4 18.3224 16.768C18.9784 17.12 19.6984 17.296 20.4824 17.296ZM32.282 8.272C32.714 7.52 33.354 6.896 34.202 6.4C35.066 5.888 36.066 5.632 37.202 5.632C38.37 5.632 39.426 5.912 40.37 6.472C41.33 7.032 42.082 7.824 42.626 8.848C43.17 9.856 43.442 11.032 43.442 12.376C43.442 13.704 43.17 14.888 42.626 15.928C42.082 16.968 41.33 17.776 40.37 18.352C39.426 18.928 38.37 19.216 37.202 19.216C36.082 19.216 35.09 18.968 34.226 18.472C33.378 17.96 32.73 17.328 32.282 16.576V25.24H30.098V5.848H32.282V8.272ZM41.21 12.376C41.21 11.384 41.01 10.52 40.61 9.784C40.21 9.048 39.666 8.488 38.978 8.104C38.306 7.72 37.562 7.528 36.746 7.528C35.946 7.528 35.202 7.728 34.514 8.128C33.842 8.512 33.298 9.08 32.882 9.832C32.482 10.568 32.282 11.424 32.282 12.4C32.282 13.392 32.482 14.264 32.882 15.016C33.298 15.752 33.842 16.32 34.514 16.72C35.202 17.104 35.946 17.296 36.746 17.296C37.562 17.296 38.306 17.104 38.978 16.72C39.666 16.32 40.21 15.752 40.61 15.016C41.01 14.264 41.21 13.384 41.21 12.376ZM48.5008 8.272C48.9328 7.52 49.5728 6.896 50.4208 6.4C51.2848 5.888 52.2848 5.632 53.4208 5.632C54.5888 5.632 55.6448 5.912 56.5887 6.472C57.5487 7.032 58.3008 7.824 58.8448 8.848C59.3888 9.856 59.6608 11.032 59.6608 12.376C59.6608 13.704 59.3888 14.888 58.8448 15.928C58.3008 16.968 57.5487 17.776 56.5887 18.352C55.6448 18.928 54.5888 19.216 53.4208 19.216C52.3008 19.216 51.3088 18.968 50.4448 18.472C49.5968 17.96 48.9488 17.328 48.5008 16.576V25.24H46.3168V5.848H48.5008V8.272ZM57.4288 12.376C57.4288 11.384 57.2288 10.52 56.8288 9.784C56.4288 9.048 55.8848 8.488 55.1968 8.104C54.5248 7.72 53.7808 7.528 52.9648 7.528C52.1648 7.528 51.4208 7.728 50.7328 8.128C50.0608 8.512 49.5168 9.08 49.1008 9.832C48.7008 10.568 48.5008 11.424 48.5008 12.4C48.5008 13.392 48.7008 14.264 49.1008 15.016C49.5168 15.752 50.0608 16.32 50.7328 16.72C51.4208 17.104 52.1648 17.296 52.9648 17.296C53.7808 17.296 54.5248 17.104 55.1968 16.72C55.8848 16.32 56.4288 15.752 56.8288 15.016C57.2288 14.264 57.4288 13.384 57.4288 12.376ZM63.6635 3.712C63.2475 3.712 62.8955 3.568 62.6075 3.28C62.3195 2.992 62.1755 2.64 62.1755 2.224C62.1755 1.808 62.3195 1.456 62.6075 1.168C62.8955 0.879999 63.2475 0.735999 63.6635 0.735999C64.0635 0.735999 64.3995 0.879999 64.6715 1.168C64.9595 1.456 65.1035 1.808 65.1035 2.224C65.1035 2.64 64.9595 2.992 64.6715 3.28C64.3995 3.568 64.0635 3.712 63.6635 3.712ZM64.7195 5.848V19H62.5355V5.848H64.7195ZM74.8498 5.608C76.4498 5.608 77.7458 6.096 78.7378 7.072C79.7298 8.032 80.2258 9.424 80.2258 11.248V19H78.0658V11.56C78.0658 10.248 77.7378 9.248 77.0818 8.56C76.4258 7.856 75.5298 7.504 74.3938 7.504C73.2418 7.504 72.3218 7.864 71.6338 8.584C70.9618 9.304 70.6258 10.352 70.6258 11.728V19H68.4418V5.848H70.6258V7.72C71.0578 7.048 71.6418 6.528 72.3778 6.16C73.1298 5.792 73.9538 5.608 74.8498 5.608ZM88.4493 19.216C87.4413 19.216 86.5373 19.048 85.7373 18.712C84.9373 18.36 84.3053 17.88 83.8413 17.272C83.3773 16.648 83.1213 15.936 83.0733 15.136H85.3293C85.3933 15.792 85.6973 16.328 86.2413 16.744C86.8013 17.16 87.5293 17.368 88.4253 17.368C89.2573 17.368 89.9133 17.184 90.3933 16.816C90.8733 16.448 91.1133 15.984 91.1133 15.424C91.1133 14.848 90.8573 14.424 90.3453 14.152C89.8333 13.864 89.0413 13.584 87.9693 13.312C86.9933 13.056 86.1933 12.8 85.5693 12.544C84.9613 12.272 84.4333 11.88 83.9853 11.368C83.5533 10.84 83.3373 10.152 83.3373 9.304C83.3373 8.632 83.5373 8.016 83.9373 7.456C84.3373 6.896 84.9053 6.456 85.6413 6.136C86.3773 5.8 87.2173 5.632 88.1613 5.632C89.6173 5.632 90.7933 6 91.6893 6.736C92.5853 7.472 93.0653 8.48 93.1293 9.76H90.9453C90.8973 9.072 90.6173 8.52 90.1053 8.104C89.6093 7.688 88.9373 7.48 88.0893 7.48C87.3053 7.48 86.6813 7.648 86.2173 7.984C85.7533 8.32 85.5213 8.76 85.5213 9.304C85.5213 9.736 85.6573 10.096 85.9293 10.384C86.2173 10.656 86.5693 10.88 86.9853 11.056C87.4173 11.216 88.0093 11.4 88.7613 11.608C89.7053 11.864 90.4733 12.12 91.0653 12.376C91.6573 12.616 92.1613 12.984 92.5773 13.48C93.0093 13.976 93.2333 14.624 93.2493 15.424C93.2493 16.144 93.0493 16.792 92.6493 17.368C92.2493 17.944 91.6813 18.4 90.9453 18.736C90.2253 19.056 89.3933 19.216 88.4493 19.216Z" fill="#111827"/>
</svg>
