<svg width="92" height="24" viewBox="0 0 92 24" fill="none" xmlns="http://www.w3.org/2000/svg">
<path d="M0.136 18V0.959999H7.336C8.072 0.959999 8.744 1.112 9.352 1.416C9.96 1.72 10.488 2.136 10.936 2.664C11.4 3.176 11.752 3.752 11.992 4.392C12.248 5.016 12.376 5.656 12.376 6.312C12.376 7.128 12.216 7.896 11.896 8.616C11.592 9.336 11.152 9.944 10.576 10.44C10.016 10.936 9.352 11.264 8.584 11.424L12.76 18H10.864L6.856 11.712H1.816V18H0.136ZM1.816 10.224H7.384C8.056 10.224 8.64 10.04 9.136 9.672C9.632 9.304 10.016 8.824 10.288 8.232C10.56 7.624 10.696 6.984 10.696 6.312C10.696 5.624 10.536 4.992 10.216 4.416C9.912 3.824 9.496 3.352 8.968 3C8.456 2.632 7.88 2.448 7.24 2.448H1.816V10.224ZM14.2842 14.4C14.2842 13.616 14.5082 12.944 14.9562 12.384C15.4042 11.808 16.0202 11.368 16.8042 11.064C17.6042 10.744 18.5242 10.584 19.5642 10.584C20.1722 10.584 20.8042 10.632 21.4602 10.728C22.1162 10.824 22.7002 10.968 23.2122 11.16V10.104C23.2122 9.048 22.9002 8.208 22.2762 7.584C21.6522 6.96 20.7882 6.648 19.6842 6.648C19.0122 6.648 18.3482 6.776 17.6922 7.032C17.0522 7.272 16.3802 7.632 15.6762 8.112L15.0522 6.96C15.8682 6.4 16.6682 5.984 17.4522 5.712C18.2362 5.424 19.0362 5.28 19.8522 5.28C21.3882 5.28 22.6042 5.72 23.5002 6.6C24.3962 7.48 24.8442 8.696 24.8442 10.248V16.032C24.8442 16.256 24.8922 16.424 24.9882 16.536C25.0842 16.632 25.2362 16.688 25.4442 16.704V18C25.2682 18.016 25.1162 18.032 24.9882 18.048C24.8602 18.064 24.7642 18.064 24.7002 18.048C24.3002 18.032 23.9962 17.904 23.7882 17.664C23.5802 17.424 23.4682 17.168 23.4522 16.896L23.4282 15.984C22.8682 16.704 22.1402 17.264 21.2442 17.664C20.3482 18.048 19.4362 18.24 18.5082 18.24C17.7082 18.24 16.9802 18.072 16.3242 17.736C15.6842 17.384 15.1802 16.92 14.8122 16.344C14.4602 15.752 14.2842 15.104 14.2842 14.4ZM22.6602 15.36C22.8362 15.136 22.9722 14.92 23.0682 14.712C23.1642 14.504 23.2122 14.32 23.2122 14.16V12.336C22.6682 12.128 22.1002 11.968 21.5082 11.856C20.9322 11.744 20.3482 11.688 19.7562 11.688C18.5882 11.688 17.6442 11.92 16.9242 12.384C16.2042 12.848 15.8442 13.48 15.8442 14.28C15.8442 14.744 15.9642 15.184 16.2042 15.6C16.4442 16 16.7962 16.336 17.2602 16.608C17.7242 16.864 18.2682 16.992 18.8922 16.992C19.6762 16.992 20.4042 16.84 21.0762 16.536C21.7642 16.232 22.2922 15.84 22.6602 15.36ZM28.4423 0.48H30.0743V15.168C30.0743 15.792 30.1863 16.2 30.4103 16.392C30.6343 16.584 30.9063 16.68 31.2263 16.68C31.5143 16.68 31.8023 16.648 32.0903 16.584C32.3783 16.52 32.6263 16.456 32.8343 16.392L33.1223 17.712C32.8183 17.84 32.4423 17.944 31.9943 18.024C31.5623 18.104 31.1863 18.144 30.8663 18.144C30.1303 18.144 29.5383 17.928 29.0903 17.496C28.6583 17.064 28.4423 16.472 28.4423 15.72V0.48ZM40.3094 18.24C39.4134 18.24 38.5814 18.072 37.8134 17.736C37.0454 17.384 36.3814 16.912 35.8214 16.32C35.2614 15.712 34.8214 15.016 34.5014 14.232C34.1974 13.448 34.0454 12.608 34.0454 11.712C34.0454 10.544 34.3094 9.472 34.8374 8.496C35.3814 7.52 36.1254 6.744 37.0694 6.168C38.0134 5.576 39.0854 5.28 40.2854 5.28C41.5174 5.28 42.5894 5.576 43.5014 6.168C44.4294 6.76 45.1574 7.544 45.6854 8.52C46.2134 9.48 46.4774 10.536 46.4774 11.688C46.4774 11.816 46.4774 11.944 46.4774 12.072C46.4774 12.184 46.4694 12.272 46.4534 12.336H35.7494C35.8294 13.232 36.0774 14.032 36.4934 14.736C36.9254 15.424 37.4774 15.976 38.1494 16.392C38.8374 16.792 39.5814 16.992 40.3814 16.992C41.1974 16.992 41.9654 16.784 42.6854 16.368C43.4214 15.952 43.9334 15.408 44.2214 14.736L45.6374 15.12C45.3814 15.712 44.9894 16.248 44.4614 16.728C43.9334 17.208 43.3094 17.584 42.5894 17.856C41.8854 18.112 41.1254 18.24 40.3094 18.24ZM35.7014 11.16H44.9414C44.8774 10.248 44.6294 9.448 44.1974 8.76C43.7814 8.072 43.2294 7.536 42.5414 7.152C41.8694 6.752 41.1254 6.552 40.3094 6.552C39.4934 6.552 38.7494 6.752 38.0774 7.152C37.4054 7.536 36.8534 8.08 36.4214 8.784C36.0054 9.472 35.7654 10.264 35.7014 11.16ZM64.4112 5.496H66.0192L60.6432 18H59.2272L56.6112 11.784L54.0192 18H52.6032L47.2272 5.496H48.8112L53.3712 16.32L55.6752 10.68L53.5632 5.52H55.0272L56.6112 9.576L58.2192 5.52H59.6592L57.5712 10.68L59.8752 16.32L64.4112 5.496ZM66.8779 14.4C66.8779 13.616 67.1019 12.944 67.5499 12.384C67.9979 11.808 68.6139 11.368 69.3979 11.064C70.1979 10.744 71.1179 10.584 72.1579 10.584C72.7659 10.584 73.3979 10.632 74.0539 10.728C74.7099 10.824 75.2939 10.968 75.8059 11.16V10.104C75.8059 9.048 75.4939 8.208 74.8699 7.584C74.2459 6.96 73.3819 6.648 72.2779 6.648C71.6059 6.648 70.9419 6.776 70.2859 7.032C69.6459 7.272 68.9739 7.632 68.2699 8.112L67.6459 6.96C68.4619 6.4 69.2619 5.984 70.0459 5.712C70.8299 5.424 71.6299 5.28 72.4459 5.28C73.9819 5.28 75.1979 5.72 76.0939 6.6C76.9899 7.48 77.4379 8.696 77.4379 10.248V16.032C77.4379 16.256 77.4859 16.424 77.5819 16.536C77.6779 16.632 77.8299 16.688 78.0379 16.704V18C77.8619 18.016 77.7099 18.032 77.5819 18.048C77.4539 18.064 77.3579 18.064 77.2939 18.048C76.8939 18.032 76.5899 17.904 76.3819 17.664C76.1739 17.424 76.0619 17.168 76.0459 16.896L76.0219 15.984C75.4619 16.704 74.7339 17.264 73.8379 17.664C72.9419 18.048 72.0299 18.24 71.1019 18.24C70.3019 18.24 69.5739 18.072 68.9179 17.736C68.2779 17.384 67.7739 16.92 67.4059 16.344C67.0539 15.752 66.8779 15.104 66.8779 14.4ZM75.2539 15.36C75.4299 15.136 75.5659 14.92 75.6619 14.712C75.7579 14.504 75.8059 14.32 75.8059 14.16V12.336C75.2619 12.128 74.6939 11.968 74.1019 11.856C73.5259 11.744 72.9419 11.688 72.3499 11.688C71.1819 11.688 70.2379 11.92 69.5179 12.384C68.7979 12.848 68.4379 13.48 68.4379 14.28C68.4379 14.744 68.5579 15.184 68.7979 15.6C69.0379 16 69.3899 16.336 69.8539 16.608C70.3179 16.864 70.8619 16.992 71.4859 16.992C72.2699 16.992 72.9979 16.84 73.6699 16.536C74.3579 16.232 74.8859 15.84 75.2539 15.36ZM81.3091 21.84C81.5331 21.856 81.7491 21.864 81.9571 21.864C82.1651 21.88 82.3171 21.872 82.4131 21.84C82.6051 21.808 82.7891 21.696 82.9651 21.504C83.1411 21.312 83.3491 20.944 83.5891 20.4C83.8291 19.856 84.1651 19.056 84.5971 18L79.1491 5.496H80.8771L85.4611 16.32L89.6851 5.496H91.3171L84.8371 21.624C84.7251 21.928 84.5571 22.208 84.3331 22.464C84.1091 22.736 83.8291 22.944 83.4931 23.088C83.1731 23.248 82.7731 23.336 82.2931 23.352C82.1491 23.368 81.9971 23.368 81.8371 23.352C81.6931 23.352 81.5171 23.336 81.3091 23.304V21.84Z" fill="#111827"/>
</svg>
