<svg width="75" height="19" viewBox="0 0 75 19" fill="none" xmlns="http://www.w3.org/2000/svg">
<path d="M0.980469 0.9375H6.62891C7.91016 0.9375 8.99219 1.13281 9.875 1.52344C10.7656 1.91406 11.4414 2.49219 11.9023 3.25781C12.3711 4.01562 12.6055 4.94922 12.6055 6.05859C12.6055 6.83984 12.4453 7.55469 12.125 8.20312C11.8125 8.84375 11.3594 9.39062 10.7656 9.84375C10.1797 10.2891 9.47656 10.6211 8.65625 10.8398L8.02344 11.0859H2.71484L2.69141 9.24609H6.69922C7.51172 9.24609 8.1875 9.10547 8.72656 8.82422C9.26562 8.53516 9.67188 8.14844 9.94531 7.66406C10.2188 7.17969 10.3555 6.64453 10.3555 6.05859C10.3555 5.40234 10.2266 4.82812 9.96875 4.33594C9.71094 3.84375 9.30469 3.46484 8.75 3.19922C8.20312 2.92578 7.49609 2.78906 6.62891 2.78906H3.24219V18H0.980469V0.9375ZM10.9531 18L6.80469 10.2656L9.16016 10.2539L13.3672 17.8594V18H10.9531ZM14.8672 11.8008V11.5312C14.8672 10.6172 15 9.76953 15.2656 8.98828C15.5312 8.19922 15.9141 7.51562 16.4141 6.9375C16.9141 6.35156 17.5195 5.89844 18.2305 5.57812C18.9414 5.25 19.7383 5.08594 20.6211 5.08594C21.5117 5.08594 22.3125 5.25 23.0234 5.57812C23.7422 5.89844 24.3516 6.35156 24.8516 6.9375C25.3594 7.51562 25.7461 8.19922 26.0117 8.98828C26.2773 9.76953 26.4102 10.6172 26.4102 11.5312V11.8008C26.4102 12.7148 26.2773 13.5625 26.0117 14.3438C25.7461 15.125 25.3594 15.8086 24.8516 16.3945C24.3516 16.9727 23.7461 17.4258 23.0352 17.7539C22.332 18.0742 21.5352 18.2344 20.6445 18.2344C19.7539 18.2344 18.9531 18.0742 18.2422 17.7539C17.5312 17.4258 16.9219 16.9727 16.4141 16.3945C15.9141 15.8086 15.5312 15.125 15.2656 14.3438C15 13.5625 14.8672 12.7148 14.8672 11.8008ZM17.0352 11.5312V11.8008C17.0352 12.4336 17.1094 13.0312 17.2578 13.5938C17.4062 14.1484 17.6289 14.6406 17.9258 15.0703C18.2305 15.5 18.6094 15.8398 19.0625 16.0898C19.5156 16.332 20.043 16.4531 20.6445 16.4531C21.2383 16.4531 21.7578 16.332 22.2031 16.0898C22.6562 15.8398 23.0312 15.5 23.3281 15.0703C23.625 14.6406 23.8477 14.1484 23.9961 13.5938C24.1523 13.0312 24.2305 12.4336 24.2305 11.8008V11.5312C24.2305 10.9062 24.1523 10.3164 23.9961 9.76172C23.8477 9.19922 23.6211 8.70312 23.3164 8.27344C23.0195 7.83594 22.6445 7.49219 22.1914 7.24219C21.7461 6.99219 21.2227 6.86719 20.6211 6.86719C20.0273 6.86719 19.5039 6.99219 19.0508 7.24219C18.6055 7.49219 18.2305 7.83594 17.9258 8.27344C17.6289 8.70312 17.4062 9.19922 17.2578 9.76172C17.1094 10.3164 17.0352 10.9062 17.0352 11.5312ZM29.1172 0H31.2969V15.5391L31.1094 18H29.1172V0ZM39.8633 11.5547V11.8008C39.8633 12.7227 39.7539 13.5781 39.5352 14.3672C39.3164 15.1484 38.9961 15.8281 38.5742 16.4062C38.1523 16.9844 37.6367 17.4336 37.0273 17.7539C36.418 18.0742 35.7188 18.2344 34.9297 18.2344C34.125 18.2344 33.418 18.0977 32.8086 17.8242C32.207 17.543 31.6992 17.1406 31.2852 16.6172C30.8711 16.0938 30.5391 15.4609 30.2891 14.7188C30.0469 13.9766 29.8789 13.1406 29.7852 12.2109V11.1328C29.8789 10.1953 30.0469 9.35547 30.2891 8.61328C30.5391 7.87109 30.8711 7.23828 31.2852 6.71484C31.6992 6.18359 32.207 5.78125 32.8086 5.50781C33.4102 5.22656 34.1094 5.08594 34.9062 5.08594C35.7031 5.08594 36.4102 5.24219 37.0273 5.55469C37.6445 5.85938 38.1602 6.29688 38.5742 6.86719C38.9961 7.4375 39.3164 8.12109 39.5352 8.91797C39.7539 9.70703 39.8633 10.5859 39.8633 11.5547ZM37.6836 11.8008V11.5547C37.6836 10.9219 37.625 10.3281 37.5078 9.77344C37.3906 9.21094 37.2031 8.71875 36.9453 8.29688C36.6875 7.86719 36.3477 7.53125 35.9258 7.28906C35.5039 7.03906 34.9844 6.91406 34.3672 6.91406C33.8203 6.91406 33.3438 7.00781 32.9375 7.19531C32.5391 7.38281 32.1992 7.63672 31.918 7.95703C31.6367 8.26953 31.4062 8.62891 31.2266 9.03516C31.0547 9.43359 30.9258 9.84766 30.8398 10.2773V13.1016C30.9648 13.6484 31.168 14.1758 31.4492 14.6836C31.7383 15.1836 32.1211 15.5938 32.5977 15.9141C33.082 16.2344 33.6797 16.3945 34.3906 16.3945C34.9766 16.3945 35.4766 16.2773 35.8906 16.043C36.3125 15.8008 36.6523 15.4688 36.9102 15.0469C37.1758 14.625 37.3711 14.1367 37.4961 13.582C37.6211 13.0273 37.6836 12.4336 37.6836 11.8008ZM42.0312 11.8008V11.5312C42.0312 10.6172 42.1641 9.76953 42.4297 8.98828C42.6953 8.19922 43.0781 7.51562 43.5781 6.9375C44.0781 6.35156 44.6836 5.89844 45.3945 5.57812C46.1055 5.25 46.9023 5.08594 47.7852 5.08594C48.6758 5.08594 49.4766 5.25 50.1875 5.57812C50.9062 5.89844 51.5156 6.35156 52.0156 6.9375C52.5234 7.51562 52.9102 8.19922 53.1758 8.98828C53.4414 9.76953 53.5742 10.6172 53.5742 11.5312V11.8008C53.5742 12.7148 53.4414 13.5625 53.1758 14.3438C52.9102 15.125 52.5234 15.8086 52.0156 16.3945C51.5156 16.9727 50.9102 17.4258 50.1992 17.7539C49.4961 18.0742 48.6992 18.2344 47.8086 18.2344C46.918 18.2344 46.1172 18.0742 45.4062 17.7539C44.6953 17.4258 44.0859 16.9727 43.5781 16.3945C43.0781 15.8086 42.6953 15.125 42.4297 14.3438C42.1641 13.5625 42.0312 12.7148 42.0312 11.8008ZM44.1992 11.5312V11.8008C44.1992 12.4336 44.2734 13.0312 44.4219 13.5938C44.5703 14.1484 44.793 14.6406 45.0898 15.0703C45.3945 15.5 45.7734 15.8398 46.2266 16.0898C46.6797 16.332 47.207 16.4531 47.8086 16.4531C48.4023 16.4531 48.9219 16.332 49.3672 16.0898C49.8203 15.8398 50.1953 15.5 50.4922 15.0703C50.7891 14.6406 51.0117 14.1484 51.1602 13.5938C51.3164 13.0312 51.3945 12.4336 51.3945 11.8008V11.5312C51.3945 10.9062 51.3164 10.3164 51.1602 9.76172C51.0117 9.19922 50.7852 8.70312 50.4805 8.27344C50.1836 7.83594 49.8086 7.49219 49.3555 7.24219C48.9102 6.99219 48.3867 6.86719 47.7852 6.86719C47.1914 6.86719 46.668 6.99219 46.2148 7.24219C45.7695 7.49219 45.3945 7.83594 45.0898 8.27344C44.793 8.70312 44.5703 9.19922 44.4219 9.76172C44.2734 10.3164 44.1992 10.9062 44.1992 11.5312ZM61.6016 5.32031V6.98438H54.7461V5.32031H61.6016ZM57.0664 2.23828H59.2344V14.8594C59.2344 15.2891 59.3008 15.6133 59.4336 15.832C59.5664 16.0508 59.7383 16.1953 59.9492 16.2656C60.1602 16.3359 60.3867 16.3711 60.6289 16.3711C60.8086 16.3711 60.9961 16.3555 61.1914 16.3242C61.3945 16.2852 61.5469 16.2539 61.6484 16.2305L61.6602 18C61.4883 18.0547 61.2617 18.1055 60.9805 18.1523C60.707 18.207 60.375 18.2344 59.9844 18.2344C59.4531 18.2344 58.9648 18.1289 58.5195 17.918C58.0742 17.707 57.7188 17.3555 57.4531 16.8633C57.1953 16.3633 57.0664 15.6914 57.0664 14.8477V2.23828ZM63.3359 11.8008V11.5312C63.3359 10.6172 63.4688 9.76953 63.7344 8.98828C64 8.19922 64.3828 7.51562 64.8828 6.9375C65.3828 6.35156 65.9883 5.89844 66.6992 5.57812C67.4102 5.25 68.207 5.08594 69.0898 5.08594C69.9805 5.08594 70.7812 5.25 71.4922 5.57812C72.2109 5.89844 72.8203 6.35156 73.3203 6.9375C73.8281 7.51562 74.2148 8.19922 74.4805 8.98828C74.7461 9.76953 74.8789 10.6172 74.8789 11.5312V11.8008C74.8789 12.7148 74.7461 13.5625 74.4805 14.3438C74.2148 15.125 73.8281 15.8086 73.3203 16.3945C72.8203 16.9727 72.2148 17.4258 71.5039 17.7539C70.8008 18.0742 70.0039 18.2344 69.1133 18.2344C68.2227 18.2344 67.4219 18.0742 66.7109 17.7539C66 17.4258 65.3906 16.9727 64.8828 16.3945C64.3828 15.8086 64 15.125 63.7344 14.3438C63.4688 13.5625 63.3359 12.7148 63.3359 11.8008ZM65.5039 11.5312V11.8008C65.5039 12.4336 65.5781 13.0312 65.7266 13.5938C65.875 14.1484 66.0977 14.6406 66.3945 15.0703C66.6992 15.5 67.0781 15.8398 67.5312 16.0898C67.9844 16.332 68.5117 16.4531 69.1133 16.4531C69.707 16.4531 70.2266 16.332 70.6719 16.0898C71.125 15.8398 71.5 15.5 71.7969 15.0703C72.0938 14.6406 72.3164 14.1484 72.4648 13.5938C72.6211 13.0312 72.6992 12.4336 72.6992 11.8008V11.5312C72.6992 10.9062 72.6211 10.3164 72.4648 9.76172C72.3164 9.19922 72.0898 8.70312 71.7852 8.27344C71.4883 7.83594 71.1133 7.49219 70.6602 7.24219C70.2148 6.99219 69.6914 6.86719 69.0898 6.86719C68.4961 6.86719 67.9727 6.99219 67.5195 7.24219C67.0742 7.49219 66.6992 7.83594 66.3945 8.27344C66.0977 8.70312 65.875 9.19922 65.7266 9.76172C65.5781 10.3164 65.5039 10.9062 65.5039 11.5312Z" fill="#111827"/>
</svg>
