<svg width="54" height="19" viewBox="0 0 54 19" fill="none" xmlns="http://www.w3.org/2000/svg">
<path d="M7.232 18.432C5.776 18.432 4.536 18.192 3.512 17.712C2.488 17.232 1.704 16.568 1.16 15.72C0.616 14.872 0.344 13.912 0.344 12.84H2.696C2.696 13.368 2.832 13.896 3.104 14.424C3.392 14.952 3.864 15.392 4.52 15.744C5.192 16.096 6.096 16.272 7.232 16.272C8.288 16.272 9.152 16.12 9.824 15.816C10.496 15.496 10.992 15.088 11.312 14.592C11.632 14.08 11.792 13.528 11.792 12.936C11.792 12.216 11.48 11.624 10.856 11.16C10.232 10.68 9.32 10.384 8.12 10.272L6.176 10.104C4.624 9.976 3.384 9.496 2.456 8.664C1.528 7.832 1.064 6.736 1.064 5.376C1.064 4.304 1.32 3.368 1.832 2.568C2.36 1.768 3.088 1.144 4.016 0.696C4.944 0.231999 6.024 -1.43051e-06 7.256 -1.43051e-06C8.472 -1.43051e-06 9.544 0.223999 10.472 0.671999C11.4 1.12 12.12 1.752 12.632 2.568C13.16 3.368 13.424 4.328 13.424 5.448H11.072C11.072 4.888 10.936 4.36 10.664 3.864C10.408 3.368 10 2.96 9.44 2.64C8.88 2.32 8.152 2.16 7.256 2.16C6.392 2.16 5.672 2.312 5.096 2.616C4.536 2.92 4.112 3.32 3.824 3.816C3.552 4.296 3.416 4.816 3.416 5.376C3.416 6.016 3.664 6.584 4.16 7.08C4.656 7.576 5.392 7.864 6.368 7.944L8.312 8.112C9.512 8.208 10.544 8.464 11.408 8.88C12.288 9.28 12.96 9.824 13.424 10.512C13.904 11.184 14.144 11.992 14.144 12.936C14.144 14.008 13.856 14.96 13.28 15.792C12.704 16.624 11.896 17.272 10.856 17.736C9.816 18.2 8.608 18.432 7.232 18.432ZM23.6589 18.432C22.5389 18.432 21.5549 18.24 20.7069 17.856C19.8589 17.472 19.1389 16.968 18.5469 16.344C17.9709 15.704 17.5309 14.992 17.2269 14.208C16.9389 13.424 16.7949 12.624 16.7949 11.808V11.376C16.7949 10.56 16.9469 9.76 17.2509 8.976C17.5549 8.176 18.0029 7.464 18.5949 6.84C19.1869 6.2 19.9069 5.696 20.7549 5.328C21.6029 4.944 22.5709 4.752 23.6589 4.752C24.7469 4.752 25.7149 4.944 26.5629 5.328C27.4109 5.696 28.1309 6.2 28.7229 6.84C29.3149 7.464 29.7629 8.176 30.0669 8.976C30.3709 9.76 30.5229 10.56 30.5229 11.376V11.808C30.5229 12.624 30.3709 13.424 30.0669 14.208C29.7789 14.992 29.3389 15.704 28.7469 16.344C28.1709 16.968 27.4589 17.472 26.6109 17.856C25.7629 18.24 24.7789 18.432 23.6589 18.432ZM23.6589 16.368C24.6189 16.368 25.4349 16.16 26.1069 15.744C26.7949 15.312 27.3149 14.736 27.6669 14.016C28.0349 13.296 28.2189 12.488 28.2189 11.592C28.2189 10.68 28.0349 9.864 27.6669 9.144C27.2989 8.424 26.7709 7.856 26.0829 7.44C25.4109 7.024 24.6029 6.816 23.6589 6.816C22.7309 6.816 21.9229 7.024 21.2349 7.44C20.5469 7.856 20.0189 8.424 19.6509 9.144C19.2829 9.864 19.0989 10.68 19.0989 11.592C19.0989 12.488 19.2749 13.296 19.6269 14.016C19.9949 14.736 20.5149 15.312 21.1869 15.744C21.8749 16.16 22.6989 16.368 23.6589 16.368ZM33.9736 18V5.184H35.7976V10.464H35.7016C35.7016 8.592 36.1096 7.224 36.9256 6.36C37.7576 5.48 38.9976 5.04 40.6456 5.04H41.0776V7.104H40.2616C38.9816 7.104 37.9976 7.448 37.3096 8.136C36.6216 8.808 36.2776 9.784 36.2776 11.064V18H33.9736ZM51.5225 18V14.16H51.1385V9.72C51.1385 8.84 50.9065 8.176 50.4425 7.728C49.9945 7.28 49.3305 7.056 48.4505 7.056C47.9545 7.056 47.4425 7.064 46.9145 7.08C46.3865 7.096 45.8825 7.112 45.4025 7.128C44.9225 7.144 44.5065 7.168 44.1545 7.2V5.184C44.5065 5.152 44.8745 5.128 45.2585 5.112C45.6585 5.08 46.0665 5.064 46.4825 5.064C46.8985 5.048 47.2985 5.04 47.6825 5.04C48.9945 5.04 50.0665 5.2 50.8985 5.52C51.7305 5.824 52.3465 6.328 52.7465 7.032C53.1465 7.736 53.3465 8.688 53.3465 9.888V18H51.5225ZM47.3225 18.336C46.3625 18.336 45.5305 18.176 44.8265 17.856C44.1385 17.52 43.6025 17.04 43.2185 16.416C42.8505 15.792 42.6665 15.04 42.6665 14.16C42.6665 13.248 42.8665 12.488 43.2665 11.88C43.6825 11.272 44.2825 10.816 45.0665 10.512C45.8505 10.192 46.7945 10.032 47.8985 10.032H51.3785V11.76H47.8025C46.8745 11.76 46.1625 11.984 45.6665 12.432C45.1705 12.88 44.9225 13.456 44.9225 14.16C44.9225 14.864 45.1705 15.432 45.6665 15.864C46.1625 16.296 46.8745 16.512 47.8025 16.512C48.3465 16.512 48.8665 16.416 49.3625 16.224C49.8585 16.016 50.2665 15.68 50.5865 15.216C50.9225 14.736 51.1065 14.08 51.1385 13.248L51.7625 14.16C51.6825 15.072 51.4585 15.84 51.0905 16.464C50.7385 17.072 50.2425 17.536 49.6025 17.856C48.9785 18.176 48.2185 18.336 47.3225 18.336Z" fill="#111827"/>
</svg>
