<svg width="160" height="18" viewBox="0 0 160 18" fill="none" xmlns="http://www.w3.org/2000/svg">
<path d="M5.528 17.288C4.424 17.288 3.4 17.08 2.456 16.664C1.512 16.232 0.696 15.664 0.00800008 14.96L1.208 13.568C1.768 14.16 2.424 14.64 3.176 15.008C3.944 15.36 4.736 15.536 5.552 15.536C6.592 15.536 7.4 15.304 7.976 14.84C8.552 14.36 8.84 13.736 8.84 12.968C8.84 12.424 8.72 11.992 8.48 11.672C8.256 11.352 7.944 11.08 7.544 10.856C7.16 10.632 6.72 10.408 6.224 10.184L3.968 9.2C3.472 8.992 2.976 8.72 2.48 8.384C2 8.048 1.592 7.616 1.256 7.088C0.936 6.56 0.776 5.912 0.776 5.144C0.776 4.344 0.984 3.632 1.4 3.008C1.832 2.368 2.424 1.872 3.176 1.52C3.928 1.152 4.776 0.967999 5.72 0.967999C6.664 0.967999 7.536 1.152 8.336 1.52C9.136 1.872 9.816 2.336 10.376 2.912L9.296 4.208C8.816 3.744 8.28 3.384 7.688 3.128C7.112 2.856 6.456 2.72 5.72 2.72C4.84 2.72 4.128 2.928 3.584 3.344C3.056 3.76 2.792 4.32 2.792 5.024C2.792 5.52 2.92 5.936 3.176 6.272C3.448 6.592 3.784 6.856 4.184 7.064C4.584 7.272 4.992 7.464 5.408 7.64L7.64 8.6C8.248 8.856 8.792 9.168 9.272 9.536C9.768 9.888 10.16 10.328 10.448 10.856C10.736 11.368 10.88 12.016 10.88 12.8C10.88 13.632 10.664 14.392 10.232 15.08C9.8 15.752 9.184 16.288 8.384 16.688C7.584 17.088 6.632 17.288 5.528 17.288ZM18.3243 17.288C17.3803 17.288 16.4923 17.048 15.6603 16.568C14.8443 16.088 14.1803 15.392 13.6683 14.48C13.1723 13.568 12.9243 12.472 12.9243 11.192C12.9243 9.88 13.1723 8.768 13.6683 7.856C14.1803 6.944 14.8443 6.248 15.6603 5.768C16.4923 5.288 17.3803 5.048 18.3243 5.048C19.2843 5.048 20.1723 5.288 20.9883 5.768C21.8043 6.248 22.4603 6.944 22.9563 7.856C23.4683 8.768 23.7243 9.88 23.7243 11.192C23.7243 12.472 23.4683 13.568 22.9563 14.48C22.4603 15.392 21.8043 16.088 20.9883 16.568C20.1723 17.048 19.2843 17.288 18.3243 17.288ZM18.3243 15.656C19.3323 15.656 20.1403 15.248 20.7483 14.432C21.3723 13.6 21.6843 12.52 21.6843 11.192C21.6843 9.848 21.3723 8.76 20.7483 7.928C20.1403 7.096 19.3323 6.68 18.3243 6.68C17.3323 6.68 16.5243 7.096 15.9003 7.928C15.2763 8.76 14.9643 9.848 14.9643 11.192C14.9643 12.52 15.2763 13.6 15.9003 14.432C16.5243 15.248 17.3323 15.656 18.3243 15.656ZM30.2041 17.288C28.9721 17.288 28.0681 16.904 27.4921 16.136C26.9161 15.352 26.6281 14.216 26.6281 12.728V5.336H28.6201V12.464C28.6201 13.552 28.7881 14.344 29.1241 14.84C29.4761 15.336 30.0361 15.584 30.8041 15.584C31.4121 15.584 31.9481 15.432 32.4121 15.128C32.8921 14.808 33.4041 14.304 33.9481 13.616V5.336H35.9161V17H34.2841L34.1161 15.176H34.0441C33.5001 15.816 32.9241 16.328 32.3161 16.712C31.7081 17.096 31.0041 17.288 30.2041 17.288ZM39.8508 17V5.336H41.4828L41.6508 7.448H41.7228C42.1228 6.712 42.6108 6.128 43.1868 5.696C43.7628 5.264 44.3788 5.048 45.0348 5.048C45.4988 5.048 45.9148 5.128 46.2828 5.288L45.8988 7.016C45.7068 6.952 45.5308 6.904 45.3708 6.872C45.2108 6.84 45.0108 6.824 44.7708 6.824C44.2748 6.824 43.7548 7.024 43.2108 7.424C42.6828 7.824 42.2188 8.52 41.8188 9.512V17H39.8508ZM52.5448 17.288C51.5208 17.288 50.5928 17.048 49.7608 16.568C48.9288 16.088 48.2728 15.392 47.7928 14.48C47.3128 13.568 47.0728 12.472 47.0728 11.192C47.0728 9.88 47.3288 8.768 47.8408 7.856C48.3688 6.944 49.0568 6.248 49.9048 5.768C50.7688 5.288 51.6968 5.048 52.6888 5.048C53.4568 5.048 54.1128 5.184 54.6568 5.456C55.2168 5.728 55.6968 6.048 56.0968 6.416L55.0888 7.712C54.7528 7.408 54.3928 7.16 54.0088 6.968C53.6408 6.776 53.2248 6.68 52.7608 6.68C52.0568 6.68 51.4248 6.872 50.8648 7.256C50.3208 7.624 49.8888 8.152 49.5688 8.84C49.2648 9.512 49.1128 10.296 49.1128 11.192C49.1128 12.52 49.4408 13.6 50.0968 14.432C50.7688 15.248 51.6408 15.656 52.7128 15.656C53.2568 15.656 53.7608 15.544 54.2248 15.32C54.6888 15.08 55.0968 14.8 55.4488 14.48L56.3128 15.8C55.7848 16.264 55.2008 16.632 54.5608 16.904C53.9208 17.16 53.2488 17.288 52.5448 17.288ZM63.0944 17.288C62.0544 17.288 61.1104 17.048 60.2624 16.568C59.4144 16.072 58.7424 15.368 58.2464 14.456C57.7504 13.544 57.5024 12.456 57.5024 11.192C57.5024 9.912 57.7504 8.816 58.2464 7.904C58.7584 6.992 59.4144 6.288 60.2144 5.792C61.0144 5.296 61.8544 5.048 62.7344 5.048C64.2224 5.048 65.3664 5.544 66.1664 6.536C66.9824 7.528 67.3904 8.856 67.3904 10.52C67.3904 10.728 67.3824 10.936 67.3664 11.144C67.3664 11.336 67.3504 11.504 67.3184 11.648H59.4464C59.5264 12.88 59.9104 13.864 60.5984 14.6C61.3024 15.336 62.2144 15.704 63.3344 15.704C63.8944 15.704 64.4064 15.624 64.8704 15.464C65.3504 15.288 65.8064 15.064 66.2384 14.792L66.9344 16.088C66.4384 16.408 65.8704 16.688 65.2304 16.928C64.6064 17.168 63.8944 17.288 63.0944 17.288ZM59.4224 10.232H65.6624C65.6624 9.048 65.4064 8.152 64.8944 7.544C64.3984 6.92 63.6944 6.608 62.7824 6.608C61.9664 6.608 61.2304 6.928 60.5744 7.568C59.9344 8.192 59.5504 9.08 59.4224 10.232ZM79.6374 17.288C78.5334 17.288 77.5094 17.08 76.5654 16.664C75.6214 16.232 74.8054 15.664 74.1174 14.96L75.3174 13.568C75.8774 14.16 76.5334 14.64 77.2854 15.008C78.0534 15.36 78.8454 15.536 79.6614 15.536C80.7014 15.536 81.5094 15.304 82.0854 14.84C82.6614 14.36 82.9494 13.736 82.9494 12.968C82.9494 12.424 82.8294 11.992 82.5894 11.672C82.3654 11.352 82.0534 11.08 81.6534 10.856C81.2694 10.632 80.8294 10.408 80.3334 10.184L78.0774 9.2C77.5814 8.992 77.0854 8.72 76.5894 8.384C76.1094 8.048 75.7014 7.616 75.3654 7.088C75.0454 6.56 74.8854 5.912 74.8854 5.144C74.8854 4.344 75.0934 3.632 75.5094 3.008C75.9414 2.368 76.5334 1.872 77.2854 1.52C78.0374 1.152 78.8854 0.967999 79.8294 0.967999C80.7734 0.967999 81.6454 1.152 82.4454 1.52C83.2454 1.872 83.9254 2.336 84.4854 2.912L83.4054 4.208C82.9254 3.744 82.3894 3.384 81.7974 3.128C81.2214 2.856 80.5654 2.72 79.8294 2.72C78.9494 2.72 78.2374 2.928 77.6934 3.344C77.1654 3.76 76.9014 4.32 76.9014 5.024C76.9014 5.52 77.0294 5.936 77.2854 6.272C77.5574 6.592 77.8934 6.856 78.2934 7.064C78.6934 7.272 79.1014 7.464 79.5174 7.64L81.7494 8.6C82.3574 8.856 82.9014 9.168 83.3814 9.536C83.8774 9.888 84.2694 10.328 84.5574 10.856C84.8454 11.368 84.9894 12.016 84.9894 12.8C84.9894 13.632 84.7734 14.392 84.3414 15.08C83.9094 15.752 83.2934 16.288 82.4934 16.688C81.6934 17.088 80.7414 17.288 79.6374 17.288ZM90.5857 17.288C89.6097 17.288 88.7937 17 88.1377 16.424C87.4977 15.832 87.1777 15.016 87.1777 13.976C87.1777 12.696 87.7457 11.72 88.8817 11.048C90.0337 10.36 91.8497 9.88 94.3297 9.608C94.3297 9.112 94.2577 8.64 94.1137 8.192C93.9857 7.744 93.7457 7.384 93.3937 7.112C93.0577 6.824 92.5697 6.68 91.9297 6.68C91.2577 6.68 90.6257 6.808 90.0337 7.064C89.4417 7.32 88.9137 7.608 88.4497 7.928L87.6817 6.56C88.2257 6.208 88.8897 5.872 89.6737 5.552C90.4737 5.216 91.3377 5.048 92.2657 5.048C93.6897 5.048 94.7217 5.488 95.3617 6.368C96.0017 7.232 96.3217 8.392 96.3217 9.848V17H94.6897L94.5217 15.608H94.4497C93.9057 16.056 93.3057 16.448 92.6497 16.784C92.0097 17.12 91.3217 17.288 90.5857 17.288ZM91.1617 15.704C91.7217 15.704 92.2497 15.568 92.7457 15.296C93.2417 15.024 93.7697 14.64 94.3297 14.144V10.904C92.3937 11.144 91.0337 11.504 90.2497 11.984C89.4817 12.464 89.0977 13.08 89.0977 13.832C89.0977 14.488 89.2977 14.968 89.6977 15.272C90.0977 15.56 90.5857 15.704 91.1617 15.704ZM99.9914 17V5.336H101.623L101.791 7.016H101.863C102.423 6.456 103.015 5.992 103.639 5.624C104.263 5.24 104.975 5.048 105.775 5.048C107.007 5.048 107.903 5.44 108.463 6.224C109.039 6.992 109.327 8.12 109.327 9.608V17H107.359V9.872C107.359 8.784 107.183 7.992 106.831 7.496C106.479 7 105.919 6.752 105.151 6.752C104.559 6.752 104.023 6.904 103.543 7.208C103.079 7.512 102.551 7.96 101.959 8.552V17H99.9914ZM116.164 17.288C115.332 17.288 114.54 17.136 113.788 16.832C113.036 16.512 112.38 16.128 111.82 15.68L112.804 14.36C113.316 14.76 113.844 15.096 114.388 15.368C114.932 15.624 115.548 15.752 116.236 15.752C117.004 15.752 117.58 15.576 117.964 15.224C118.348 14.856 118.54 14.424 118.54 13.928C118.54 13.528 118.404 13.192 118.132 12.92C117.876 12.648 117.54 12.424 117.124 12.248C116.724 12.056 116.308 11.88 115.876 11.72C115.332 11.512 114.796 11.28 114.268 11.024C113.74 10.752 113.308 10.408 112.972 9.992C112.636 9.56 112.468 9.016 112.468 8.36C112.468 7.416 112.82 6.632 113.524 6.008C114.244 5.368 115.236 5.048 116.5 5.048C117.22 5.048 117.892 5.176 118.516 5.432C119.14 5.688 119.676 6 120.124 6.368L119.164 7.616C118.764 7.312 118.348 7.064 117.916 6.872C117.484 6.68 117.012 6.584 116.5 6.584C115.764 6.584 115.22 6.752 114.868 7.088C114.532 7.424 114.364 7.816 114.364 8.264C114.364 8.632 114.484 8.936 114.724 9.176C114.964 9.4 115.276 9.6 115.66 9.776C116.044 9.936 116.452 10.104 116.884 10.28C117.444 10.488 117.996 10.728 118.54 11C119.084 11.256 119.532 11.608 119.884 12.056C120.252 12.488 120.436 13.072 120.436 13.808C120.436 14.432 120.268 15.008 119.932 15.536C119.612 16.064 119.132 16.488 118.492 16.808C117.868 17.128 117.092 17.288 116.164 17.288ZM128.168 17V1.256H132.656C133.84 1.256 134.872 1.4 135.752 1.688C136.632 1.976 137.32 2.464 137.816 3.152C138.312 3.824 138.56 4.736 138.56 5.888C138.56 7.536 138.024 8.76 136.952 9.56C135.88 10.36 134.48 10.76 132.752 10.76H130.16V17H128.168ZM130.16 9.128H132.512C133.888 9.128 134.904 8.872 135.56 8.36C136.232 7.832 136.568 7.008 136.568 5.888C136.568 4.752 136.216 3.968 135.512 3.536C134.824 3.088 133.792 2.864 132.416 2.864H130.16V9.128ZM141.57 17V5.336H143.202L143.37 7.448H143.442C143.842 6.712 144.33 6.128 144.906 5.696C145.482 5.264 146.098 5.048 146.754 5.048C147.218 5.048 147.634 5.128 148.002 5.288L147.618 7.016C147.426 6.952 147.25 6.904 147.09 6.872C146.93 6.84 146.73 6.824 146.49 6.824C145.994 6.824 145.474 7.024 144.93 7.424C144.402 7.824 143.938 8.52 143.538 9.512V17H141.57ZM154.192 17.288C153.248 17.288 152.36 17.048 151.528 16.568C150.712 16.088 150.048 15.392 149.536 14.48C149.04 13.568 148.792 12.472 148.792 11.192C148.792 9.88 149.04 8.768 149.536 7.856C150.048 6.944 150.712 6.248 151.528 5.768C152.36 5.288 153.248 5.048 154.192 5.048C155.152 5.048 156.04 5.288 156.856 5.768C157.672 6.248 158.328 6.944 158.824 7.856C159.336 8.768 159.592 9.88 159.592 11.192C159.592 12.472 159.336 13.568 158.824 14.48C158.328 15.392 157.672 16.088 156.856 16.568C156.04 17.048 155.152 17.288 154.192 17.288ZM154.192 15.656C155.2 15.656 156.008 15.248 156.616 14.432C157.24 13.6 157.552 12.52 157.552 11.192C157.552 9.848 157.24 8.76 156.616 7.928C156.008 7.096 155.2 6.68 154.192 6.68C153.2 6.68 152.392 7.096 151.768 7.928C151.144 8.76 150.832 9.848 150.832 11.192C150.832 12.52 151.144 13.6 151.768 14.432C152.392 15.248 153.2 15.656 154.192 15.656Z" fill="#111827"/>
</svg>
