<svg width="85" height="24" viewBox="0 0 85 24" fill="none" xmlns="http://www.w3.org/2000/svg">
<path d="M5.336 18.24C4.344 18.24 3.504 18.152 2.816 17.976C2.128 17.784 1.416 17.504 0.68 17.136L0.44 13.2H0.824L2 15.744C2.576 16.224 3.136 16.576 3.68 16.8C4.224 17.008 4.776 17.112 5.336 17.112C6.28 17.112 7.016 16.864 7.544 16.368C8.088 15.872 8.36 15.2 8.36 14.352C8.36 13.648 8.2 13.096 7.88 12.696C7.576 12.296 7.128 11.944 6.536 11.64C5.96 11.32 5.272 10.96 4.472 10.56C3.72 10.176 3.08 9.8 2.552 9.432C2.024 9.064 1.624 8.64 1.352 8.16C1.08 7.664 0.944 7.048 0.944 6.312C0.944 5.768 1.072 5.24 1.328 4.728C1.6 4.2 1.96 3.728 2.408 3.312C2.872 2.88 3.384 2.544 3.944 2.304C4.52 2.048 5.112 1.92 5.72 1.92C6.456 1.92 7.136 2.008 7.76 2.184C8.384 2.36 9.024 2.608 9.68 2.928L9.92 6.768H9.536L8.432 4.248C7.872 3.832 7.384 3.536 6.968 3.36C6.552 3.168 6.072 3.072 5.528 3.072C4.824 3.072 4.24 3.312 3.776 3.792C3.328 4.272 3.104 4.864 3.104 5.568C3.104 6.384 3.352 7.024 3.848 7.488C4.344 7.936 5.12 8.416 6.176 8.928C7.152 9.408 7.952 9.856 8.576 10.272C9.2 10.672 9.664 11.136 9.968 11.664C10.272 12.192 10.424 12.864 10.424 13.68C10.424 14.432 10.264 15.096 9.944 15.672C9.624 16.232 9.208 16.704 8.696 17.088C8.2 17.472 7.648 17.76 7.04 17.952C6.448 18.144 5.88 18.24 5.336 18.24ZM12.902 23.52V23.136L14.414 22.368V9.696L12.974 8.448V8.28L15.95 6.96H16.094L16.286 8.424H16.454C17.062 7.912 17.646 7.544 18.206 7.32C18.766 7.08 19.374 6.96 20.03 6.96C20.846 6.96 21.566 7.168 22.19 7.584C22.814 8 23.302 8.592 23.654 9.36C24.022 10.112 24.206 11.016 24.206 12.072C24.206 13.384 23.958 14.504 23.462 15.432C22.982 16.344 22.326 17.04 21.494 17.52C20.662 18 19.75 18.24 18.758 18.24C17.862 18.24 17.054 18.16 16.334 18V22.368L18.038 23.136V23.52H12.902ZM18.71 8.616C18.326 8.616 17.926 8.68 17.51 8.808C17.11 8.92 16.718 9.096 16.334 9.336V16.08C16.814 16.464 17.302 16.728 17.798 16.872C18.294 17.016 18.846 17.088 19.454 17.088C20.222 17.088 20.886 16.768 21.446 16.128C22.006 15.472 22.286 14.384 22.286 12.864C22.286 11.872 22.126 11.064 21.806 10.44C21.486 9.816 21.054 9.36 20.51 9.072C19.966 8.768 19.366 8.616 18.71 8.616ZM31.7004 18.24C30.1484 18.24 28.9244 17.768 28.0284 16.824C27.1324 15.88 26.6844 14.632 26.6844 13.08C26.6844 11.88 26.9164 10.824 27.3804 9.912C27.8604 8.984 28.4844 8.264 29.2524 7.752C30.0364 7.224 30.8844 6.96 31.7964 6.96C33.0604 6.96 34.0524 7.4 34.7724 8.28C35.5084 9.16 35.8764 10.424 35.8764 12.072L35.7564 12.192H28.5804C28.5964 12.928 28.7404 13.624 29.0124 14.28C29.2844 14.92 29.7164 15.44 30.3084 15.84C30.9164 16.24 31.7244 16.44 32.7324 16.44C33.6124 16.44 34.6444 16.12 35.8284 15.48H35.9004V15.72C35.5324 16.408 34.9804 17 34.2444 17.496C33.5244 17.992 32.6764 18.24 31.7004 18.24ZM31.4124 8.016C30.6444 8.016 30.0124 8.288 29.5164 8.832C29.0364 9.36 28.7404 10.112 28.6284 11.088H34.0524C33.8764 10 33.5644 9.216 33.1164 8.736C32.6844 8.256 32.1164 8.016 31.4124 8.016ZM43.3254 18.24C41.7734 18.24 40.5494 17.768 39.6534 16.824C38.7574 15.88 38.3094 14.632 38.3094 13.08C38.3094 11.88 38.5494 10.824 39.0294 9.912C39.5254 8.984 40.1894 8.264 41.0214 7.752C41.8534 7.224 42.7894 6.96 43.8294 6.96C44.4694 6.96 45.0934 7.072 45.7014 7.296C46.3094 7.504 46.7734 7.784 47.0934 8.136C47.3494 8.44 47.4774 8.68 47.4774 8.856C47.4774 9.08 47.3734 9.272 47.1654 9.432L46.2534 10.2H46.0854L45.2694 9.096C45.0294 8.776 44.7254 8.52 44.3574 8.328C44.0054 8.12 43.5654 8.016 43.0374 8.016C42.1574 8.016 41.4614 8.368 40.9494 9.072C40.4534 9.76 40.2054 10.728 40.2054 11.976C40.2054 12.744 40.3334 13.472 40.5894 14.16C40.8454 14.832 41.2694 15.384 41.8614 15.816C42.4694 16.232 43.3014 16.44 44.3574 16.44C45.2374 16.44 46.2694 16.12 47.4534 15.48H47.5254V15.72C47.1574 16.408 46.6054 17 45.8694 17.496C45.1494 17.992 44.3014 18.24 43.3254 18.24ZM53.5858 18.24C52.8818 18.24 52.2738 18.032 51.7617 17.616C51.2498 17.2 50.9938 16.616 50.9938 15.864V8.328H49.0258V8.184L51.0658 7.2L52.7698 4.56H52.9138V7.2H56.0818V8.328H52.9138V15.456C52.9138 15.872 53.0978 16.176 53.4658 16.368C53.8338 16.56 54.2658 16.656 54.7617 16.656C55.0658 16.656 55.3458 16.64 55.6018 16.608C55.8738 16.576 56.1058 16.536 56.2978 16.488H56.3698V16.728C56.2098 17.096 55.8898 17.44 55.4098 17.76C54.9458 18.08 54.3378 18.24 53.5858 18.24ZM58.5605 18V17.616L60.0725 16.848V9.696L58.6325 8.448V8.28L61.6085 6.96H61.7525L61.9685 9H62.0645C62.4325 8.408 62.7685 7.968 63.0725 7.68C63.3925 7.376 63.6885 7.184 63.9605 7.104C64.2325 7.008 64.5045 6.96 64.7765 6.96C64.9045 6.96 65.0485 6.984 65.2085 7.032C65.3845 7.08 65.5285 7.128 65.6405 7.176C65.8165 7.256 65.9765 7.352 66.1205 7.464C66.2805 7.576 66.3605 7.704 66.3605 7.848C66.3605 7.992 66.3285 8.136 66.2645 8.28L65.7845 9.456H65.6165L64.7045 9.096C64.5285 9.016 64.3525 8.968 64.1765 8.952C64.0165 8.936 63.8565 8.928 63.6965 8.928C63.0245 8.928 62.4565 9.272 61.9925 9.96V16.848L63.6965 17.616V18H58.5605ZM70.8299 18.24C70.0779 18.24 69.4539 18.024 68.9579 17.592C68.4619 17.144 68.2139 16.528 68.2139 15.744C68.2139 14.96 68.5019 14.28 69.0779 13.704C69.6699 13.128 70.6539 12.68 72.0299 12.36L74.3099 11.832V10.08C74.3099 9.536 74.0859 9.072 73.6379 8.688C73.2059 8.288 72.7099 8.088 72.1499 8.088C71.5419 8.088 71.1179 8.256 70.8779 8.592C70.6379 8.912 70.5179 9.344 70.5179 9.888V10.56L70.3979 10.68H69.1499C68.9099 10.68 68.7419 10.64 68.6459 10.56C68.5659 10.48 68.5259 10.296 68.5259 10.008C68.5259 9.656 68.6299 9.296 68.8379 8.928C69.0459 8.56 69.3659 8.24 69.7979 7.968C70.2459 7.68 70.7099 7.44 71.1899 7.248C71.6859 7.056 72.2139 6.96 72.7739 6.96C73.3339 6.96 73.8779 7.04 74.4059 7.2C74.9499 7.36 75.3899 7.632 75.7259 8.016C76.0619 8.384 76.2299 8.904 76.2299 9.576V16.392C76.3419 16.504 76.5019 16.6 76.7099 16.68C76.9179 16.76 77.2059 16.8 77.5739 16.8H78.4859L78.5579 16.848V16.92C78.3659 17.272 78.0779 17.584 77.6939 17.856C77.3259 18.112 76.8699 18.24 76.3259 18.24C75.8299 18.24 75.4219 18.112 75.1019 17.856C74.7979 17.584 74.5819 17.232 74.4539 16.8H74.3099C73.8939 17.216 73.3739 17.56 72.7499 17.832C72.1419 18.104 71.5019 18.24 70.8299 18.24ZM70.0859 15.264C70.0859 16.256 70.6859 16.752 71.8859 16.752C72.2699 16.752 72.6459 16.712 73.0139 16.632C73.3979 16.552 73.8299 16.408 74.3099 16.2V12.648C73.0299 12.888 72.0939 13.144 71.5019 13.416C70.9099 13.672 70.5259 13.952 70.3499 14.256C70.1739 14.56 70.0859 14.896 70.0859 15.264ZM79.7669 18V17.616L81.2789 16.848V2.736L79.8389 1.488V1.32L83.0549 -1.43051e-06H83.1989V16.848L84.7109 17.616V18H79.7669Z" fill="#111827"/>
</svg>
