<svg width="123" height="19" viewBox="0 0 123 19" fill="none" xmlns="http://www.w3.org/2000/svg">
<path d="M7.92 18H5.544L0.864 2.16H2.928L6.744 16.488L10.488 2.16H12.672L16.416 16.536L20.256 2.16H22.2L17.544 18H15.168L12.36 7.728L11.544 4.152H11.52L10.704 7.728L7.92 18ZM29.5382 5.76C31.3462 5.76 32.7622 6.312 33.7862 7.416C34.8262 8.52 35.3462 10.048 35.3462 12C35.3462 13.952 34.8262 15.48 33.7862 16.584C32.7622 17.688 31.3462 18.24 29.5382 18.24C27.7302 18.24 26.3062 17.688 25.2662 16.584C24.2422 15.48 23.7302 13.952 23.7302 12C23.7302 10.048 24.2422 8.52 25.2662 7.416C26.3062 6.312 27.7302 5.76 29.5382 5.76ZM29.5382 7.416C28.3222 7.416 27.3702 7.824 26.6822 8.64C25.9942 9.456 25.6502 10.576 25.6502 12C25.6502 13.424 25.9942 14.544 26.6822 15.36C27.3702 16.176 28.3222 16.584 29.5382 16.584C30.7542 16.584 31.7062 16.176 32.3942 15.36C33.0822 14.544 33.4262 13.424 33.4262 12C33.4262 10.576 33.0822 9.456 32.3942 8.64C31.7062 7.824 30.7542 7.416 29.5382 7.416ZM44.7398 5.76C45.3158 5.76 45.7558 5.84 46.0598 6L45.6758 7.872C45.2918 7.664 44.7878 7.56 44.1638 7.56C43.6518 7.56 43.1478 7.712 42.6518 8.016C42.1718 8.304 41.7718 8.752 41.4518 9.36C41.1478 9.952 40.9958 10.672 40.9958 11.52V18H39.0758V6H40.6358L40.8998 7.968C41.5718 6.496 42.8518 5.76 44.7398 5.76ZM53.3366 12.072L50.7926 14.616V18H48.8726V0.48H50.7926V12.216L57.0086 6H59.4086L54.7286 10.68L59.6966 18H57.3686L53.3366 12.072ZM75.5784 1.92C78.4104 1.92 80.4504 3.04 81.6984 5.28L80.0424 6.624C79.5624 5.568 78.9864 4.824 78.3144 4.392C77.6584 3.944 76.7544 3.72 75.6024 3.72C74.3864 3.72 73.4264 3.976 72.7224 4.488C72.0344 4.984 71.6904 5.624 71.6904 6.408C71.6904 6.92 71.8264 7.344 72.0984 7.68C72.3704 8.016 72.8184 8.312 73.4424 8.568C74.0824 8.808 74.9624 9.024 76.0824 9.216C78.1784 9.568 79.6584 10.096 80.5224 10.8C81.4024 11.504 81.8424 12.48 81.8424 13.728C81.8424 14.624 81.5864 15.416 81.0744 16.104C80.5784 16.776 79.8664 17.304 78.9384 17.688C78.0104 18.056 76.9384 18.24 75.7224 18.24C74.1224 18.24 72.7544 17.928 71.6184 17.304C70.4984 16.68 69.6424 15.848 69.0504 14.808L70.7064 13.464C71.1384 14.408 71.7704 15.144 72.6024 15.672C73.4504 16.184 74.5064 16.44 75.7704 16.44C77.0184 16.44 78.0104 16.216 78.7464 15.768C79.4824 15.304 79.8504 14.656 79.8504 13.824C79.8504 13.12 79.5304 12.56 78.8904 12.144C78.2504 11.728 77.1144 11.376 75.4824 11.088C73.3704 10.72 71.8744 10.192 70.9944 9.504C70.1144 8.816 69.6744 7.856 69.6744 6.624C69.6744 5.776 69.9144 4.992 70.3944 4.272C70.8744 3.552 71.5624 2.984 72.4584 2.568C73.3544 2.136 74.3944 1.92 75.5784 1.92ZM95.1111 16.608C95.4311 16.608 95.7511 16.568 96.0711 16.488L95.9511 18C95.5031 18.16 95.0231 18.24 94.5111 18.24C93.8871 18.24 93.3911 18.104 93.0231 17.832C92.6711 17.56 92.4471 17.104 92.3511 16.464C91.9831 17.024 91.4391 17.464 90.7191 17.784C90.0151 18.088 89.2711 18.24 88.4871 18.24C87.3031 18.24 86.3271 17.968 85.5591 17.424C84.7911 16.864 84.4071 16.064 84.4071 15.024C84.4071 14.112 84.8071 13.328 85.6071 12.672C86.4071 12 87.5671 11.536 89.0871 11.28L92.2791 10.752V10.08C92.2791 9.28 92.0311 8.64 91.5351 8.16C91.0391 7.68 90.3511 7.44 89.4711 7.44C88.6711 7.44 87.9751 7.632 87.3831 8.016C86.8071 8.4 86.3591 8.968 86.0391 9.72L84.6231 8.688C84.9431 7.792 85.5351 7.08 86.3991 6.552C87.2791 6.024 88.3031 5.76 89.4711 5.76C90.8951 5.76 92.0391 6.104 92.9031 6.792C93.7671 7.48 94.1991 8.496 94.1991 9.84V15.744C94.1991 16.032 94.2711 16.248 94.4151 16.392C94.5591 16.536 94.7911 16.608 95.1111 16.608ZM88.5831 16.56C89.5911 16.56 90.4551 16.32 91.1751 15.84C91.9111 15.36 92.2791 14.736 92.2791 13.968V12.312L89.5911 12.816C88.5191 13.008 87.7191 13.288 87.1911 13.656C86.6631 14.008 86.3991 14.464 86.3991 15.024C86.3991 15.52 86.5911 15.904 86.9751 16.176C87.3591 16.432 87.8951 16.56 88.5831 16.56ZM104.697 5.76C106.057 5.76 107.177 6.152 108.057 6.936C108.937 7.72 109.377 8.848 109.377 10.32V18H107.457V10.992C107.457 9.744 107.185 8.84 106.641 8.28C106.113 7.72 105.401 7.44 104.505 7.44C103.865 7.44 103.265 7.584 102.705 7.872C102.145 8.144 101.681 8.6 101.313 9.24C100.961 9.864 100.785 10.656 100.785 11.616V18H98.8648V6H100.545L100.665 7.872C101.065 7.152 101.617 6.624 102.321 6.288C103.025 5.936 103.817 5.76 104.697 5.76ZM117.804 18.24C116.652 18.24 115.612 18.016 114.684 17.568C113.756 17.104 113.076 16.424 112.644 15.528L114.204 14.448C114.476 15.152 114.948 15.68 115.62 16.032C116.292 16.384 117.084 16.56 117.996 16.56C118.94 16.56 119.66 16.392 120.156 16.056C120.652 15.72 120.9 15.296 120.9 14.784C120.9 14.32 120.668 13.952 120.204 13.68C119.74 13.392 118.924 13.144 117.756 12.936C116.604 12.728 115.692 12.48 115.02 12.192C114.348 11.888 113.86 11.512 113.556 11.064C113.252 10.6 113.1 10.032 113.1 9.36C113.1 8.704 113.292 8.104 113.676 7.56C114.06 7.016 114.612 6.584 115.332 6.264C116.052 5.928 116.884 5.76 117.828 5.76C119.108 5.76 120.132 6 120.9 6.48C121.684 6.944 122.244 7.664 122.58 8.64L120.948 9.6C120.692 8.832 120.3 8.28 119.772 7.944C119.26 7.608 118.612 7.44 117.828 7.44C117.044 7.44 116.38 7.616 115.836 7.968C115.292 8.32 115.02 8.728 115.02 9.192C115.02 9.72 115.252 10.128 115.716 10.416C116.196 10.704 117.044 10.952 118.26 11.16C119.924 11.432 121.1 11.84 121.788 12.384C122.476 12.928 122.82 13.696 122.82 14.688C122.82 15.376 122.612 15.992 122.196 16.536C121.796 17.064 121.212 17.48 120.444 17.784C119.692 18.088 118.812 18.24 117.804 18.24Z" fill="#111827"/>
</svg>
