<svg width="160" height="46" viewBox="0 0 160 46" fill="none" xmlns="http://www.w3.org/2000/svg">
<path fill-rule="evenodd" clip-rule="evenodd" d="M26.6046 3.72414C25.1108 2.23101 22.6895 2.2315 21.1964 3.72525L8.73505 16.1917L8.72443 16.1886L8.68505 16.1928C8.70127 16.2006 8.71719 16.2083 8.73279 16.2161C6.54681 16.4451 5.61933 17.102 5.60883 17.9456C5.61253 18.2594 5.74128 18.5983 5.97777 18.9501L5.9664 18.9615C7.95368 21.9588 17.7986 25.9127 24.7636 23.2338C19.5436 25.8438 7.25025 26.3611 3.6395 21.2935C2.85536 22.1418 2.52728 23.2566 2.65083 24.3279C3.60469 29.5853 14.2689 31.0196 24.9332 23.4023L27.2409 25.71C24.3693 28.6602 20.1276 45.7967 26.4303 43.1803C26.5798 43.0788 26.7067 42.988 26.8793 42.8574L27.1602 42.5922C27.144 42.5962 27.1279 42.6 27.1119 42.6038L43.9919 26.6681C45.5592 25.1884 45.5947 22.7065 44.0702 21.1826L26.6046 3.72414ZM24.7664 8.91743L25.3433 6.60974L25.9202 8.91743L27.651 9.49436L25.9202 10.0713L25.3433 12.379L24.7664 10.0713L23.0356 9.49436L24.7664 8.91743ZM17.6255 16.4508L18.0101 14.9123L18.3947 16.4508L19.5486 16.8354L18.3947 17.22L18.0101 18.7585L17.6255 17.22L16.4717 16.8354L17.6255 16.4508ZM31.0211 29.4277L30.6365 30.9661L29.4827 31.3508L30.6365 31.7354L31.0211 33.2738L31.4057 31.7354L32.5596 31.3508L31.4057 30.9661L31.0211 29.4277Z" fill="#4B5563"/>
<path d="M54.898 12.2755H51.3159V28.4387H61.2323V25.2716H54.898V12.2755Z" fill="#4B5563"/>
<path d="M61.5745 22.9562C61.5745 26.4073 63.8898 28.7007 67.3845 28.7007C70.8575 28.7007 73.1727 26.4073 73.1727 22.9562C73.1727 19.5051 70.8575 17.1899 67.3845 17.1899C63.8898 17.1899 61.5745 19.5051 61.5745 22.9562ZM64.9601 22.9344C64.9601 21.2962 65.9211 20.2041 67.3845 20.2041C68.8261 20.2041 69.7872 21.2962 69.7872 22.9344C69.7872 24.5944 68.8261 25.6865 67.3845 25.6865C65.9211 25.6865 64.9601 24.5944 64.9601 22.9344Z" fill="#4B5563"/>
<path d="M73.7135 22.7815C73.7135 26.0796 75.8541 28.3075 78.8901 28.3075C80.3536 28.3075 81.6204 27.7833 82.2538 26.9315V28.4386C82.2538 29.9457 81.3146 30.9505 79.6546 30.9505C78.1693 30.9505 77.1428 30.2515 77.0772 29.0065H73.6699C73.9756 31.9989 76.2909 34.0084 79.458 34.0084C83.1931 34.0084 85.552 31.5839 85.552 27.7396V17.5175H82.5159L82.3412 18.6314C81.7296 17.7359 80.4409 17.1462 78.9557 17.1462C75.8978 17.1462 73.7135 19.4396 73.7135 22.7815ZM77.1209 22.6941C77.1209 21.1215 78.1694 20.073 79.5017 20.073C81.0525 20.073 82.1883 21.0996 82.1883 22.6941C82.1883 24.2886 81.0744 25.3807 79.5236 25.3807C78.1912 25.3807 77.1209 24.2886 77.1209 22.6941Z" fill="#4B5563"/>
<path d="M86.5327 22.9562C86.5327 26.4073 88.8479 28.7007 92.3427 28.7007C95.8156 28.7007 98.1309 26.4073 98.1309 22.9562C98.1309 19.5051 95.8156 17.1899 92.3427 17.1899C88.8479 17.1899 86.5327 19.5051 86.5327 22.9562ZM89.9182 22.9344C89.9182 21.2962 90.8793 20.2041 92.3427 20.2041C93.7843 20.2041 94.7453 21.2962 94.7453 22.9344C94.7453 24.5944 93.7843 25.6865 92.3427 25.6865C90.8793 25.6865 89.9182 24.5944 89.9182 22.9344Z" fill="#4B5563"/>
<path d="M101.031 15.8139C102.079 15.8139 102.931 14.9621 102.931 13.8918C102.931 12.8215 102.079 11.9915 101.031 11.9915C99.9608 11.9915 99.1089 12.8215 99.1089 13.8918C99.1089 14.9621 99.9608 15.8139 101.031 15.8139ZM99.3273 28.4387H102.713V17.5176H99.3273V28.4387Z" fill="#4B5563"/>
<path d="M104.683 33.6808H108.003V27.3466C108.637 28.1766 110.078 28.7445 111.586 28.7445C114.84 28.7445 116.806 26.2545 116.718 22.8034C116.631 19.2868 114.6 17.1681 111.564 17.1681C110.013 17.1681 108.55 17.8452 107.938 18.85L107.763 17.5176H104.683V33.6808ZM108.069 22.9781C108.069 21.34 109.161 20.2479 110.734 20.2479C112.328 20.2479 113.333 21.3618 113.333 22.9781C113.333 24.5945 112.328 25.7084 110.734 25.7084C109.161 25.7084 108.069 24.6163 108.069 22.9781Z" fill="#4B5563"/>
<path d="M117.077 24.9876C117.164 27.1937 118.912 28.7226 121.664 28.7226C124.307 28.7226 126.142 27.3247 126.142 25.075C126.142 23.4587 125.18 22.3884 123.389 21.9516L121.445 21.471C120.746 21.2963 120.31 21.1216 120.31 20.5537C120.31 19.9858 120.768 19.6144 121.445 19.6144C122.21 19.6144 122.712 20.1168 122.69 20.8595H125.727C125.639 18.5879 123.914 17.1681 121.511 17.1681C119.086 17.1681 117.274 18.6097 117.274 20.7939C117.274 22.2574 118.082 23.4587 120.244 24.0266L122.166 24.5289C122.734 24.6818 122.974 24.9439 122.974 25.3153C122.974 25.8613 122.472 26.2108 121.62 26.2108C120.637 26.2108 120.113 25.7521 120.113 24.9876H117.077Z" fill="#4B5563"/>
<path d="M131.29 28.7226C132.623 28.7226 133.955 28.1111 134.632 27.2155L134.851 28.4387H138.018V17.5176H134.654V23.1966C134.654 24.8347 134.173 25.7303 132.623 25.7303C131.421 25.7303 130.635 25.1842 130.635 23.1529V17.5176H127.271V24.376C127.271 26.9753 128.713 28.7226 131.29 28.7226Z" fill="#4B5563"/>
<path d="M143.352 28.4386V22.4757C143.352 20.6409 144.335 20.1167 145.296 20.1167C146.366 20.1167 147.065 20.772 147.065 22.1262V28.4386H150.385V22.4757C150.385 20.6191 151.346 20.0949 152.307 20.0949C153.377 20.0949 154.098 20.7501 154.098 22.1262V28.4386H157.375V21.2962C157.375 18.8062 156.064 17.1462 153.246 17.1462C151.674 17.1462 150.385 17.9107 149.817 19.0901C149.162 17.9107 148.026 17.1462 146.213 17.1462C145.012 17.1462 143.898 17.6922 143.243 18.5659L143.112 17.5175H139.966V28.4386H143.352Z" fill="#4B5563"/>
<path fill-rule="evenodd" clip-rule="evenodd" d="M45.2917 5.25122C41.683 5.25122 38.2607 6.85413 35.9504 9.62643L27.7314 19.4893L32.4774 12.3702L24.5994 15.7465C23.5989 16.1753 23.3479 17.4788 24.1175 18.2485L26.6527 20.7836L25.3583 22.3369L28.206 25.1845L29.7592 23.8901L32.2944 26.4253C33.064 27.1949 34.3676 26.9439 34.7963 25.9435L38.1726 18.0655L31.0536 22.8115L40.9165 14.5924C43.6888 12.2822 45.2917 8.85994 45.2917 5.25122ZM37.4608 13.0823C38.2471 13.8686 39.522 13.8686 40.3084 13.0823C41.0947 12.2959 41.0947 11.021 40.3084 10.2347C39.522 9.44835 38.2471 9.44835 37.4608 10.2347C36.6744 11.021 36.6744 12.2959 37.4608 13.0823Z" fill="#9CA3AF"/>
<path opacity="0.6" d="M3.54785 21.1609C5.43331 27.6207 16.8965 27.2839 24.7613 23.2348C19.4949 25.8664 7.03687 26.369 3.54785 21.1609Z" fill="#4B5563"/>
<path opacity="0.6" d="M26.4304 43.1803C21.1196 45.3849 23.2956 33.5645 25.83 28.0245C23.9826 32.9487 22.4056 43.8038 27.1603 42.5922L26.8794 42.8574C26.7068 42.988 26.5799 43.0788 26.4304 43.1803Z" fill="#4B5563"/>
</svg>
