<svg width="150" height="57" viewBox="0 0 150 57" fill="none" xmlns="http://www.w3.org/2000/svg">
<path d="M30.5703 28.9046C30.5703 26.8237 31.8127 25.3741 33.7114 25.3741C35.6101 25.3741 36.8524 26.8237 36.8524 28.9046C36.8524 30.9622 35.6101 32.4351 33.7114 32.4351C31.8127 32.4351 30.5703 30.9622 30.5703 28.9046Z" fill="#4B5563"/>
<path d="M46.6278 25.2806C44.8229 25.2806 43.604 26.6834 43.604 28.6007C43.604 30.5413 44.8463 31.9909 46.6278 31.9909C48.5968 31.9909 49.9095 30.5179 49.9095 28.6007C49.9095 26.7068 48.5968 25.2806 46.6278 25.2806Z" fill="#4B5563"/>
<path d="M57.0911 28.9046C57.0911 26.8237 58.3335 25.3741 60.2322 25.3741C62.1309 25.3741 63.3732 26.8237 63.3732 28.9046C63.3732 30.9622 62.1309 32.4351 60.2322 32.4351C58.3335 32.4351 57.0911 30.9622 57.0911 28.9046Z" fill="#4B5563"/>
<path d="M76.1934 28.928C76.1934 26.8471 77.4592 25.3975 79.4516 25.3975C81.4441 25.3975 82.6395 26.8705 82.6395 28.928C82.6395 30.9855 81.4441 32.4351 79.4516 32.4351C77.4592 32.4351 76.1934 31.0089 76.1934 28.928Z" fill="#4B5563"/>
<path fill-rule="evenodd" clip-rule="evenodd" d="M74.9999 53.3654C114.828 53.3654 147.115 42.0649 147.115 28.125C147.115 14.1851 114.828 2.88464 74.9999 2.88464C35.1717 2.88464 2.88452 14.1851 2.88452 28.125C2.88452 42.0649 35.1717 53.3654 74.9999 53.3654ZM25.9366 34.7031V17.3077H23.0768V34.7031H25.9366ZM27.6869 28.9046C27.6869 32.4585 30.0779 34.9837 33.7112 34.9837C37.3445 34.9837 39.7354 32.4585 39.7354 28.9046C39.7354 25.3507 37.3445 22.8256 33.7112 22.8256C30.0779 22.8256 27.6869 25.3507 27.6869 28.9046ZM46.1355 34.4693C42.8772 34.4693 40.6972 32.0377 40.6972 28.6708C40.6972 25.2806 42.9241 22.7788 46.2292 22.7788C47.9404 22.7788 49.3937 23.5037 50.0969 24.7195L50.261 23.1529H52.7926V34.1186C52.7926 37.9297 50.4017 40.3846 46.6512 40.3846C43.4632 40.3846 41.1426 38.4207 40.7676 35.4045H43.6508C43.8148 36.9243 45.0338 37.7894 46.8152 37.7894C48.8077 37.7894 50.0032 36.5268 50.0032 34.6329V32.669C49.2765 33.7912 47.8232 34.4693 46.1355 34.4693ZM54.2078 28.9046C54.2078 32.4585 56.5988 34.9837 60.2321 34.9837C63.8654 34.9837 66.2563 32.4585 66.2563 28.9046C66.2563 25.3507 63.8654 22.8256 60.2321 22.8256C56.5988 22.8256 54.2078 25.3507 54.2078 28.9046ZM71.0624 19.0847C71.0624 20.0433 70.2889 20.7915 69.3512 20.7915C68.3902 20.7915 67.6635 20.0433 67.6635 19.0847C67.6635 18.1494 68.3902 17.4012 69.3512 17.4012C70.2889 17.4012 71.0624 18.1494 71.0624 19.0847ZM70.7811 23.1529V34.7031H67.9214V23.1529H70.7811ZM73.2865 40.0573H76.076V33.1132C76.8026 34.3056 78.3731 35.007 80.1078 35.007C83.5301 35.007 85.5694 32.3884 85.5225 28.7877C85.4522 25.1637 83.366 22.8022 80.0843 22.8022C78.3263 22.8022 76.7323 23.5738 76.0291 24.9065L75.865 23.1529H73.2865V40.0573ZM90.8899 35.007C88.1239 35.007 86.3424 33.534 86.2487 31.2427H88.8506C88.8506 32.2481 89.5772 32.8326 90.843 32.8326C91.8979 32.8326 92.7652 32.4118 92.7652 31.4999C92.7652 30.8452 92.2963 30.4945 91.5462 30.2841L89.5304 29.7697C87.3035 29.1852 86.4362 27.946 86.4362 26.4496C86.4362 24.2518 88.288 22.8022 90.7727 22.8022C93.2808 22.8022 94.992 24.2518 95.0858 26.5432H92.4839C92.4839 25.5378 91.7806 24.9299 90.7024 24.9299C89.671 24.9299 89.0381 25.491 89.0381 26.286C89.0381 27.0342 89.6241 27.3381 90.4914 27.5719L92.5308 28.0629C94.4295 28.5305 95.4608 29.6528 95.4608 31.3129C95.4608 33.5574 93.609 35.007 90.8899 35.007ZM101.393 35.007C102.963 35.007 104.463 34.2822 105.143 33.2067L105.331 34.7031H108.003V23.1529H105.143V29.2086C105.143 31.2895 104.346 32.4585 102.471 32.4585C101.018 32.4585 100.01 31.7571 100.01 29.3723V23.1529H97.1498V30.3776C97.1498 33.1366 98.65 35.007 101.393 35.007ZM113.387 28.0629V34.7031H110.527V23.1529H113.152L113.293 24.4623C113.973 23.4335 115.192 22.8022 116.551 22.8022C118.473 22.8022 119.739 23.6439 120.372 25C120.935 23.6439 122.318 22.8022 124.076 22.8022C126.889 22.8022 128.365 24.4857 128.365 27.1511V34.7031H125.599V27.8057C125.599 26.1691 124.709 25.304 123.326 25.304C121.966 25.304 120.888 26.1925 120.888 28.0863V34.7031H118.098V27.8057C118.098 26.1691 117.208 25.304 115.848 25.304C114.489 25.304 113.387 26.1925 113.387 28.0629Z" fill="#4B5563"/>
</svg>
