<svg width="600" height="457" viewBox="0 0 600 457" fill="none" xmlns="http://www.w3.org/2000/svg">
<rect width="600" height="456.164" fill="white"/>
<rect x="120" y="34" width="2" height="388" fill="#E2E8F0"/>
<circle cx="120.5" cy="71.5" r="6.5" fill="#3B82F6"/>
<circle cx="120.5" cy="168.5" r="6.5" fill="#3B82F6"/>
<circle cx="120.5" cy="266.5" r="6.5" fill="#3B82F6"/>
<circle cx="120.5" cy="363.5" r="6.5" fill="#3B82F6"/>
<circle cx="160.5" cy="71.5" r="16.5" fill="#DBEAFE"/>
<rect x="190" y="59" width="50" height="9" fill="#111827"/>
<rect x="190" y="76" width="238" height="9" fill="#6B7280"/>
<circle cx="160.5" cy="168.5" r="16.5" fill="#DBEAFE"/>
<rect x="190" y="156" width="50" height="9" fill="#111827"/>
<rect x="190" y="173" width="238" height="9" fill="#6B7280"/>
<circle cx="160.5" cy="266.5" r="16.5" fill="#DBEAFE"/>
<rect x="190" y="254" width="50" height="9" fill="#111827"/>
<rect x="190" y="271" width="238" height="9" fill="#6B7280"/>
<circle cx="160.5" cy="364.5" r="16.5" fill="#DBEAFE"/>
<rect x="190" y="352" width="50" height="9" fill="#111827"/>
<rect x="190" y="369" width="238" height="9" fill="#6B7280"/>
</svg>
