<svg width="600" height="395" viewBox="0 0 600 395" fill="none" xmlns="http://www.w3.org/2000/svg">
<rect width="600" height="394.71" fill="white"/>
<rect x="244" y="35" width="336" height="325" rx="3" fill="#F3F4F6"/>
<path d="M393.558 193.292C397.045 193.292 399.871 190.465 399.871 186.979C399.871 183.493 397.045 180.667 393.558 180.667C390.072 180.667 387.246 183.493 387.246 186.979C387.246 190.465 390.072 193.292 393.558 193.292Z" fill="#D1D5DB"/>
<path d="M406.183 205.917L399.871 197.5L387.246 214.333H437.746L418.808 189.083L406.183 205.917Z" fill="#D1D5DB"/>
<path d="M446.162 163.833H378.829C374.187 163.833 370.412 167.608 370.412 172.25V222.75C370.412 227.392 374.187 231.167 378.829 231.167H446.162C450.804 231.167 454.579 227.392 454.579 222.75V172.25C454.579 167.608 450.804 163.833 446.162 163.833ZM378.829 222.75V172.25H446.162L446.171 222.75H378.829V222.75Z" fill="#D1D5DB"/>
<rect x="31" y="65" width="2" height="254" fill="#E2E8F0"/>
<circle cx="31.5" cy="56.5" r="10.5" fill="#3B82F6"/>
<circle cx="31.5" cy="121.5" r="10.5" fill="#3B82F6"/>
<circle cx="31.5" cy="186.5" r="10.5" fill="#3B82F6"/>
<circle cx="31.5" cy="251.5" r="10.5" fill="#3B82F6"/>
<circle cx="31.5" cy="316.5" r="10.5" fill="#3B82F6"/>
<rect x="51" y="48" width="22" height="7" fill="#111827"/>
<rect x="51" y="62" width="137" height="8" fill="#6B7280"/>
<rect x="51" y="77" width="137" height="8" fill="#6B7280"/>
<rect x="51" y="114" width="22" height="7" fill="#111827"/>
<rect x="51" y="128" width="137" height="8" fill="#6B7280"/>
<rect x="51" y="143" width="137" height="8" fill="#6B7280"/>
<rect x="51" y="179" width="22" height="7" fill="#111827"/>
<rect x="51" y="193" width="137" height="8" fill="#6B7280"/>
<rect x="51" y="208" width="137" height="8" fill="#6B7280"/>
<rect x="51" y="244" width="22" height="7" fill="#111827"/>
<rect x="51" y="258" width="137" height="8" fill="#6B7280"/>
<rect x="51" y="273" width="137" height="8" fill="#6B7280"/>
<rect x="51" y="309" width="22" height="7" fill="#111827"/>
<rect x="51" y="323" width="137" height="8" fill="#6B7280"/>
<rect x="51" y="338" width="137" height="8" fill="#6B7280"/>
</svg>
