<svg width="600" height="231" viewBox="0 0 600 231" fill="none" xmlns="http://www.w3.org/2000/svg">
<rect width="600" height="230.928" fill="white"/>
<circle cx="104.5" cy="55.5" r="20.5" fill="#F3F4F6"/>
<rect x="20" y="96" width="168" height="7" fill="#111827"/>
<rect x="20" y="110" width="168" height="7" fill="#111827"/>
<rect x="20" y="124" width="168" height="7" fill="#111827"/>
<rect x="20" y="138" width="168" height="7" fill="#111827"/>
<rect x="94" y="161" width="21" height="2" rx="1" fill="#3B82F6"/>
<rect x="74" y="177" width="60" height="6" fill="#111827"/>
<rect x="30" y="188" width="149" height="7" fill="#6B7280"/>
<circle cx="496.5" cy="55.5" r="20.5" fill="#F3F4F6"/>
<rect x="412" y="96" width="168" height="7" fill="#111827"/>
<rect x="412" y="110" width="168" height="7" fill="#111827"/>
<rect x="412" y="124" width="168" height="7" fill="#111827"/>
<rect x="412" y="138" width="168" height="7" fill="#111827"/>
<rect x="486" y="161" width="21" height="2" rx="1" fill="#3B82F6"/>
<rect x="466" y="177" width="60" height="6" fill="#111827"/>
<rect x="422" y="188" width="149" height="7" fill="#6B7280"/>
<circle cx="300.5" cy="55.5" r="20.5" fill="#F3F4F6"/>
<rect x="216" y="96" width="168" height="7" fill="#111827"/>
<rect x="216" y="110" width="168" height="7" fill="#111827"/>
<rect x="216" y="124" width="168" height="7" fill="#111827"/>
<rect x="216" y="138" width="168" height="7" fill="#111827"/>
<rect x="290" y="161" width="21" height="2" rx="1" fill="#3B82F6"/>
<rect x="270" y="177" width="60" height="6" fill="#111827"/>
<rect x="226" y="188" width="149" height="7" fill="#6B7280"/>
</svg>
