<svg width="600" height="203" viewBox="0 0 600 203" fill="none" xmlns="http://www.w3.org/2000/svg">
<rect width="600" height="202.23" fill="white"/>
<rect x="20" y="33" width="270" height="136" rx="3" fill="#F3F4F6"/>
<rect x="36" y="72" width="235" height="8" fill="#111827"/>
<rect x="36" y="86" width="235" height="8" fill="#111827"/>
<rect x="36" y="101" width="235" height="8" fill="#111827"/>
<circle cx="49" cy="136" r="13" fill="#E2E8F0"/>
<rect x="71" y="127" width="59" height="7" fill="#111827"/>
<rect x="71" y="138" width="130" height="7" fill="#6B7280"/>
<path d="M47.0007 58.5919C48.0228 57.4825 47.9199 56.0579 47.9167 56.0417V51.7084C47.9167 51.5647 47.8596 51.4269 47.758 51.3253C47.6564 51.2238 47.5186 51.1667 47.375 51.1667H44.125C43.5275 51.1667 43.0417 51.6526 43.0417 52.25V56.0417C43.0417 56.1853 43.0987 56.3231 43.2003 56.4247C43.3019 56.5263 43.4397 56.5834 43.5833 56.5834H45.2506C45.2391 56.8511 45.1591 57.1115 45.0182 57.3395C44.743 57.7734 44.2247 58.0697 43.4766 58.2192L43.0417 58.3059V59.8334H43.5833C45.0908 59.8334 46.2407 59.4157 47.0007 58.5919ZM41.0386 58.5919C42.0612 57.4825 41.9578 56.0579 41.9545 56.0417V51.7084C41.9545 51.5647 41.8975 51.4269 41.7959 51.3253C41.6943 51.2238 41.5565 51.1667 41.4129 51.1667H38.1629C37.5654 51.1667 37.0795 51.6526 37.0795 52.25V56.0417C37.0795 56.1853 37.1366 56.3231 37.2382 56.4247C37.3398 56.5263 37.4775 56.5834 37.6212 56.5834H39.2884C39.277 56.8511 39.197 57.1115 39.0561 57.3395C38.7809 57.7734 38.2625 58.0697 37.5145 58.2192L37.0795 58.3059V59.8334H37.6212C39.1287 59.8334 40.2786 59.4157 41.0386 58.5919V58.5919Z" fill="#9CA3AF"/>
<rect x="310" y="33" width="270" height="136" rx="3" fill="#F3F4F6"/>
<rect x="326" y="72" width="235" height="8" fill="#111827"/>
<rect x="326" y="86" width="235" height="8" fill="#111827"/>
<rect x="326" y="101" width="235" height="8" fill="#111827"/>
<circle cx="339" cy="136" r="13" fill="#E2E8F0"/>
<rect x="361" y="127" width="59" height="7" fill="#111827"/>
<rect x="361" y="138" width="130" height="7" fill="#6B7280"/>
<path d="M337.001 58.5919C338.023 57.4825 337.92 56.0579 337.917 56.0417V51.7084C337.917 51.5647 337.86 51.4269 337.758 51.3253C337.656 51.2238 337.519 51.1667 337.375 51.1667H334.125C333.528 51.1667 333.042 51.6526 333.042 52.25V56.0417C333.042 56.1853 333.099 56.3231 333.2 56.4247C333.302 56.5263 333.44 56.5834 333.583 56.5834H335.251C335.239 56.8511 335.159 57.1115 335.018 57.3395C334.743 57.7734 334.225 58.0697 333.477 58.2192L333.042 58.3059V59.8334H333.583C335.091 59.8334 336.241 59.4157 337.001 58.5919ZM331.039 58.5919C332.061 57.4825 331.958 56.0579 331.955 56.0417V51.7084C331.955 51.5647 331.898 51.4269 331.796 51.3253C331.694 51.2238 331.557 51.1667 331.413 51.1667H328.163C327.565 51.1667 327.08 51.6526 327.08 52.25V56.0417C327.08 56.1853 327.137 56.3231 327.238 56.4247C327.34 56.5263 327.478 56.5834 327.621 56.5834H329.289C329.277 56.8511 329.197 57.1115 329.056 57.3395C328.781 57.7734 328.263 58.0697 327.515 58.2192L327.08 58.3059V59.8334H327.621C329.129 59.8334 330.279 59.4157 331.039 58.5919V58.5919Z" fill="#9CA3AF"/>
</svg>
